<?xml version="1.0" encoding="UTF-8" standalone="no"?>
<svg
   xmlns:dc="http://purl.org/dc/elements/1.1/"
   xmlns:cc="http://creativecommons.org/ns#"
   xmlns:rdf="http://www.w3.org/1999/02/22-rdf-syntax-ns#"
   xmlns:svg="http://www.w3.org/2000/svg"
   xmlns="http://www.w3.org/2000/svg"
   viewBox="0 0 293.81332 120.64"
   height="120.64"
   width="293.81332"
   xml:space="preserve"
   id="svg2"
   version="1.1"><metadata
     id="metadata8"><rdf:RDF><cc:Work
         rdf:about=""><dc:format>image/svg+xml</dc:format><dc:type
           rdf:resource="http://purl.org/dc/dcmitype/StillImage" /></cc:Work></rdf:RDF></metadata><defs
     id="defs6" /><g
     transform="matrix(1.3333333,0,0,-1.3333333,0,120.64)"
     id="g10"><g
       transform="scale(0.1)"
       id="g12"><path
         id="path14"
         style="fill:#00adef;fill-opacity:1;fill-rule:nonzero;stroke:none"
         d="m 1953.46,505.645 c -33.83,10.429 -68.62,17.949 -103.58,24.648 -34.99,6.613 -70.21,12.16 -105.53,17.051 -70.64,9.687 -141.72,17.09 -212.72,21.758 l -3.2,0.203 -3.07,1.886 v 0 c -76.81,45.567 -151.76,93.45 -231.95,127.997 -39.78,17.347 -81.84,31.222 -123.34,40.277 -42.57,8.551 -86.25,12.871 -130.1,14.609 -43.868,1.68 -87.966,0.723 -131.888,-2.453 -43.867,-3.125 -87.91,-7.941 -130.57,-16.57 -10.867,-2.258 -20.485,-4.387 -29.992,-8.164 -9.676,-3.664 -19.399,-8.235 -29.036,-13.145 -19.257,-9.914 -38.39,-20.937 -57.351,-32.383 -37.969,-22.882 -75.485,-47.226 -114.34,-69.804 l -1.832,-1.117 -2.023,-0.34 C 495.59,602.02 448.086,596.836 401.016,590.82 353.941,584.844 307.207,577.785 261.43,566.688 l -4.5,18.164 c 46.64,11.906 94.117,19.652 141.367,26.242 47.266,6.613 94.379,12.355 140.789,20.859 l -3.848,-1.453 c 37.317,23.926 74.024,49.16 111.739,73.555 18.91,12.136 37.984,24.226 58.238,35.058 10.121,5.43 20.508,10.594 31.605,15.086 11.172,4.707 23.364,7.696 34.274,10.207 89.14,19.422 179.328,26.16 270.026,24.051 45.3,-1.309 90.76,-5.273 135.81,-13.816 45.67,-10.051 88.63,-24.68 130.59,-43.067 83.72,-36.906 158.59,-87.629 232.54,-137.16 h 0.01 l -6.27,2.09 c 71.69,-6.953 142.86,-16.59 213.72,-28.555 35.43,-6.023 70.75,-12.703 105.89,-20.488 35.1,-7.852 70.15,-16.563 104.42,-28.281 l -4.37,-13.535" /><path
         id="path16"
         style="fill:#1b65b9;fill-opacity:1;fill-rule:nonzero;stroke:none"
         d="m 977.109,201.516 c -41.777,0 -43.164,16.539 -40.625,38.164 l 23.75,202.226 c 2.539,21.641 7.813,38.184 49.586,38.184 h 117.89 c 41.8,0 43.17,-16.543 40.63,-38.184 L 1144.59,239.68 c -2.54,-21.625 -7.79,-38.164 -49.59,-38.164 z m 89.431,259.664 c -15.19,0 -32.5,-9.938 -34.66,-28.336 l -21.39,-182.149 c -2.15,-18.398 12.83,-28.32 28.03,-28.32 17.57,0 32.81,12.438 34.68,28.32 l 21.39,182.149 c 1.86,15.898 -10.47,28.336 -28.05,28.336" /><path
         id="path18"
         style="fill:#1b65b9;fill-opacity:1;fill-rule:nonzero;stroke:none"
         d="m 485.156,201.516 32.715,278.574 h 163.008 c 41.777,0 43.164,-16.543 40.625,-38.184 l -4.883,-41.562 c -3.848,-35.547 -39.277,-42.442 -39.277,-42.442 13.105,-3.847 31.875,-20.511 30.136,-35.312 l -9.726,-82.91 c -2.539,-21.625 -7.813,-38.164 -49.59,-38.164 z m 75.508,23.75 h 31.348 c 17.578,0 32.812,12.441 34.687,28.336 l 7.949,67.66 c 1.856,15.898 -10.468,28.336 -28.046,28.336 h -31.348 z m 17.246,146.832 h 31.348 c 17.578,0 32.812,12.461 34.687,28.363 l 3.379,28.887 c 1.875,15.898 -10.449,28.336 -28.027,28.336 H 587.949 L 577.91,372.098" /><path
         id="path20"
         style="fill:#1b65b9;fill-opacity:1;fill-rule:nonzero;stroke:none"
         d="m 776.25,201.516 30.078,256.23 h -46.973 l 2.637,22.344 h 166.641 l -2.617,-22.344 H 879.043 L 848.945,201.516 H 776.25" /><path
         id="path22"
         style="fill:#1b65b9;fill-opacity:1;fill-rule:nonzero;stroke:none"
         d="m 1775.94,201.516 32.71,278.574 h 124.44 l -2.64,-25.176 h -51.72 l -30.1,-253.398 h -72.69" /><path
         id="path24"
         style="fill:#1b65b9;fill-opacity:1;fill-rule:nonzero;stroke:none"
         d="m 1359.18,201.516 26.02,221.562 -52.02,-90.937 -32.71,90.937 -26.02,-221.562 h -72.69 l 32.71,278.574 51.86,-0.039 c 25.19,0 31.01,-22.559 31.07,-22.793 l 21.53,-67.406 37.09,66.898 c 0.7,1.406 11.81,23.301 36.69,23.301 l 51.88,0.039 -32.71,-278.574 h -72.7" /><path
         id="path26"
         style="fill:#1b65b9;fill-opacity:1;fill-rule:nonzero;stroke:none"
         d="M 352.246,201.516 367.773,333.68 H 292.969 L 261.973,201.516 h -72.598 l 55.527,239.433 c 6.368,24.063 16.953,39.141 49.766,39.141 H 457.656 L 424.941,201.516 Z m -1.016,258.359 c -16.171,0 -30.019,-10.859 -34.414,-27.031 l -18.613,-76.817 h 72.188 l 12.187,103.848 H 351.23" /><path
         id="path28"
         style="fill:#1b65b9;fill-opacity:1;fill-rule:nonzero;stroke:none"
         d="m 1645.53,201.516 15.52,132.164 h -74.8 l -31,-132.164 h -72.59 l 55.52,239.433 c 6.37,24.063 16.96,39.141 49.77,39.141 h 162.99 l -32.72,-278.574 z m -1.02,258.359 c -16.17,0 -30.02,-10.859 -34.41,-27.031 l -18.62,-76.817 h 72.19 l 12.19,103.848 h -31.35" /></g></g></svg>