<?xml version="1.0" standalone="no"?>
<!DOCTYPE svg PUBLIC "-//W3C//DTD SVG 1.1//EN" "http://www.w3.org/Graphics/SVG/1.1/DTD/svg11.dtd" >
<svg xmlns="http://www.w3.org/2000/svg">
<metadata></metadata>
<defs>
<font id="codaheavy" horiz-adv-x="1450" >
<font-face units-per-em="2048" ascent="1638" descent="-410" />
<missing-glyph horiz-adv-x="380" />
<glyph unicode=" "  horiz-adv-x="380" />
<glyph unicode="&#x09;" horiz-adv-x="380" />
<glyph unicode="&#xa0;" horiz-adv-x="380" />
<glyph unicode="!" horiz-adv-x="722" d="M171 171q0 99 60.5 154.5t143.5 55.5t143.5 -55.5t60.5 -154.5t-60.5 -154.5t-143.5 -55.5t-143.5 55.5t-60.5 154.5zM314 607q-22 94 -75 281.5t-85 322t-32 202.5q0 104 74 161t177 57q105 0 182.5 -58.5t77.5 -161.5q0 -70 -34 -206t-88 -319.5t-76 -278.5 q-8 -33 -24.5 -50.5t-35.5 -17.5q-20 0 -36.5 17.5t-24.5 50.5z" />
<glyph unicode="&#x22;" horiz-adv-x="1213" d="M777 896q-16 68 -52.5 197.5t-58.5 222t-22 138.5q0 84 55 129.5t131 45.5q78 0 136.5 -47.5t58.5 -129.5q0 -48 -23.5 -141t-61 -220t-53.5 -195q-6 -28 -21.5 -43.5t-33.5 -15.5q-17 0 -32 15t-23 44zM280 896q-16 68 -52.5 197.5t-58.5 222t-22 138.5q0 84 55 129.5 t131 45.5q78 0 136.5 -47.5t58.5 -129.5q0 -48 -23.5 -141t-61 -220t-53.5 -195q-6 -28 -22 -43.5t-33 -15.5t-32 15t-23 44z" />
<glyph unicode="#" horiz-adv-x="1718" d="M734 621h197l52 372h-197zM1567 430h-165l-60 -430h-501l61 429h-197l-60 -429h-502l61 429h-134l26 192h138l51 372h-148l29 207h153l54 395h499l-53 -395h197l55 395h498l-53 -395h148l-30 -206h-151l-52 -373h163z" />
<glyph unicode="$" horiz-adv-x="1434" d="M600 1031q3 -1 35 -8t50 -11v271h-85v-252zM847 556l-83 16v-289h83v273zM685 -168v190q-250 2 -384 49q-115 41 -162 135.5t-38 275.5l499 -32v-167h85v303q-59 11 -99 19t-96 22t-95 28.5t-86.5 37t-79.5 47.5t-64.5 60t-51.5 75t-31 92.5t-12 112.5q0 112 31.5 194.5 t84 132.5t134 81t167 42.5t198.5 13.5v186h79v-185q243 -2 381 -45q72 -24 117 -64.5t62.5 -92.5t23 -116.5t-1.5 -134.5l-499 30v161h-83v-286q79 -15 125 -25.5t119.5 -31.5t118 -43.5t98 -59.5t83 -81.5t50 -107t20.5 -138.5q0 -115 -28 -199t-77 -138t-128 -87 t-169.5 -47t-211.5 -16v-191h-79z" />
<glyph unicode="%" horiz-adv-x="2792" d="M1779 1632l-376 -1671h-388l380 1671h384zM2215 129q-57 0 -96.5 1.5t-90.5 8.5t-85.5 19.5t-70.5 36t-57.5 55.5t-35.5 80.5t-14 110.5v357q0 61 14 109.5t35.5 80.5t57.5 55t70.5 35.5t85 19.5t90.5 9t96 2t95.5 -1.5t90.5 -8.5t86 -19.5t71 -35.5t58 -55.5t36 -80.5 t14 -109v-357q0 -60 -14 -108t-36 -80.5t-58 -56t-71.5 -36.5t-85 -20.5t-90.5 -9.5t-95 -2zM2262 892h-90v-545h90v545zM575 618q-47 0 -75.5 0.5t-72 3.5t-70.5 8.5t-62.5 16.5t-57 26t-45.5 38.5t-37 53.5t-21.5 71t-8.5 91v359q0 53 9.5 96.5t29.5 74.5t44 54.5t59 38 t67 24t76.5 14t80 6t83.5 1.5t83 -1.5t80 -5.5t77.5 -13.5t67.5 -24t59 -38t44 -54t30 -74t10 -96.5v-359q0 -62 -14 -111t-35.5 -81.5t-58.5 -55.5t-70.5 -35t-85.5 -18.5t-90 -8t-96 -1.5zM623 1378h-91v-545h91v545z" />
<glyph unicode="&#x26;" horiz-adv-x="1653" d="M359 861l-112 12q-28 3 -54.5 21t-52 53.5t-41 100.5t-15.5 150q0 83 22.5 149t58.5 110.5t93 77.5t115 51t136.5 29t144.5 14t152 3q319 0 477.5 -93t158.5 -301q0 -29 -4 -54h-545v208h-206v-463h209v139h546v-139h151v-193h-151v-223q0 -113 -12 -193.5t-42.5 -144.5 t-78.5 -103t-125.5 -65.5t-177.5 -36.5t-240 -10q-95 0 -166 4.5t-145.5 17t-127.5 35t-101 59.5t-77.5 89t-46.5 125t-17 166q0 47 8.5 101.5t26.5 111t51 96t76 44.5l112 13v39zM896 224v512h-209v-512h209z" />
<glyph unicode="'" horiz-adv-x="629" d="M280 896q-16 68 -52.5 197.5t-58.5 222t-22 138.5q0 84 55 129.5t131 45.5q78 0 136.5 -47.5t58.5 -129.5q0 -48 -23.5 -141t-61 -220t-53.5 -195q-6 -28 -22 -43.5t-33 -15.5t-32 15t-23 44z" />
<glyph unicode="(" horiz-adv-x="860" d="M51 827q0 153 24 298t75 275.5t123.5 228t176.5 155t228 57.5h93v-279h-65q-77 0 -136 -109.5t-88 -275t-29 -350.5t29 -346t88 -266t136 -105h65v-279h-93q-124 0 -228 55.5t-176.5 150.5t-123.5 223t-75 271t-24 296z" />
<glyph unicode=")" horiz-adv-x="861" d="M810 827q0 -153 -24 -296t-75 -271t-123.5 -223t-176.5 -150.5t-228 -55.5h-93v279h65q77 0 136 105t88 266t29 346t-29 350.5t-88 275t-136 109.5h-65v279h93q124 0 228 -57.5t176.5 -155t123.5 -228t75 -275.5t24 -298z" />
<glyph unicode="*" horiz-adv-x="1321" d="M775 489q-10 17 -21 43.5t-24 69.5t-21 70t-24.5 87.5t-21.5 80.5q-9 -32 -21 -77t-19 -72.5t-17.5 -63.5t-19 -57.5t-19.5 -47t-22.5 -40t-26 -28t-31.5 -19t-37 -5.5q-62 0 -115 46.5t-53 104.5q0 13 4 26.5t14 29.5t19.5 30.5t28 34.5t32 34.5t38.5 38.5t40.5 38.5 t46 42.5t46.5 43q-14 -4 -50.5 -14.5t-53 -15t-49 -13t-50 -13t-43.5 -10.5t-42.5 -9t-34 -5t-30.5 -2q-60 0 -92.5 42.5t-32.5 102.5q0 61 33.5 105.5t92.5 44.5q20 0 48.5 -4.5t70 -15t69.5 -18.5t85 -24.5t79 -22.5q-18 17 -48 45.5t-46 44.5t-41 40t-38.5 39l-31.5 35 t-27.5 34.5t-19 30t-13.5 29.5t-4 26q0 58 52.5 102t115.5 44q69 0 103 -57q11 -18 21.5 -45t24 -73t20 -70t23.5 -90.5t21 -81.5q6 24 21.5 82.5t23.5 88.5t20.5 72.5t23.5 70.5t22 46q34 57 103 57q62 0 115 -44t53 -102q0 -16 -6.5 -33.5t-22.5 -40t-30.5 -40.5 t-44 -47.5l-48.5 -48.5t-58 -56.5t-60 -57.5q20 6 78.5 23t86 24t69.5 18t70.5 15.5t48.5 4.5q59 0 92.5 -44.5t33.5 -105.5q0 -60 -32.5 -102.5t-93.5 -42.5q-20 0 -47.5 4.5t-70 14.5t-70 17.5t-86 23.5t-79.5 22q17 -16 46 -43t45.5 -42.5t41 -39t38.5 -38.5t32 -35 t28 -34t20 -30t14 -30t4 -26q0 -59 -52.5 -105t-114.5 -46q-67 0 -102 59z" />
<glyph unicode="+" horiz-adv-x="1328" d="M469 811v381h392v-381h364v-333h-364v-378h-392v378h-365v333h365z" />
<glyph unicode="," horiz-adv-x="711" d="M141 209q0 94 60.5 147t143.5 53q103 0 156.5 -68t53.5 -172q0 -70 -23.5 -140.5t-66.5 -129.5t-110.5 -96t-146.5 -37q-22 0 -44 3v109q63 1 107.5 33.5t48.5 88.5q-75 8 -127 62.5t-52 146.5z" />
<glyph unicode="-" horiz-adv-x="1328" d="M1165 811v-333h-1001v333h1001z" />
<glyph unicode="." horiz-adv-x="670" d="M136 171q0 99 60.5 154.5t143.5 55.5t143.5 -55.5t60.5 -154.5t-60.5 -154.5t-143.5 -55.5t-143.5 55.5t-60.5 154.5z" />
<glyph unicode="/" horiz-adv-x="1056" d="M136 0l352 1595h434l-351 -1595h-435z" />
<glyph unicode="0" horiz-adv-x="1469" d="M739 -39q-60 0 -106 1.5t-103.5 6t-100.5 12.5t-91 22.5t-82.5 34.5t-68 50t-53.5 67t-32.5 87t-12.5 110v890q0 60 12.5 110t33.5 87.5t54.5 67.5t68 50t83 34.5t91.5 22t100 12.5t102 6t104 1q78 0 136.5 -2.5t129.5 -12t122 -25.5t102.5 -45.5t83 -70t51.5 -100.5 t20 -135v-890q0 -62 -12.5 -113t-32.5 -88.5t-53.5 -67.5t-66.5 -49.5t-82.5 -33.5t-90.5 -21.5t-100 -11.5t-101.5 -5t-104.5 -1zM653 233h166v1126h-166v-1126z" />
<glyph unicode="1" horiz-adv-x="961" d="M41 1511q208 0 347 84h478v-1595h-604v1291h-221v220z" />
<glyph unicode="2" horiz-adv-x="1403" d="M78 1064q-2 46 -2 60q0 121 32 211t86.5 146.5t138 91t175.5 47.5t210 13q325 0 478 -117t153 -391q0 -71 -17 -135t-38.5 -110t-67.5 -93.5t-76 -74t-94 -64t-91.5 -51.5t-96.5 -47q-3 -2 -5.5 -3t-4.5 -2q-47 -23 -81.5 -43.5t-71 -51t-56 -68.5t-19.5 -81h647v-300 h-1199v200q0 116 25 212t66.5 164.5t108 128t134 100.5t161.5 84q37 18 49.5 24.5t45 24.5t46.5 30.5t33.5 32t27 40.5t7.5 44v272h-152v-294h-552z" />
<glyph unicode="3" horiz-adv-x="1436" d="M714 1632q167 0 285 -26t201.5 -86t123.5 -160.5t40 -246.5q0 -107 -53 -181t-148 -112q100 -37 151.5 -114.5t51.5 -183.5q0 -131 -30.5 -228.5t-84 -160.5t-136.5 -102t-179 -54.5t-220 -15.5q-332 0 -488.5 136.5t-156.5 419.5q0 52 4 96h552v-378h172v472h-259v224 h259v430h-172v-337h-552q-3 44 -3 84q0 147 40.5 248.5t123.5 162t199 87t279 26.5z" />
<glyph unicode="4" horiz-adv-x="1459" d="M1377 0h-512v240h-792v417l254 938h573l-251 -938v-54h216v335h512v-938z" />
<glyph unicode="5" horiz-adv-x="1429" d="M955 1105q96 0 167.5 -26.5t117.5 -73t74 -117.5t39 -151.5t11 -183.5q0 -176 -34 -289.5t-114.5 -181.5t-199 -94.5t-302.5 -26.5q-110 0 -196 9.5t-166.5 34.5t-135.5 65.5t-92.5 106.5t-48.5 154q-9 67 -9 143h550v-238h181v602h-181v-183h-533l53 941h1093v-297h-591 l-34 -301q92 107 351 107z" />
<glyph unicode="6" horiz-adv-x="1448" d="M718 -39q-157 0 -271 27t-197 86.5t-124 159.5t-41 242v580q0 163 41 275.5t124 178t196.5 94t270.5 28.5q64 0 113.5 -2t116 -11.5t116.5 -25t102.5 -45.5t86.5 -70.5t55.5 -102t21.5 -138.5q0 -15 1 -41t1 -38h-531v211h-163v-301h124q178 0 293 -26t190 -90 t106.5 -167t31.5 -262q0 -136 -30.5 -235t-83.5 -161t-139 -99.5t-183 -51.5t-228 -15zM636 236h180v562h-180v-562z" />
<glyph unicode="7" horiz-adv-x="991" d="M942 1595v-244l-226 -1351h-604l222 1354h-294v241h902z" />
<glyph unicode="8" horiz-adv-x="1427" d="M628 235h166v485h-166v-485zM640 1355v-395h154v395h-154zM119 1181q0 102 29 180t80 129t127.5 83t165 45t198.5 13q138 0 242 -22t184.5 -72.5t122.5 -140t42 -216.5q0 -269 -161 -316q76 -16 126 -72.5t71.5 -137t21.5 -184.5q0 -92 -16.5 -165.5t-45 -126.5t-74 -92 t-97 -63t-121 -38t-138 -19.5t-155.5 -5.5q-135 0 -235.5 15t-182.5 50.5t-133.5 94t-78.5 145.5t-27 205q0 341 187 394q-132 47 -132 317z" />
<glyph unicode="9" horiz-adv-x="1445" d="M68 1071q0 101 16 181.5t44 139t73 100.5t96.5 68.5t122 42t141 21t161.5 5.5q126 0 224 -15.5t178.5 -52t132.5 -95.5t80 -146.5t28 -203.5v-596q0 -129 -28 -225.5t-79 -160t-131 -102.5t-175 -55.5t-219 -16.5q-608 0 -618 368q-1 34 -1 96h531v-199h158v283h-227 q-148 0 -247 33t-156.5 105.5t-81 174t-23.5 250.5zM799 1358h-171v-579h171v579z" />
<glyph unicode=":" horiz-adv-x="691" d="M141 1133q0 99 60.5 154.5t143.5 55.5t143.5 -55.5t60.5 -154.5t-60.5 -154.5t-143.5 -55.5t-143.5 55.5t-60.5 154.5zM141 323q0 99 60.5 154.5t143.5 55.5t143.5 -55.5t60.5 -154.5t-60.5 -154.5t-143.5 -55.5t-143.5 55.5t-60.5 154.5z" />
<glyph unicode=";" horiz-adv-x="710" d="M141 1133q0 99 60.5 154.5t143.5 55.5t143.5 -55.5t60.5 -154.5t-60.5 -154.5t-143.5 -55.5t-143.5 55.5t-60.5 154.5zM141 323q0 94 60.5 147t143.5 53q103 0 156.5 -68t53.5 -172q0 -70 -23.5 -140.5t-66.5 -129.5t-110.5 -96t-146.5 -37q-22 0 -44 3v109 q63 1 107.5 33.5t48.5 88.5q-75 8 -127 62.5t-52 146.5z" />
<glyph unicode="&#x3c;" horiz-adv-x="1036" d="M75 1098l876 499v-505l-601 -295l601 -293v-504l-876 489v609z" />
<glyph unicode="=" horiz-adv-x="1008" d="M923 897v-336h-834v336h834zM923 336v-336h-834v336h834z" />
<glyph unicode="&#x3e;" horiz-adv-x="1035" d="M963 489l-877 -489v504l601 293l-601 295v505l877 -499v-609z" />
<glyph unicode="?" horiz-adv-x="906" d="M153 171q0 99 60.5 154.5t143.5 55.5t143.5 -55.5t60.5 -154.5t-60.5 -154.5t-143.5 -55.5t-143.5 55.5t-60.5 154.5zM417 567q-7 -57 -62 -57q-61 0 -61 72q0 79 19 162t43 141t49.5 125.5t33.5 112.5q2 18 2 27q0 51 -34.5 82.5t-107.5 31.5q-78 0 -194 -49l-36 347 q219 70 371 70q97 0 173 -18t124.5 -48t79.5 -72t43.5 -86t12.5 -95q0 -62 -23 -118.5t-60.5 -102.5t-83 -91t-93 -92t-88.5 -96t-70.5 -112.5t-37.5 -133.5z" />
<glyph unicode="@" horiz-adv-x="2198" d="M1081 641v-305h93v305h-93zM1553 88q-262 5 -351 151q-101 -126 -252 -126q-165 0 -248.5 70t-88.5 222q-1 30 -1 88q0 181 79 262t259 81q150 0 225 -48v234h-59v-135h-452q0 11 -0.5 34t-0.5 35q0 73 23.5 125.5t62.5 84.5t101.5 50.5t129.5 25t158 6.5q182 0 282 -39 t143.5 -126.5t43.5 -245.5v-507h170v502q0 109 -12.5 192.5t-35 146.5t-62 107t-86.5 72.5t-115.5 45t-141.5 22.5t-172 6q-147 0 -257.5 -18t-191 -58.5t-133.5 -97t-84.5 -141.5t-44.5 -184.5t-13 -232.5q0 -163 14 -276t52 -199.5t93 -137.5t149 -83t207 -43t279 -11 q145 0 482 80l58 -255q-243 -160 -522 -160q-158 0 -284.5 11t-241 36.5t-202 66.5t-161 102t-124 142.5t-85.5 188t-51.5 239t-16.5 294.5q0 241 44.5 420t129 300t217.5 195.5t298.5 106.5t384.5 32q264 0 446.5 -46t304.5 -149.5t178 -267t56 -400.5q0 -107 -6 -192 t-22.5 -169.5t-44.5 -147t-72 -117.5t-104.5 -90t-143.5 -54.5t-187 -19.5z" />
<glyph unicode="A" horiz-adv-x="1550" d="M782 1283h-19l-77 -707h178zM668 366l-55 -366h-586l292 1595h907l297 -1595h-587l-54 366h-214z" />
<glyph unicode="B" horiz-adv-x="1514" d="M696 951h173v407h-173v-407zM696 235h173v535h-173v-535zM1098 873v-13q112 -13 189.5 -50.5t117.5 -94t56.5 -118t16.5 -137.5q0 -139 -29 -227.5t-97.5 -140.5t-166.5 -72t-250 -20h-843v1595h847q61 0 110 -3.5t102 -13.5t93.5 -26.5t78 -45t61.5 -67.5t38.5 -94.5 t14.5 -125.5q0 -159 -74.5 -242.5t-264.5 -103.5z" />
<glyph unicode="C" horiz-adv-x="1519" d="M858 1356h-173v-1123h173v381h604v-245q0 -78 -23 -140.5t-59.5 -104.5t-92.5 -73t-112.5 -48t-130.5 -27t-133.5 -13t-134.5 -3q-69 0 -126 2.5t-131.5 12.5t-132.5 27t-118 48t-99 73t-64 105t-25 142v856q0 77 23.5 139.5t61 104.5t94.5 73.5t114.5 48.5t131.5 27.5 t134.5 13.5t133.5 3q78 0 138 -2.5t135.5 -12.5t131 -26.5t112 -47.5t92 -73t58 -105t22.5 -142v-248h-604v377z" />
<glyph unicode="D" horiz-adv-x="1554" d="M1474 1204v-811q0 -67 -13.5 -122t-41 -94.5t-61 -69t-81.5 -48.5t-93.5 -31.5t-107 -18t-111.5 -7.5t-117 -2h-756v1595h756q76 0 135 -3t127 -12.5t118 -26.5t98.5 -46.5t79 -70t49.5 -99.5t19 -133zM697 235h173v1123h-173v-1123z" />
<glyph unicode="E" horiz-adv-x="1096" d="M1037 1595v-249h-341v-385h318v-250h-318v-460h341v-251h-945v1595h945z" />
<glyph unicode="F" horiz-adv-x="1080" d="M1037 1595v-249h-341v-392h318v-249h-318v-705h-604v1595h945z" />
<glyph unicode="G" horiz-adv-x="1540" d="M901 124q-100 -163 -351 -163q-98 0 -181.5 24t-149 71t-102.5 125t-37 178v869q0 78 23 140.5t60.5 104.5t94.5 72.5t114 47.5t131.5 27t134 13t134.5 3q64 0 122 -3.5t130 -14t131 -28t118 -49t99 -73t65 -103.5t25 -138v-248h-605v379h-173v-1123h173v303h-85v231h690 v-769h-487z" />
<glyph unicode="H" horiz-adv-x="1585" d="M1493 1595v-1595h-604v688h-193v-688h-604v1595h604v-687h193v687h604z" />
<glyph unicode="I" horiz-adv-x="788" d="M696 1595v-1595h-604v1595h604z" />
<glyph unicode="J" horiz-adv-x="923" d="M831 1594v-1320q0 -116 -39.5 -201.5t-111.5 -135t-164 -73t-206 -23.5q-118 0 -256 25v272h173v1456h604z" />
<glyph unicode="K" horiz-adv-x="1667" d="M1657 0l-373 840l325 755h-619l-295 -766l2 184v582h-605v-1595h605v564l59 131l252 -695h649z" />
<glyph unicode="L" horiz-adv-x="1072" d="M92 0v1595h604v-1354h341v-241h-945z" />
<glyph unicode="M" horiz-adv-x="1904" d="M1324 958l-157 -959h-427l-145 959h-14l-56 -958h-461l84 1595h670l127 -924h13l127 924h671l84 -1595h-446l-56 958h-14z" />
<glyph unicode="N" horiz-adv-x="1576" d="M945 0l-405 711v-711h-448v1595h517l431 -761v761h444v-1595h-539z" />
<glyph unicode="O" horiz-adv-x="1542" d="M768 -39q-80 0 -140 2.5t-135.5 12t-130.5 26.5t-111 47.5t-91.5 72.5t-57.5 105.5t-22 142.5v856q0 77 23 139.5t60 104.5t93.5 73t113.5 48.5t130.5 27.5t134 13t133.5 3q68 0 125 -2.5t131 -12.5t132 -27t117.5 -48t99 -73t64.5 -105t25 -141v-856q0 -79 -23.5 -142 t-60.5 -105t-95 -72.5t-114 -47.5t-132 -26.5t-134.5 -12.5t-134.5 -3zM685 235h173v1127h-173v-1127z" />
<glyph unicode="P" horiz-adv-x="1530" d="M695 628h173v734h-173v-734zM92 1595h755q76 0 135 -3t127 -12.5t118 -26.5t98.5 -46.5t79 -70t49.5 -99.5t19 -133v-411q0 -60 -11.5 -109.5t-31 -87t-51 -67t-64.5 -49.5t-79 -35t-87.5 -23t-97 -12.5t-100 -6t-103.5 -1.5h-152v-402h-604v1595z" />
<glyph unicode="Q" horiz-adv-x="1542" d="M685 235h173v1127h-173v-1127zM1030 -499l-388 463q-79 4 -141 12.5t-130 25.5t-117.5 46.5t-90.5 72t-62 106t-21 143.5v856q0 77 23 139.5t60 104t94 72.5t113.5 47.5t130.5 26.5t133.5 13t133.5 3q69 0 125 -2.5t130.5 -12t132.5 -26t118 -47.5t99 -72.5t64 -104.5 t25 -141v-856q0 -73 -23 -132t-60 -99t-92 -71t-111.5 -48.5t-126.5 -31.5l226 -269z" />
<glyph unicode="R" horiz-adv-x="1527" d="M696 881h173v477h-173v-477zM1099 792l1 -6q200 -23 287.5 -115.5t87.5 -233.5v-437h-606v649h-173v-649h-604v1595h913q113 0 193.5 -19.5t141 -65.5t90 -125.5t29.5 -194.5q0 -71 -9 -124.5t-32.5 -102.5t-63.5 -82.5t-104 -56.5t-151 -32z" />
<glyph unicode="S" horiz-adv-x="1451" d="M632 1125l3 -2q0 -6 2.5 -12t8 -10.5t11 -8t15 -7t16 -5.5t18 -4.5t17.5 -3.5l18 -3t16 -3q225 -40 323 -74q221 -76 293 -240q40 -89 40 -210q0 -173 -37.5 -285t-123 -178t-208 -92t-309.5 -26q-68 0 -122 2.5t-123.5 11.5t-122.5 25t-108.5 45t-93 68.5t-64.5 98.5 t-34 133q-6 68 -6 143h573v-253h173v250q0 19 -10 33.5t-32 26t-35 16.5t-41 14q-33 11 -86 26.5t-89.5 26.5t-86 28t-84.5 32.5t-76.5 39t-70 49t-57.5 60t-46 74t-27.5 90.5t-10.5 110q0 92 17 167t47 129t76.5 94.5t99 65.5t121 40.5t137 21.5t152.5 6q88 0 156.5 -4.5 t137 -17t118.5 -34t94 -55.5t71 -81.5t43 -113.5t16 -149h-536v178h-173v-233z" />
<glyph unicode="T" horiz-adv-x="1319" d="M1316 1595v-269h-356v-1326h-604v1326h-353v269h1313z" />
<glyph unicode="U" horiz-adv-x="1552" d="M689 234h173v1360h605v-1224q0 -78 -23.5 -140.5t-60.5 -104.5t-94.5 -73t-114.5 -48t-131.5 -27t-134.5 -13t-134 -3q-69 0 -126 2.5t-131 12.5t-131.5 27t-116 48t-97 73t-63 105.5t-24.5 141.5v1224h604v-1361z" />
<glyph unicode="V" horiz-adv-x="1494" d="M745 412h11l138 1183h592l-318 -1595h-842l-318 1595h591z" />
<glyph unicode="W" horiz-adv-x="2059" d="M1396 624l14 2l107 969h511l-219 -1595h-642l-147 927h-11l-147 -927h-622l-209 1595h563l75 -971h13l116 971h479z" />
<glyph unicode="X" horiz-adv-x="1493" d="M563 0h-548l307 802l-307 793h552l173 -514h9l178 514h551l-310 -793l310 -802h-555l-178 514h-9z" />
<glyph unicode="Y" horiz-adv-x="1486" d="M738 955h9l186 640h556l-442 -1066v-529h-605v539l-445 1056h560z" />
<glyph unicode="Z" horiz-adv-x="1108" d="M1013 1595l-7 -253l-294 -1048h351l-10 -294h-952v266l320 1038h-356l-16 291h964z" />
<glyph unicode="[" horiz-adv-x="1111" d="M100 1819h975v-241h-341v-1655h341v-242h-975v2138z" />
<glyph unicode="\" horiz-adv-x="1053" d="M587 1595l352 -1595h-475l-351 1595h474z" />
<glyph unicode="]" horiz-adv-x="1108" d="M1010 -319h-975v242h341v1655h-341v241h975v-2138z" />
<glyph unicode="^" horiz-adv-x="1222" d="M896 676l283 -615h-481l-88 320l-84 -320h-480l272 615h578z" />
<glyph unicode="_" horiz-adv-x="1042" d="M967 1v-436h-889v436h889z" />
<glyph unicode="`" horiz-adv-x="873" d="M814 1480q34 -30 34 -60q0 -21 -18 -35t-45 -14q-18 0 -32 5q-51 16 -161 47t-178.5 51.5t-144.5 47.5t-112 48q-58 34 -87 82t-29 100q0 73 49.5 125.5t124.5 52.5q61 0 125 -37q35 -20 97.5 -71.5t112 -97t139.5 -129t125 -115.5z" />
<glyph unicode="a" d="M629 653v-453h166v453h-166zM1365 257q1 -128 29 -256h-520l-56 138q-48 -79 -134.5 -124t-205.5 -45q-213 0 -317 103.5t-104 314.5q0 225 118 330.5t354 105.5q141 0 266 -41v323h-139v-191l-525 -20q-11 64 -11 110q0 62 21.5 112t56 83t86.5 57t102 37.5t115 21 t114 9.5t109 2q58 0 103 -1t101 -5.5t99 -12.5t90.5 -22t82 -33t67 -47.5t53 -64.5t33 -84t12.5 -105v-695z" />
<glyph unicode="b" horiz-adv-x="1484" d="M672 199h167v906h-167v-906zM993 -30q-109 0 -199.5 38.5t-135.5 105.5l-37 -114h-520v1710h571v-495q97 112 324 112q414 0 414 -387v-563q0 -407 -417 -407z" />
<glyph unicode="c" horiz-adv-x="1448" d="M1384 539l1 -187q0 -59 -13 -108.5t-34 -86t-55.5 -65.5t-70 -48.5t-85 -33.5t-92.5 -21.5t-100.5 -12t-101 -5.5t-102.5 -1q-76 0 -134.5 2.5t-130 11.5t-124.5 25t-106 45t-86.5 69t-54.5 99t-21 133v600q0 58 13.5 106.5t35.5 84t58 63.5t72 47t86.5 32.5t94 21 t101.5 11.5t101 5t101 1q75 0 118 -1t120.5 -7.5t125 -19t107.5 -38t94 -62t58 -93t24 -128.5v-191h-571v318h-167v-906h167v340h571z" />
<glyph unicode="d" horiz-adv-x="1471" d="M811 1105h-167v-906h167v906zM489 1327q226 0 323 -112v495h571v-1710h-520l-37 114q-47 -66 -136.5 -105t-198.5 -39q-417 0 -417 407v563q0 387 415 387z" />
<glyph unicode="e" d="M646 777h168v328h-168v-328zM1384 483q8 -61 8 -103q0 -224 -159.5 -317t-501.5 -93q-59 0 -103 1t-102 5.5t-101 12t-92.5 21.5t-85 33.5t-70 48.5t-56 65.5t-34.5 86.5t-13 109v600q0 73 22 131.5t56.5 97t90 66.5t108 43t124.5 23.5t126.5 10.5t127.5 2q57 0 100 -1 t100.5 -5t100 -11.5t92.5 -21t86 -32.5t71 -47.5t56.5 -64t35 -84t13.5 -106.5v-350h-738v-405h167v284h571z" />
<glyph unicode="f" horiz-adv-x="1118" d="M225 1300q0 120 33 204t99.5 133.5t158.5 71.5t219 22q209 0 366 -48v-206h-305v-177h314v-202h-314v-1098h-571v1098h-207v202h207z" />
<glyph unicode="g" horiz-adv-x="1463" d="M812 1104h-167v-788h167v788zM497 1327q236 -2 339 -140l36 112h511v-1063q0 -314 -174.5 -461t-544.5 -147q-256 0 -477 61l57 291q141 -39 346 -39q173 0 235 37v227q-45 -57 -133 -85.5t-198 -28.5q-420 0 -420 391v445q0 400 423 400z" />
<glyph unicode="h" horiz-adv-x="1494" d="M993 1327q417 0 417 -382v-945h-571v1105h-167v-1105h-571v1710h571v-500q41 56 129 86.5t192 30.5z" />
<glyph unicode="i" horiz-adv-x="751" d="M661 1709v-284h-571v284h571zM661 0h-571v1300h571v-1300z" />
<glyph unicode="j" horiz-adv-x="827" d="M737 1709v-284h-572v284h572zM737 94q0 -216 -117 -318t-344 -102q-164 0 -270 21l-30 239h189v1366h572v-1206z" />
<glyph unicode="k" horiz-adv-x="1520" d="M101 0v1710h571v-912l269 502h586l-331 -610l338 -690h-580l-239 575l-43 -97v-478h-571z" />
<glyph unicode="l" horiz-adv-x="760" d="M676 0h-571v1710h571v-1710z" />
<glyph unicode="m" horiz-adv-x="2196" d="M1689 1327q204 0 313.5 -96t109.5 -287v-944h-563v1105h-173q7 -38 7 -104v-1001h-557v1105h-167v-1105h-563v1300h512l37 -112q48 65 146 102t212 37q228 0 339 -136q46 67 136.5 101.5t210.5 34.5z" />
<glyph unicode="n" horiz-adv-x="1489" d="M984 1327q205 -1 313 -98t108 -285v-944h-571v1105h-167v-1105h-571v1300h510l37 -112q45 63 137 101t204 38z" />
<glyph unicode="o" horiz-adv-x="1457" d="M732 -30q-62 0 -107 1t-104 5t-101.5 11.5t-92 21.5t-84 33t-69 48t-55 65t-33 85t-12.5 108v605q0 63 15.5 115.5t46 89.5t68 65.5t89.5 46.5t100.5 30t112 17.5t113.5 7.5t114 2q78 0 137.5 -2.5t130.5 -11.5t122.5 -25t103 -44t84 -67t52.5 -96t20 -129v-605 q0 -77 -21.5 -137t-53 -99.5t-87 -67t-103.5 -41.5t-125 -21.5t-127.5 -9t-133.5 -1.5zM645 228h166v877h-166v-877z" />
<glyph unicode="p" horiz-adv-x="1480" d="M667 199h167v906h-167v-906zM986 -30q-107 0 -190.5 29.5t-128.5 87.5v-497h-571v1710h490l37 -112q49 66 146.5 102.5t213.5 36.5q423 0 423 -401v-561q0 -395 -420 -395z" />
<glyph unicode="q" horiz-adv-x="1459" d="M817 1105h-165v-906h165v906zM502 1327q104 0 194.5 -38.5t134.5 -100.5l38 112h512v-1710h-549v497q-102 -117 -331 -117q-415 0 -415 395v561h-1q0 401 417 401z" />
<glyph unicode="r" horiz-adv-x="981" d="M100 0l1 1300h486l41 -147q33 79 122 125t207 49v-378l-286 -56v-893h-571z" />
<glyph unicode="s" horiz-adv-x="1414" d="M792 446h1q-8 9 -44 14q-19 3 -66.5 9t-74 9.5t-66 10t-72.5 13.5t-63 15q-74 20 -134.5 52t-111 78t-78.5 110.5t-28 142.5q0 77 18 139t49 106t79.5 76.5t102.5 52.5t125 32t140 16.5t155 4.5q70 0 120.5 -2t118.5 -10t116 -22.5t99 -42.5t82 -66t51.5 -96.5 t20.5 -131.5q0 -69 -1 -84l-539 30v161h-167v-202q9 -9 45 -15q27 -4 106 -15.5t134 -21.5t102 -23q72 -20 131.5 -49.5t110.5 -73t80 -106t29 -137.5q0 -76 -14.5 -138t-43 -107t-64 -79t-86.5 -56t-100 -36.5t-114 -21.5t-120 -9.5t-126 -2.5q-84 0 -145 3t-129 13.5 t-114.5 29t-91.5 50.5t-71.5 76.5t-42.5 108.5t-16 146q0 23 1 35l539 -32v-167h167v213z" />
<glyph unicode="t" horiz-adv-x="944" d="M906 -7l-6 -1t-17 -2.5t-25.5 -3.5t-33.5 -4t-39 -3.5t-43.5 -2.5t-46.5 -1q-108 0 -184.5 6t-143 22t-108.5 43t-72 70t-43 102.5t-13 140.5v741h-137v200h137v295h571v-295h159v-200h-159v-772q0 -31 16 -52.5t46 -32.5t63.5 -15.5t78.5 -4.5v-230z" />
<glyph unicode="u" horiz-adv-x="1490" d="M508 -30q-205 0 -314.5 97.5t-109.5 292.5v940h572v-1067h166v1067h572v-1300h-517l-37 112q-40 -65 -133 -103.5t-199 -38.5z" />
<glyph unicode="v" horiz-adv-x="1335" d="M676 356h13l104 944h551l-279 -1300h-794l-280 1300h551z" />
<glyph unicode="w" horiz-adv-x="2025" d="M923 0h-690l-198 1300h500l95 -915h14l102 915h545l97 -915h14l93 915h495l-194 -1300h-694l-86 801h-10z" />
<glyph unicode="x" horiz-adv-x="1362" d="M23 0l373 652l-373 648h572l86 -251l87 251h571l-373 -648l373 -652h-567l-91 258l-91 -258h-567z" />
<glyph unicode="y" horiz-adv-x="1337" d="M488 -411q80 0 146 11.5t129 40t112 74t88.5 117t64.5 165.5l310 1303h-534l-104 -924h-8l-170 924h-527l371 -1259q9 -30 9 -51q0 -67 -88 -67q-67 0 -222 44l-43 -311q94 -27 235 -47t231 -20z" />
<glyph unicode="z" horiz-adv-x="1080" d="M77 1300h938l23 -221l-356 -833h371l-15 -246h-957l-24 233l365 818h-334z" />
<glyph unicode="{" horiz-adv-x="1132" d="M1100 1925v-279q-91 0 -156 -22t-101.5 -61t-58 -90t-29.5 -111.5t-11 -123.5t-8 -127.5t-16 -121.5t-39 -108.5t-72 -84.5q44 -29 72 -77.5t39 -104t16 -120t8.5 -128t11 -125t29.5 -114t58.5 -92.5t101.5 -63t156 -23v-279q-209 0 -353 34t-248.5 114.5t-158.5 214.5 t-68 333q-2 18 -5 49t-5 51.5t-7 48t-12 46t-20.5 38.5t-31.5 32t-45 19.5t-62 7.5v279q34 0 61 7.5t45 18.5t31.5 30.5t20.5 37t12.5 45.5t7.5 48t5.5 52.5t5.5 51.5q35 265 127.5 415.5t258 216t440.5 65.5z" />
<glyph unicode="|" horiz-adv-x="831" d="M700 1795v-1895h-571v1895h571z" />
<glyph unicode="}" horiz-adv-x="1131" d="M59 1646v279q275 0 440.5 -65.5t258 -216t127.5 -415.5q2 -19 5.5 -51.5t5.5 -52.5t7.5 -48t12.5 -45.5t20.5 -37t31.5 -30.5t45 -18.5t61 -7.5v-279q-35 0 -62 -7.5t-45 -19.5t-31.5 -32t-20.5 -38.5t-12 -46t-7 -48t-5 -51.5t-5 -49q-14 -199 -68 -333t-158.5 -214.5 t-248.5 -114.5t-353 -34v279q91 0 156 23t101.5 63t58.5 92.5t29.5 114t11 125t8.5 128t16 120t39 104t72 77.5q-44 33 -72 84.5t-39 108.5t-16 121.5t-8 127.5t-11 123.5t-29.5 111.5t-58 90t-101.5 61t-156 22z" />
<glyph unicode="~" horiz-adv-x="1424" d="M1057 642q0 71 -26 117.5t-81 46.5q-45 0 -89 -19.5t-82 -47.5t-79 -56t-98 -47.5t-122 -19.5q-84 0 -149.5 20.5t-109.5 60.5t-74 89.5t-45.5 115.5t-22 130.5t-6.5 143.5h296q0 -168 112 -168q52 0 102 20t93.5 48t89.5 56.5t109 48.5t133 20q75 0 131 -16.5t94 -51.5 t62 -79.5t37 -112t17.5 -136t4.5 -163.5h-297z" />
<glyph unicode="&#xa1;" horiz-adv-x="719" d="M151 1392l1 -1q0 113 59.5 174.5t141.5 61.5q83 0 145.5 -61.5t62.5 -167.5q0 -100 -61 -155.5t-145 -55.5q-83 0 -143.5 54.5t-60.5 150.5zM311 989h-1q8 33 24.5 50.5t36.5 17.5t36.5 -17.5t23.5 -50.5q22 -93 76.5 -278t88 -320.5t33.5 -205.5q0 -103 -77.5 -161.5 t-182.5 -58.5q-103 0 -177 57t-74 161q0 68 33 203t85.5 320.5t74.5 282.5z" />
<glyph unicode="&#xa2;" horiz-adv-x="1462" d="M598 1119v-746h108v746h-108zM1396 633v-110q0 -56 -11.5 -103t-31.5 -82.5t-51 -64t-64.5 -48t-78 -34t-86 -22.5t-94 -13t-96 -7t-98.5 -2v-221h-79v221q-72 0 -129 3.5t-124 13.5t-117 26.5t-99.5 45.5t-80.5 68t-50.5 96.5t-19.5 128.5v440q0 71 20.5 128t52.5 95 t83 66.5t101.5 44t117.5 25t121.5 12.5t123.5 3v235h79v-235q60 -1 110 -3.5t115.5 -12t116.5 -24t103.5 -41.5t87 -62.5t56.5 -88.5t22 -119v-111h-511v238h-100v-746h100v260h511z" />
<glyph unicode="&#xa3;" horiz-adv-x="1598" d="M74 265l2 1q158 20 158 110v343h-158v222h158v124q0 169 22 275t90 171q77 73 210 97t337 24q69 0 126.5 -3t120 -11t112 -22t96 -37t78.5 -54t53 -75t25 -99q3 -43 3 -84v-177h-581v294h-107v-424h427v-222h-427v-450h128v294h581v-177q0 -123 -28.5 -199.5 t-100.5 -120.5q-105 -65 -302 -65q-193 0 -278 91q-14 15 -38 39q-47 -49 -90.5 -75.5t-111.5 -38.5q-83 -14 -278 -16h-227v265z" />
<glyph unicode="&#xa4;" horiz-adv-x="1390" d="M637 570h112v500h-112v-500zM698 299q-209 2 -344 50l-148 -160l-80 84l118 128q-94 61 -135 155.5t-41 247.5q0 159 33 261t118 164l-92 101l80 84l118 -128q145 57 372 57q222 0 368 -56l116 127l81 -84l-91 -99q88 -63 121 -161.5t33 -265.5q0 -150 -43 -248 t-137 -158l118 -126l-81 -84l-146 158q-142 -47 -338 -47z" />
<glyph unicode="&#xa5;" horiz-adv-x="1571" d="M746 1021l17 -206h29l17 206l159 574h556l-334 -867h235v-143h-291l-52 -136v-7h343v-143h-343v-299h-605v299h-350v143h350v17l-49 126h-301v143h245l-340 867h560z" />
<glyph unicode="&#xa6;" horiz-adv-x="831" d="M702 1708v-911h-571v911h571zM702 656v-911h-571v911h571z" />
<glyph unicode="&#xa7;" horiz-adv-x="1362" d="M717 748v223h-69v-223h69zM265 1046q-177 83 -177 283q0 84 17 150t45 111.5t74 79t94 52.5t115 30t128 14.5t141 3.5q66 0 115.5 -2t113.5 -10t110.5 -22.5t94.5 -41.5t78.5 -64t49.5 -93t19 -126q0 -17 -0.5 -52t-0.5 -53h-552v191h-73v-249q5 -5 15 -8.5t24 -5 t25.5 -2t29 -1t25.5 -0.5q200 -8 296 -35q222 -61 222 -247q0 -173 -152 -244q-42 -20 -59 -20q4 -2 23.5 -10t30.5 -15q141 -85 141 -259q0 -84 -17 -150t-45 -111.5t-74 -79t-94 -52.5t-115 -30t-128 -14.5t-141 -3.5q-66 0 -115.5 2t-113.5 10.5t-110 23t-94 41.5t-78 64 t-49 93t-19 127q0 17 0.5 52t0.5 53h551v-191h73v252h-255q-182 0 -282 67.5t-100 228.5q0 97 48 162t127 94z" />
<glyph unicode="&#xa8;" horiz-adv-x="1296" d="M1217 418v-336h-451v336h451zM533 418v-336h-450v336h450z" />
<glyph unicode="&#xa9;" horiz-adv-x="1861" d="M835 432h199v317h277v-207q0 -68 -18.5 -116.5t-49.5 -78t-83 -46.5t-108.5 -23t-135.5 -6q-88 0 -148.5 10.5t-111.5 39.5t-76 84.5t-25 140.5v560q0 83 23 138t72.5 84.5t111.5 40.5t154 11q50 0 84.5 -1.5t79 -7.5t75 -17t62.5 -31t51 -48t31 -70t12 -95v-198h-277 v309h-199v-790zM323 1114v-579q0 -136 36.5 -227t115.5 -144t188 -74.5t269 -21.5q115 0 205 11.5t168 40.5t128.5 75.5t79 118.5t28.5 168v683q0 98 -31 171t-83.5 117.5t-132.5 72t-166 37.5t-196 10q-160 0 -270 -21.5t-188.5 -74t-114.5 -141.5t-36 -222zM932 -101 q-160 0 -285.5 18.5t-233 64t-178.5 117.5t-111 183t-40 257v577q0 109 24 199t66 155t105 114t133.5 80t158.5 50.5t174.5 27t186.5 7.5q159 0 284.5 -18t233.5 -62.5t179 -116t111 -181.5t40 -255v-577q0 -153 -46.5 -268t-123 -184.5t-189 -113t-229.5 -59t-260 -15.5z " />
<glyph unicode="&#xaa;" horiz-adv-x="1471" d="M644 942v-453h166v453h-166zM135 1294q0 60 18.5 108t49.5 81t78 57.5t96.5 39t114 23t121.5 11t126 2.5q292 0 447 -63q103 -42 148.5 -111.5t45.5 -200.5v-695l1 1q0 -127 28 -257h-520l-56 138q-47 -78 -133.5 -121.5t-206.5 -43.5q-214 0 -317.5 101.5t-103.5 312.5 q0 225 118 330.5t354 105.5q141 0 266 -41v323h-139v-191l-525 -20q-11 64 -11 110z" />
<glyph unicode="&#xab;" horiz-adv-x="1806" d="M1446 213l-526 380q-44 31 -67 80t-23 102q1 55 24.5 105t65.5 81l526 380q32 23 66 23t57 -25t23 -61q0 -37 -24 -69l-334 -432l334 -432q22 -28 22 -68q0 -36 -23 -61.5t-57 -25.5q-33 0 -64 23zM711 213l-527 380q-44 31 -67 80t-23 102q1 55 24.5 105t65.5 81 l527 380q32 23 65 23q34 0 57.5 -25t23.5 -61t-25 -69l-334 -432l334 -432q23 -30 23 -68q0 -36 -23.5 -61.5t-57.5 -25.5q-33 0 -63 23z" />
<glyph unicode="&#xac;" horiz-adv-x="1269" d="M1179 300h-229v491h-867v314h1096v-805z" />
<glyph unicode="&#xad;" horiz-adv-x="1005" d="M920 897v-336h-833v336h833z" />
<glyph unicode="&#xae;" horiz-adv-x="1861" d="M895 915h83v359h-83v-359zM1116 835l111 -7q62 -4 96 -53.5t34 -131.5v-364h-379v477h-83v-477h-389v1155h510q40 0 68.5 -1.5t67.5 -7t65.5 -16t56 -30.5t47 -48t29 -70.5t11.5 -96.5v-93q0 -93 -36.5 -147.5t-98.5 -59.5l-110 -10v-19zM323 1114v-579q0 -136 36.5 -227 t115.5 -144t188 -74.5t269 -21.5q115 0 205 11.5t168 40.5t128.5 75.5t79 118.5t28.5 168v683q0 98 -31 171t-83.5 117.5t-132.5 72t-166 37.5t-196 10q-160 0 -270 -21.5t-188.5 -74t-114.5 -141.5t-36 -222zM932 -101q-160 0 -285.5 18.5t-233 64t-178.5 117.5t-111 183 t-40 257v577q0 109 24 199t66 155t105 114t133.5 80t158.5 50.5t174.5 27t186.5 7.5q159 0 284.5 -18t233.5 -62.5t179 -116t111 -181.5t40 -255v-577q0 -153 -46.5 -268t-123 -184.5t-189 -113t-229.5 -59t-260 -15.5z" />
<glyph unicode="&#xaf;" horiz-adv-x="999" d="M920 897v-231h-833v231h833z" />
<glyph unicode="&#xb0;" horiz-adv-x="812" d="M545 1371q0 66 -39.5 107.5t-101.5 41.5t-101.5 -41.5t-39.5 -107.5t39.5 -107.5t101.5 -41.5t101.5 41.5t39.5 107.5zM73 1371q0 121 91 211t240 90t240 -90t91 -211t-91 -211t-240 -90t-240 90t-91 211z" />
<glyph unicode="&#xb1;" horiz-adv-x="1304" d="M1064 300v-301h-834v301h834zM457 1214v381h392v-381h364v-333h-364v-378h-392v378h-365v333h365z" />
<glyph unicode="&#xb2;" horiz-adv-x="1090" d="M189 836q0 7 -0.5 21t-0.5 21q0 79 21 138t57 95.5t91 58.5t115 30.5t138 8.5q104 0 176.5 -15t128.5 -51.5t83.5 -102.5t27.5 -164q0 -70 -19 -128t-46 -96.5t-74 -74t-86 -56t-98 -47.5q-33 -15 -54 -26t-46 -29t-37.5 -39.5t-12.5 -47.5h433v-198h-797v179 q0 96 23 170t69 127t102 90t134 68q32 13 49 21t41 22t35 30.5t11 35.5v153h-100v-194h-364z" />
<glyph unicode="&#xb3;" horiz-adv-x="1101" d="M1036 881q0 -152 -138 -212q69 -26 104.5 -86.5t35.5 -143.5q0 -182 -103 -260.5t-328 -78.5q-220 0 -323.5 91t-103.5 280q0 29 3 61h366v-250h113v313h-171v148h171v284h-113v-223h-366q-3 29 -3 55q0 191 103.5 268.5t322.5 77.5q214 0 322 -73.5t108 -250.5z" />
<glyph unicode="&#xb4;" horiz-adv-x="873" d="M59 1480q35 32 125 115.5t139.5 129t112 97t97.5 71.5q64 37 125 37q75 0 124.5 -52.5t49.5 -125.5q0 -52 -29 -100t-87 -82q-36 -21 -112 -48t-144.5 -47.5t-178.5 -51.5t-161 -47q-14 -5 -32 -5q-27 0 -45 14t-18 35q0 30 34 60z" />
<glyph unicode="&#xb5;" horiz-adv-x="1707" />
<glyph unicode="&#xb6;" horiz-adv-x="1318" d="M591 659q-261 0 -398 106.5t-137 341.5q0 119 33.5 207.5t88.5 141.5t139.5 85t171.5 43t200 11h534v-1595h-261v658h-109v-658h-262v659z" />
<glyph unicode="&#xb7;" horiz-adv-x="670" d="M136 1116q0 99 60.5 154.5t143.5 55.5t143.5 -55.5t60.5 -154.5t-60.5 -154.5t-143.5 -55.5t-143.5 55.5t-60.5 154.5z" />
<glyph unicode="&#xb8;" horiz-adv-x="948" d="M384 0h177v-70q114 0 172 -34t58 -124v-95q0 -50 -19 -82.5t-56 -48.5t-78 -21.5t-100 -5.5q-126 0 -190 32.5t-64 125.5v56l227 28v-132h63v191h-190v180z" />
<glyph unicode="&#xb9;" horiz-adv-x="731" d="M115 1115q137 0 227 55h312v-1040h-395v841h-144v144z" />
<glyph unicode="&#xba;" horiz-adv-x="1334" d="M675 317h133v697h-133v-697zM744 99q-65 0 -110 1.5t-104.5 8.5t-100 19.5t-83.5 36t-69 56t-42.5 81.5t-16.5 111v480q0 61 17.5 109t44.5 80.5t71 55.5t86 35.5t100 19.5t103 9t105 2q62 0 108.5 -2t103.5 -9.5t98.5 -20.5t83 -36.5t67.5 -55.5t42.5 -80t16.5 -108 v-480q0 -73 -19.5 -127.5t-62.5 -87.5t-84.5 -53.5t-112 -29.5t-116.5 -11.5t-126 -3.5z" />
<glyph unicode="&#xbb;" horiz-adv-x="1770" d="M816 593l-526 -380q-31 -23 -64 -23q-34 0 -57 25.5t-23 61.5q0 40 22 68l334 432l-334 432q-24 32 -24 69q0 36 23 61t57 25t66 -23l526 -380q42 -31 65.5 -81t24.5 -105q0 -53 -23 -102t-67 -80zM1552 593l-527 -380q-30 -23 -63 -23q-34 0 -57.5 25.5t-23.5 61.5 q0 38 23 68l334 432l-334 432q-25 33 -25 69t23.5 61t57.5 25q33 0 65 -23l527 -380q42 -31 65.5 -81t24.5 -105q0 -53 -23 -102t-67 -80z" />
<glyph unicode="&#xbc;" horiz-adv-x="2565" d="M751 0l352 1595h434l-351 -1595h-435zM31 1415q137 0 227 55h312v-1040h-395v841h-144v144zM2499 130h-359v161h-516v280l170 601h385l-169 -601v-36h130v225h359v-630z" />
<glyph unicode="&#xbd;" horiz-adv-x="2580" d="M766 0l352 1595h434l-351 -1595h-435zM31 1415q137 0 227 55h312v-1040h-395v841h-144v144zM1685 836q0 7 -0.5 21t-0.5 21q0 79 21 138t57 95.5t91 58.5t115 30.5t138 8.5q104 0 176.5 -15t128.5 -51.5t83.5 -102.5t27.5 -164q0 -70 -19 -128t-46 -96.5t-74 -74t-86 -56 t-98 -47.5q-33 -15 -54 -26t-46 -29t-37.5 -39.5t-12.5 -47.5h433v-198h-797v179q0 96 23 170t69 127t102 90t134 68q32 13 49 21t41 22t35 30.5t11 35.5v153h-100v-194h-364z" />
<glyph unicode="&#xbe;" horiz-adv-x="2894" d="M1120 0l352 1595h434l-351 -1595h-435zM995 1175q0 -152 -138 -212q69 -26 104.5 -86.5t35.5 -143.5q0 -182 -103 -260.5t-328 -78.5q-220 0 -323.5 91t-103.5 280q0 29 3 61h366v-250h113v313h-171v148h171v284h-113v-223h-366q-3 28 -3 55q0 191 103.5 268.5 t322.5 77.5q214 0 322 -73.5t108 -250.5zM2828 130h-359v161h-516v280l170 601h385l-169 -601v-36h130v225h359v-630z" />
<glyph unicode="&#xbf;" horiz-adv-x="906" d="M757 1427q0 -99 -60.5 -154.5t-143.5 -55.5t-143.5 55.5t-60.5 154.5t60.5 154.5t143.5 55.5t143.5 -55.5t60.5 -154.5zM493 1031q7 57 62 57q61 0 61 -72q0 -79 -19 -162t-43 -141t-49.5 -125.5t-33.5 -112.5q-2 -18 -2 -27q0 -51 34.5 -82.5t107.5 -31.5q78 0 194 49 l36 -347q-219 -70 -371 -70q-97 0 -173 18t-124.5 48t-79.5 72t-43.5 86t-12.5 95q0 62 23 118.5t60.5 102.5t83 91t93 92t88.5 96t70.5 112.5t37.5 133.5z" />
<glyph unicode="&#xc0;" horiz-adv-x="1550" d="M27 0zM820 1846q34 -30 34 -60q0 -21 -18 -35t-45 -14q-18 0 -32 5q-51 16 -161 47t-178.5 51.5t-144.5 47.5t-112 48q-58 34 -87 82t-29 100q0 73 49.5 125.5t124.5 52.5q61 0 125 -37q35 -20 97.5 -71.5t112 -97t139.5 -129t125 -115.5zM782 1283h-19l-77 -707h178z M668 366l-55 -366h-586l292 1595h907l297 -1595h-587l-54 366h-214z" />
<glyph unicode="&#xc1;" horiz-adv-x="1550" d="M27 0zM730 1846q35 32 125 115.5t139.5 129t112 97t97.5 71.5q64 37 125 37q75 0 124.5 -52.5t49.5 -125.5q0 -52 -29 -100t-87 -82q-36 -21 -112 -48t-144.5 -47.5t-178.5 -51.5t-161 -47q-14 -5 -32 -5q-27 0 -45 14t-18 35q0 30 34 60zM782 1283h-19l-77 -707h178z M668 366l-55 -366h-586l292 1595h907l297 -1595h-587l-54 366h-214z" />
<glyph unicode="&#xc2;" horiz-adv-x="1550" d="M27 0zM370 1853l263 409q22 35 61 53.5t82 18.5q94 0 141 -72l263 -409q18 -29 18 -53q0 -27 -18 -45t-45 -18q-29 0 -57 22l-303 235l-303 -235q-26 -20 -54 -20t-47 17.5t-19 44.5q0 23 18 52zM782 1283h-19l-77 -707h178zM668 366l-55 -366h-586l292 1595h907 l297 -1595h-587l-54 366h-214z" />
<glyph unicode="&#xc3;" horiz-adv-x="1550" d="M27 0zM1415 1763h-293q0 70 -26.5 117t-83.5 47q-20 0 -41.5 -9.5t-30.5 -15.5t-31 -24q-86 -69 -167 -105t-200 -36q-171 0 -258 75t-122 231q-27 94 -27 245h296q0 -73 26 -120.5t86 -47.5q7 0 14 1t14 3t12.5 3.5t13 6t11 6.5t12 7.5t10.5 7t11 8t10 7.5q53 39 76 54 t72.5 41.5t99.5 37t110 10.5q76 0 135.5 -12.5t102.5 -35t73 -60t48.5 -79.5t29 -102.5t14 -120t3.5 -140.5zM782 1283h-19l-77 -707h178zM668 366l-55 -366h-586l292 1595h907l297 -1595h-587l-54 366h-214z" />
<glyph unicode="&#xc4;" horiz-adv-x="1550" d="M27 0zM1342 2073v-336h-451v336h451zM658 2073v-336h-450v336h450zM782 1283h-19l-77 -707h178zM668 366l-55 -366h-586l292 1595h907l297 -1595h-587l-54 366h-214z" />
<glyph unicode="&#xc5;" horiz-adv-x="1550" d="M27 0zM773 2056q-52 0 -86.5 -34.5t-34.5 -87.5q0 -51 35 -86t86 -35q50 0 85.5 35.5t35.5 85.5q0 52 -35 87t-86 35zM1108 1934q0 -139 -95.5 -229.5t-237.5 -90.5q-109 0 -189 54.5t-118 140.5q-26 60 -26 125q0 141 95 231.5t238 90.5q109 0 189 -55t118 -141 q26 -60 26 -126zM782 1283h-19l-77 -707h178zM668 366l-55 -366h-586l292 1595h907l297 -1595h-587l-54 366h-214z" />
<glyph unicode="&#xc6;" horiz-adv-x="2011" d="M847 578h140v423zM1946 1595v-241h-341v-393h318v-250h-318v-467h341v-244h-959v348h-213l-111 -348h-625l635 1595h1273z" />
<glyph unicode="&#xc7;" horiz-adv-x="1519" d="M80 0zM682 -24h177v-70q114 0 172 -34t58 -124v-95q0 -50 -19 -82.5t-56 -48.5t-78 -21.5t-100 -5.5q-126 0 -190 32.5t-64 125.5v56l227 28v-132h63v191h-190v180zM858 1356h-173v-1123h173v381h604v-245q0 -78 -23 -140.5t-59.5 -104.5t-92.5 -73t-112.5 -48 t-130.5 -27t-133.5 -13t-134.5 -3q-69 0 -126 2.5t-131.5 12.5t-132.5 27t-118 48t-99 73t-64 105t-25 142v856q0 77 23.5 139.5t61 104.5t94.5 73.5t114.5 48.5t131.5 27.5t134.5 13.5t133.5 3q78 0 138 -2.5t135.5 -12.5t131 -26.5t112 -47.5t92 -73t58 -105t22.5 -142 v-248h-604v377z" />
<glyph unicode="&#xc8;" horiz-adv-x="1096" d="M0 0zM610 1846q34 -30 34 -60q0 -21 -18 -35t-45 -14q-18 0 -32 5q-51 16 -161 47t-178.5 51.5t-144.5 47.5t-112 48q-58 34 -87 82t-29 100q0 73 49.5 125.5t124.5 52.5q61 0 125 -37q35 -20 97.5 -71.5t112 -97t139.5 -129t125 -115.5zM1037 1595v-249h-341v-385h318 v-250h-318v-460h341v-251h-945v1595h945z" />
<glyph unicode="&#xc9;" horiz-adv-x="1096" d="M92 0zM519 1846q35 32 125 115.5t139.5 129t112 97t97.5 71.5q64 37 125 37q75 0 124.5 -52.5t49.5 -125.5q0 -52 -29 -100t-87 -82q-36 -21 -112 -48t-144.5 -47.5t-178.5 -51.5t-161 -47q-14 -5 -32 -5q-27 0 -45 14t-18 35q0 30 34 60zM1037 1595v-249h-341v-385h318 v-250h-318v-460h341v-251h-945v1595h945z" />
<glyph unicode="&#xca;" horiz-adv-x="1096" d="M92 0zM160 1853l263 409q22 35 61 53.5t82 18.5q94 0 141 -72l263 -409q18 -29 18 -53q0 -27 -18 -45t-45 -18q-29 0 -57 22l-303 235l-303 -235q-26 -20 -54 -20t-47 17.5t-19 44.5q0 23 18 52zM1037 1595v-249h-341v-385h318v-250h-318v-460h341v-251h-945v1595h945z " />
<glyph unicode="&#xcb;" horiz-adv-x="1096" d="M0 0zM1131 2073v-336h-451v336h451zM447 2073v-336h-450v336h450zM1037 1595v-249h-341v-385h318v-250h-318v-460h341v-251h-945v1595h945z" />
<glyph unicode="&#xcc;" horiz-adv-x="788" d="M0 0zM439 1846q34 -30 34 -60q0 -21 -18 -35t-45 -14q-18 0 -32 5q-51 16 -161 47t-178.5 51.5t-144.5 47.5t-112 48q-58 34 -87 82t-29 100q0 73 49.5 125.5t124.5 52.5q61 0 125 -37q35 -20 97.5 -71.5t112 -97t139.5 -129t125 -115.5zM696 1595v-1595h-604v1595h604z " />
<glyph unicode="&#xcd;" horiz-adv-x="788" d="M92 0zM349 1846q35 32 125 115.5t139.5 129t112 97t97.5 71.5q64 37 125 37q75 0 124.5 -52.5t49.5 -125.5q0 -52 -29 -100t-87 -82q-36 -21 -112 -48t-144.5 -47.5t-178.5 -51.5t-161 -47q-14 -5 -32 -5q-27 0 -45 14t-18 35q0 30 34 60zM696 1595v-1595h-604v1595h604z " />
<glyph unicode="&#xce;" horiz-adv-x="788" d="M0 0zM-11 1853l263 409q22 35 61 53.5t82 18.5q94 0 141 -72l263 -409q18 -29 18 -53q0 -27 -18 -45t-45 -18q-29 0 -57 22l-303 235l-303 -235q-26 -20 -54 -20t-47 17.5t-19 44.5q0 23 18 52zM696 1595v-1595h-604v1595h604z" />
<glyph unicode="&#xcf;" horiz-adv-x="788" d="M0 0zM961 2073v-336h-451v336h451zM277 2073v-336h-450v336h450zM696 1595v-1595h-604v1595h604z" />
<glyph unicode="&#xd0;" horiz-adv-x="1449" d="M645 237h236v1121h-236v-490h128v-142h-128v-489zM1378 393l-2 -1q0 -131 -38 -206.5t-128 -119.5q-135 -66 -393 -66h-671v726h-94v142h94v727h671q92 0 166 -7t147.5 -27t124 -53t83.5 -88.5t37 -130.5q3 -45 3 -85v-811z" />
<glyph unicode="&#xd1;" horiz-adv-x="1576" d="M92 0zM1428 1763h-293q0 70 -26.5 117t-83.5 47q-20 0 -41.5 -9.5t-30.5 -15.5t-31 -24q-86 -69 -167 -105t-200 -36q-171 0 -258 75t-122 231q-27 94 -27 245h296q0 -73 26 -120.5t86 -47.5q7 0 14 1t14 3t12.5 3.5t13 6t11 6.5t12 7.5t10.5 7t11 8t10 7.5q53 39 76 54 t72.5 41.5t99.5 37t110 10.5q76 0 135.5 -12.5t102.5 -35t73 -60t48.5 -79.5t29 -102.5t14 -120t3.5 -140.5zM945 0l-405 711v-711h-448v1595h517l431 -761v761h444v-1595h-539z" />
<glyph unicode="&#xd2;" horiz-adv-x="1542" d="M43 0zM816 1846q34 -30 34 -60q0 -21 -18 -35t-45 -14q-18 0 -32 5q-51 16 -161 47t-178.5 51.5t-144.5 47.5t-112 48q-58 34 -87 82t-29 100q0 73 49.5 125.5t124.5 52.5q61 0 125 -37q35 -20 97.5 -71.5t112 -97t139.5 -129t125 -115.5zM768 -39q-80 0 -140 2.5 t-135.5 12t-130.5 26.5t-111 47.5t-91.5 72.5t-57.5 105.5t-22 142.5v856q0 77 23 139.5t60 104.5t93.5 73t113.5 48.5t130.5 27.5t134 13t133.5 3q68 0 125 -2.5t131 -12.5t132 -27t117.5 -48t99 -73t64.5 -105t25 -141v-856q0 -79 -23.5 -142t-60.5 -105t-95 -72.5 t-114 -47.5t-132 -26.5t-134.5 -12.5t-134.5 -3zM685 235h173v1127h-173v-1127z" />
<glyph unicode="&#xd3;" horiz-adv-x="1542" d="M80 0zM726 1846q35 32 125 115.5t139.5 129t112 97t97.5 71.5q64 37 125 37q75 0 124.5 -52.5t49.5 -125.5q0 -52 -29 -100t-87 -82q-36 -21 -112 -48t-144.5 -47.5t-178.5 -51.5t-161 -47q-14 -5 -32 -5q-27 0 -45 14t-18 35q0 30 34 60zM768 -39q-80 0 -140 2.5 t-135.5 12t-130.5 26.5t-111 47.5t-91.5 72.5t-57.5 105.5t-22 142.5v856q0 77 23 139.5t60 104.5t93.5 73t113.5 48.5t130.5 27.5t134 13t133.5 3q68 0 125 -2.5t131 -12.5t132 -27t117.5 -48t99 -73t64.5 -105t25 -141v-856q0 -79 -23.5 -142t-60.5 -105t-95 -72.5 t-114 -47.5t-132 -26.5t-134.5 -12.5t-134.5 -3zM685 235h173v1127h-173v-1127z" />
<glyph unicode="&#xd4;" horiz-adv-x="1542" d="M80 0zM366 1853l263 409q22 35 61 53.5t82 18.5q94 0 141 -72l263 -409q18 -29 18 -53q0 -27 -18 -45t-45 -18q-29 0 -57 22l-303 235l-303 -235q-26 -20 -54 -20t-47 17.5t-19 44.5q0 23 18 52zM768 -39q-80 0 -140 2.5t-135.5 12t-130.5 26.5t-111 47.5t-91.5 72.5 t-57.5 105.5t-22 142.5v856q0 77 23 139.5t60 104.5t93.5 73t113.5 48.5t130.5 27.5t134 13t133.5 3q68 0 125 -2.5t131 -12.5t132 -27t117.5 -48t99 -73t64.5 -105t25 -141v-856q0 -79 -23.5 -142t-60.5 -105t-95 -72.5t-114 -47.5t-132 -26.5t-134.5 -12.5t-134.5 -3z M685 235h173v1127h-173v-1127z" />
<glyph unicode="&#xd5;" horiz-adv-x="1542" d="M80 0zM1411 1763h-293q0 70 -26.5 117t-83.5 47q-20 0 -41.5 -9.5t-30.5 -15.5t-31 -24q-86 -69 -167 -105t-200 -36q-171 0 -258 75t-122 231q-27 94 -27 245h296q0 -73 26 -120.5t86 -47.5q7 0 14 1t14 3t12.5 3.5t13 6t11 6.5t12 7.5t10.5 7t11 8t10 7.5q53 39 76 54 t72.5 41.5t99.5 37t110 10.5q76 0 135.5 -12.5t102.5 -35t73 -60t48.5 -79.5t29 -102.5t14 -120t3.5 -140.5zM768 -39q-80 0 -140 2.5t-135.5 12t-130.5 26.5t-111 47.5t-91.5 72.5t-57.5 105.5t-22 142.5v856q0 77 23 139.5t60 104.5t93.5 73t113.5 48.5t130.5 27.5t134 13 t133.5 3q68 0 125 -2.5t131 -12.5t132 -27t117.5 -48t99 -73t64.5 -105t25 -141v-856q0 -79 -23.5 -142t-60.5 -105t-95 -72.5t-114 -47.5t-132 -26.5t-134.5 -12.5t-134.5 -3zM685 235h173v1127h-173v-1127z" />
<glyph unicode="&#xd6;" horiz-adv-x="1542" d="M80 0zM1338 2073v-336h-451v336h451zM654 2073v-336h-450v336h450zM768 -39q-80 0 -140 2.5t-135.5 12t-130.5 26.5t-111 47.5t-91.5 72.5t-57.5 105.5t-22 142.5v856q0 77 23 139.5t60 104.5t93.5 73t113.5 48.5t130.5 27.5t134 13t133.5 3q68 0 125 -2.5t131 -12.5 t132 -27t117.5 -48t99 -73t64.5 -105t25 -141v-856q0 -79 -23.5 -142t-60.5 -105t-95 -72.5t-114 -47.5t-132 -26.5t-134.5 -12.5t-134.5 -3zM685 235h173v1127h-173v-1127z" />
<glyph unicode="&#xd7;" horiz-adv-x="1310" d="M1266 924l-258 -275l258 -274l-349 -371l-257 275l-259 -275l-348 371l258 274l-258 275l348 370l259 -274l257 274z" />
<glyph unicode="&#xd8;" horiz-adv-x="1542" d="M1292 1546q180 -96 180 -320v-856q0 -74 -20 -134t-53.5 -102t-85.5 -73.5t-109 -50t-130.5 -30t-142.5 -15.5t-153 -4l1 -2q-280 0 -429 51l-108 -176l-128 96l96 155q-120 99 -120 285v856q0 74 19.5 133t53 101t85 73t107.5 49t129 29t141.5 15t152.5 4q224 0 363 -31 l134 218l121 -101zM695 235h173v1127h-173v-1127z" />
<glyph unicode="&#xd9;" horiz-adv-x="1552" d="M48 0zM821 1846q34 -30 34 -60q0 -21 -18 -35t-45 -14q-18 0 -32 5q-51 16 -161 47t-178.5 51.5t-144.5 47.5t-112 48q-58 34 -87 82t-29 100q0 73 49.5 125.5t124.5 52.5q61 0 125 -37q35 -20 97.5 -71.5t112 -97t139.5 -129t125 -115.5zM689 234h173v1360h605v-1224 q0 -78 -23.5 -140.5t-60.5 -104.5t-94.5 -73t-114.5 -48t-131.5 -27t-134.5 -13t-134 -3q-69 0 -126 2.5t-131 12.5t-131.5 27t-116 48t-97 73t-63 105.5t-24.5 141.5v1224h604v-1361z" />
<glyph unicode="&#xda;" horiz-adv-x="1552" d="M85 0zM731 1846q35 32 125 115.5t139.5 129t112 97t97.5 71.5q64 37 125 37q75 0 124.5 -52.5t49.5 -125.5q0 -52 -29 -100t-87 -82q-36 -21 -112 -48t-144.5 -47.5t-178.5 -51.5t-161 -47q-14 -5 -32 -5q-27 0 -45 14t-18 35q0 30 34 60zM689 234h173v1360h605v-1224 q0 -78 -23.5 -140.5t-60.5 -104.5t-94.5 -73t-114.5 -48t-131.5 -27t-134.5 -13t-134 -3q-69 0 -126 2.5t-131 12.5t-131.5 27t-116 48t-97 73t-63 105.5t-24.5 141.5v1224h604v-1361z" />
<glyph unicode="&#xdb;" horiz-adv-x="1552" d="M85 0zM371 1853l263 409q22 35 61 53.5t82 18.5q94 0 141 -72l263 -409q18 -29 18 -53q0 -27 -18 -45t-45 -18q-29 0 -57 22l-303 235l-303 -235q-26 -20 -54 -20t-47 17.5t-19 44.5q0 23 18 52zM689 234h173v1360h605v-1224q0 -78 -23.5 -140.5t-60.5 -104.5t-94.5 -73 t-114.5 -48t-131.5 -27t-134.5 -13t-134 -3q-69 0 -126 2.5t-131 12.5t-131.5 27t-116 48t-97 73t-63 105.5t-24.5 141.5v1224h604v-1361z" />
<glyph unicode="&#xdc;" horiz-adv-x="1552" d="M85 0zM1343 2073v-336h-451v336h451zM659 2073v-336h-450v336h450zM689 234h173v1360h605v-1224q0 -78 -23.5 -140.5t-60.5 -104.5t-94.5 -73t-114.5 -48t-131.5 -27t-134.5 -13t-134 -3q-69 0 -126 2.5t-131 12.5t-131.5 27t-116 48t-97 73t-63 105.5t-24.5 141.5v1224 h604v-1361z" />
<glyph unicode="&#xdd;" horiz-adv-x="1486" d="M0 0zM698 1846q35 32 125 115.5t139.5 129t112 97t97.5 71.5q64 37 125 37q75 0 124.5 -52.5t49.5 -125.5q0 -52 -29 -100t-87 -82q-36 -21 -112 -48t-144.5 -47.5t-178.5 -51.5t-161 -47q-14 -5 -32 -5q-27 0 -45 14t-18 35q0 30 34 60zM738 955h9l186 640h556 l-442 -1066v-529h-605v539l-445 1056h560z" />
<glyph unicode="&#xde;" horiz-adv-x="1534" d="M706 482h163v700h-163v-700zM104 1599h602v-186h137q289 0 441 -66q101 -44 143 -116.5t42 -208.5v-381q0 -117 -22 -172q-22 -54 -66.5 -94t-99.5 -63.5t-130 -37.5t-147 -19t-161 -5h-137v-250h-602v1599z" />
<glyph unicode="&#xdf;" horiz-adv-x="1389" d="M1327 258q0 -57 -16.5 -102.5t-43 -76t-70 -52.5t-86.5 -34t-104 -19t-111.5 -9t-119.5 -2h-84v231h139v556h-112v231h112v377h-236v-1563h-496v1422q0 96 33 165.5t86 110t136.5 64t166.5 31t194 7.5q210 0 343 -56t178 -189q22 -65 22 -180q0 -136 -72 -213t-200 -87 q152 -9 246.5 -89t94.5 -228v-295z" />
<glyph unicode="&#xe0;" d="M0 0zM770 1538q34 -30 34 -60q0 -21 -18 -35t-45 -14q-18 0 -32 5q-51 16 -161 47t-178.5 51.5t-144.5 47.5t-112 48q-58 34 -87 82t-29 100q0 73 49.5 125.5t124.5 52.5q61 0 125 -37q35 -20 97.5 -71.5t112 -97t139.5 -129t125 -115.5zM629 653v-453h166v453h-166z M1365 257q1 -128 29 -256h-520l-56 138q-48 -79 -134.5 -124t-205.5 -45q-213 0 -317 103.5t-104 314.5q0 225 118 330.5t354 105.5q141 0 266 -41v323h-139v-191l-525 -20q-11 64 -11 110q0 62 21.5 112t56 83t86.5 57t102 37.5t115 21t114 9.5t109 2q58 0 103 -1t101 -5.5 t99 -12.5t90.5 -22t82 -33t67 -47.5t53 -64.5t33 -84t12.5 -105v-695z" />
<glyph unicode="&#xe1;" d="M57 0zM681 1538q35 32 125 115.5t139.5 129t112 97t97.5 71.5q64 37 125 37q75 0 124.5 -52.5t49.5 -125.5q0 -52 -29 -100t-87 -82q-36 -21 -112 -48t-144.5 -47.5t-178.5 -51.5t-161 -47q-14 -5 -32 -5q-27 0 -45 14t-18 35q0 30 34 60zM629 653v-453h166v453h-166z M1365 257q1 -128 29 -256h-520l-56 138q-48 -79 -134.5 -124t-205.5 -45q-213 0 -317 103.5t-104 314.5q0 225 118 330.5t354 105.5q141 0 266 -41v323h-139v-191l-525 -20q-11 64 -11 110q0 62 21.5 112t56 83t86.5 57t102 37.5t115 21t114 9.5t109 2q58 0 103 -1t101 -5.5 t99 -12.5t90.5 -22t82 -33t67 -47.5t53 -64.5t33 -84t12.5 -105v-695z" />
<glyph unicode="&#xe2;" d="M57 0zM320 1545l263 409q22 35 61 53.5t82 18.5q94 0 141 -72l263 -409q18 -29 18 -53q0 -27 -18 -45t-45 -18q-29 0 -57 22l-303 235l-303 -235q-26 -20 -54 -20t-47 17.5t-19 44.5q0 23 18 52zM629 653v-453h166v453h-166zM1365 257q1 -128 29 -256h-520l-56 138 q-48 -79 -134.5 -124t-205.5 -45q-213 0 -317 103.5t-104 314.5q0 225 118 330.5t354 105.5q141 0 266 -41v323h-139v-191l-525 -20q-11 64 -11 110q0 62 21.5 112t56 83t86.5 57t102 37.5t115 21t114 9.5t109 2q58 0 103 -1t101 -5.5t99 -12.5t90.5 -22t82 -33t67 -47.5 t53 -64.5t33 -84t12.5 -105v-695z" />
<glyph unicode="&#xe3;" d="M57 0zM1365 1455h-293q0 70 -26.5 117t-83.5 47q-20 0 -41.5 -9.5t-30.5 -15.5t-31 -24q-86 -69 -167 -105t-200 -36q-171 0 -258 75t-122 231q-27 94 -27 245h296q0 -73 26 -120.5t86 -47.5q7 0 14 1t14 3t12.5 3.5t13 6t11 6.5t12 7.5t10.5 7t11 8t10 7.5q53 39 76 54 t72.5 41.5t99.5 37t110 10.5q76 0 135.5 -12.5t102.5 -35t73 -60t48.5 -79.5t29 -102.5t14 -120t3.5 -140.5zM629 653v-453h166v453h-166zM1365 257q1 -128 29 -256h-520l-56 138q-48 -79 -134.5 -124t-205.5 -45q-213 0 -317 103.5t-104 314.5q0 225 118 330.5t354 105.5 q141 0 266 -41v323h-139v-191l-525 -20q-11 64 -11 110q0 62 21.5 112t56 83t86.5 57t102 37.5t115 21t114 9.5t109 2q58 0 103 -1t101 -5.5t99 -12.5t90.5 -22t82 -33t67 -47.5t53 -64.5t33 -84t12.5 -105v-695z" />
<glyph unicode="&#xe4;" d="M57 0zM1293 1765v-336h-451v336h451zM609 1765v-336h-450v336h450zM629 653v-453h166v453h-166zM1365 257q1 -128 29 -256h-520l-56 138q-48 -79 -134.5 -124t-205.5 -45q-213 0 -317 103.5t-104 314.5q0 225 118 330.5t354 105.5q141 0 266 -41v323h-139v-191l-525 -20 q-11 64 -11 110q0 62 21.5 112t56 83t86.5 57t102 37.5t115 21t114 9.5t109 2q58 0 103 -1t101 -5.5t99 -12.5t90.5 -22t82 -33t67 -47.5t53 -64.5t33 -84t12.5 -105v-695z" />
<glyph unicode="&#xe5;" d="M57 0zM723 1871q-52 0 -86.5 -34.5t-34.5 -87.5q0 -51 35 -86t86 -35q50 0 85.5 35.5t35.5 85.5q0 52 -35 87t-86 35zM1058 1749q0 -139 -95.5 -229.5t-237.5 -90.5q-109 0 -189 54.5t-118 140.5q-26 60 -26 125q0 141 95 231.5t238 90.5q109 0 189 -55t118 -141 q26 -60 26 -126zM629 653v-453h166v453h-166zM1365 257q1 -128 29 -256h-520l-56 138q-48 -79 -134.5 -124t-205.5 -45q-213 0 -317 103.5t-104 314.5q0 225 118 330.5t354 105.5q141 0 266 -41v323h-139v-191l-525 -20q-11 64 -11 110q0 62 21.5 112t56 83t86.5 57 t102 37.5t115 21t114 9.5t109 2q58 0 103 -1t101 -5.5t99 -12.5t90.5 -22t82 -33t67 -47.5t53 -64.5t33 -84t12.5 -105v-695z" />
<glyph unicode="&#xe6;" horiz-adv-x="2144" d="M1359 801h144v254h-144v-254zM637 604v-352h150v352h-150zM129 1004q0 62 17.5 111.5t47.5 84.5t75.5 61t94.5 41.5t112 25t121 12.5t128 3q236 0 349 -82l-2 2q125 82 359 82q288 0 446 -66q104 -44 151 -117t47 -206v-350h-716v-354h144v249h571v-147 q-1 -71 -19.5 -128.5t-49 -97.5t-78 -70t-99 -47.5t-120 -28.5t-134 -14.5t-147.5 -3.5q-204 0 -348 113q-197 -113 -502 -113q-238 0 -373 104.5t-135 319.5q0 225 117 330.5t352 105.5q136 0 249 -41v271h-123v-139q-88 -3 -262 -10t-262 -11q-11 64 -11 110z" />
<glyph unicode="&#xe7;" horiz-adv-x="1448" d="M74 0zM641 -14h177v-70q114 0 172 -34t58 -124v-95q0 -50 -19 -82.5t-56 -48.5t-78 -21.5t-100 -5.5q-126 0 -190 32.5t-64 125.5v56l227 28v-132h63v191h-190v180zM1384 539l1 -187q0 -59 -13 -108.5t-34 -86t-55.5 -65.5t-70 -48.5t-85 -33.5t-92.5 -21.5t-100.5 -12 t-101 -5.5t-102.5 -1q-76 0 -134.5 2.5t-130 11.5t-124.5 25t-106 45t-86.5 69t-54.5 99t-21 133v600q0 58 13.5 106.5t35.5 84t58 63.5t72 47t86.5 32.5t94 21t101.5 11.5t101 5t101 1q75 0 118 -1t120.5 -7.5t125 -19t107.5 -38t94 -62t58 -93t24 -128.5v-191h-571v318 h-167v-906h167v340h571z" />
<glyph unicode="&#xe8;" d="M5 0zM778 1538q34 -30 34 -60q0 -21 -18 -35t-45 -14q-18 0 -32 5q-51 16 -161 47t-178.5 51.5t-144.5 47.5t-112 48q-58 34 -87 82t-29 100q0 73 49.5 125.5t124.5 52.5q61 0 125 -37q35 -20 97.5 -71.5t112 -97t139.5 -129t125 -115.5zM646 777h168v328h-168v-328z M1384 483q8 -61 8 -103q0 -224 -159.5 -317t-501.5 -93q-59 0 -103 1t-102 5.5t-101 12t-92.5 21.5t-85 33.5t-70 48.5t-56 65.5t-34.5 86.5t-13 109v600q0 73 22 131.5t56.5 97t90 66.5t108 43t124.5 23.5t126.5 10.5t127.5 2q57 0 100 -1t100.5 -5t100 -11.5t92.5 -21 t86 -32.5t71 -47.5t56.5 -64t35 -84t13.5 -106.5v-350h-738v-405h167v284h571z" />
<glyph unicode="&#xe9;" d="M74 0zM688 1538q35 32 125 115.5t139.5 129t112 97t97.5 71.5q64 37 125 37q75 0 124.5 -52.5t49.5 -125.5q0 -52 -29 -100t-87 -82q-36 -21 -112 -48t-144.5 -47.5t-178.5 -51.5t-161 -47q-14 -5 -32 -5q-27 0 -45 14t-18 35q0 30 34 60zM646 777h168v328h-168v-328z M1384 483q8 -61 8 -103q0 -224 -159.5 -317t-501.5 -93q-59 0 -103 1t-102 5.5t-101 12t-92.5 21.5t-85 33.5t-70 48.5t-56 65.5t-34.5 86.5t-13 109v600q0 73 22 131.5t56.5 97t90 66.5t108 43t124.5 23.5t126.5 10.5t127.5 2q57 0 100 -1t100.5 -5t100 -11.5t92.5 -21 t86 -32.5t71 -47.5t56.5 -64t35 -84t13.5 -106.5v-350h-738v-405h167v284h571z" />
<glyph unicode="&#xea;" d="M74 0zM328 1545l263 409q22 35 61 53.5t82 18.5q94 0 141 -72l263 -409q18 -29 18 -53q0 -27 -18 -45t-45 -18q-29 0 -57 22l-303 235l-303 -235q-26 -20 -54 -20t-47 17.5t-19 44.5q0 23 18 52zM646 777h168v328h-168v-328zM1384 483q8 -61 8 -103q0 -224 -159.5 -317 t-501.5 -93q-59 0 -103 1t-102 5.5t-101 12t-92.5 21.5t-85 33.5t-70 48.5t-56 65.5t-34.5 86.5t-13 109v600q0 73 22 131.5t56.5 97t90 66.5t108 43t124.5 23.5t126.5 10.5t127.5 2q57 0 100 -1t100.5 -5t100 -11.5t92.5 -21t86 -32.5t71 -47.5t56.5 -64t35 -84 t13.5 -106.5v-350h-738v-405h167v284h571z" />
<glyph unicode="&#xeb;" d="M74 0zM1300 1765v-336h-451v336h451zM616 1765v-336h-450v336h450zM646 777h168v328h-168v-328zM1384 483q8 -61 8 -103q0 -224 -159.5 -317t-501.5 -93q-59 0 -103 1t-102 5.5t-101 12t-92.5 21.5t-85 33.5t-70 48.5t-56 65.5t-34.5 86.5t-13 109v600q0 73 22 131.5 t56.5 97t90 66.5t108 43t124.5 23.5t126.5 10.5t127.5 2q57 0 100 -1t100.5 -5t100 -11.5t92.5 -21t86 -32.5t71 -47.5t56.5 -64t35 -84t13.5 -106.5v-350h-738v-405h167v284h571z" />
<glyph unicode="&#xec;" horiz-adv-x="744" d="M0 0zM430 1538q34 -30 34 -60q0 -21 -18 -35t-45 -14q-18 0 -32 5q-51 16 -161 47t-178.5 51.5t-144.5 47.5t-112 48q-58 34 -87 82t-29 100q0 73 49.5 125.5t124.5 52.5q61 0 125 -37q35 -20 97.5 -71.5t112 -97t139.5 -129t125 -115.5zM669 0h-569v1298h569v-1298z" />
<glyph unicode="&#xed;" horiz-adv-x="744" d="M100 0zM339 1538q35 32 125 115.5t139.5 129t112 97t97.5 71.5q64 37 125 37q75 0 124.5 -52.5t49.5 -125.5q0 -52 -29 -100t-87 -82q-36 -21 -112 -48t-144.5 -47.5t-178.5 -51.5t-161 -47q-14 -5 -32 -5q-27 0 -45 14t-18 35q0 30 34 60zM669 0h-569v1298h569v-1298z " />
<glyph unicode="&#xee;" horiz-adv-x="744" d="M0 0zM-20 1545l263 409q22 35 61 53.5t82 18.5q94 0 141 -72l263 -409q18 -29 18 -53q0 -27 -18 -45t-45 -18q-29 0 -57 22l-303 235l-303 -235q-26 -20 -54 -20t-47 17.5t-19 44.5q0 23 18 52zM669 0h-569v1298h569v-1298z" />
<glyph unicode="&#xef;" horiz-adv-x="744" d="M0 0zM951 1765v-336h-451v336h451zM267 1765v-336h-450v336h450zM669 0h-569v1298h569v-1298z" />
<glyph unicode="&#xf0;" horiz-adv-x="1395" d="M762 828h-122v-590h122v590zM991 1578q74 -72 132 -146.5t108.5 -169.5t78 -211t27.5 -244q0 -100 -2 -166t-8.5 -151t-21 -144.5t-38 -120t-61 -105t-87.5 -75.5q-135 -82 -411 -82q-118 0 -207.5 11.5t-169.5 39t-135 79.5t-84 128q-40 106 -40 304q0 192 40.5 313 t145.5 183q128 76 365 76h140q0 36 -12.5 69.5t-37 64.5t-42 48.5t-47.5 44.5l-252 -173l-70 124l205 141q-101 66 -154 94l-67 36l224 341l1 2q200 -83 369 -215l208 143l71 -123z" />
<glyph unicode="&#xf1;" horiz-adv-x="1489" d="M96 0zM1391 1455h-293q0 70 -26.5 117t-83.5 47q-20 0 -41.5 -9.5t-30.5 -15.5t-31 -24q-86 -69 -167 -105t-200 -36q-171 0 -258 75t-122 231q-27 94 -27 245h296q0 -73 26 -120.5t86 -47.5q7 0 14 1t14 3t12.5 3.5t13 6t11 6.5t12 7.5t10.5 7t11 8t10 7.5q53 39 76 54 t72.5 41.5t99.5 37t110 10.5q76 0 135.5 -12.5t102.5 -35t73 -60t48.5 -79.5t29 -102.5t14 -120t3.5 -140.5zM984 1327q205 -1 313 -98t108 -285v-944h-571v1105h-167v-1105h-571v1300h510l37 -112q45 63 137 101t204 38z" />
<glyph unicode="&#xf2;" horiz-adv-x="1457" d="M1 0zM774 1538q34 -30 34 -60q0 -21 -18 -35t-45 -14q-18 0 -32 5q-51 16 -161 47t-178.5 51.5t-144.5 47.5t-112 48q-58 34 -87 82t-29 100q0 73 49.5 125.5t124.5 52.5q61 0 125 -37q35 -20 97.5 -71.5t112 -97t139.5 -129t125 -115.5zM732 -30q-62 0 -107 1t-104 5 t-101.5 11.5t-92 21.5t-84 33t-69 48t-55 65t-33 85t-12.5 108v605q0 63 15.5 115.5t46 89.5t68 65.5t89.5 46.5t100.5 30t112 17.5t113.5 7.5t114 2q78 0 137.5 -2.5t130.5 -11.5t122.5 -25t103 -44t84 -67t52.5 -96t20 -129v-605q0 -77 -21.5 -137t-53 -99.5t-87 -67 t-103.5 -41.5t-125 -21.5t-127.5 -9t-133.5 -1.5zM645 228h166v877h-166v-877z" />
<glyph unicode="&#xf3;" horiz-adv-x="1457" d="M74 0zM683 1538q35 32 125 115.5t139.5 129t112 97t97.5 71.5q64 37 125 37q75 0 124.5 -52.5t49.5 -125.5q0 -52 -29 -100t-87 -82q-36 -21 -112 -48t-144.5 -47.5t-178.5 -51.5t-161 -47q-14 -5 -32 -5q-27 0 -45 14t-18 35q0 30 34 60zM732 -30q-62 0 -107 1t-104 5 t-101.5 11.5t-92 21.5t-84 33t-69 48t-55 65t-33 85t-12.5 108v605q0 63 15.5 115.5t46 89.5t68 65.5t89.5 46.5t100.5 30t112 17.5t113.5 7.5t114 2q78 0 137.5 -2.5t130.5 -11.5t122.5 -25t103 -44t84 -67t52.5 -96t20 -129v-605q0 -77 -21.5 -137t-53 -99.5t-87 -67 t-103.5 -41.5t-125 -21.5t-127.5 -9t-133.5 -1.5zM645 228h166v877h-166v-877z" />
<glyph unicode="&#xf4;" horiz-adv-x="1457" d="M74 0zM324 1545l263 409q22 35 61 53.5t82 18.5q94 0 141 -72l263 -409q18 -29 18 -53q0 -27 -18 -45t-45 -18q-29 0 -57 22l-303 235l-303 -235q-26 -20 -54 -20t-47 17.5t-19 44.5q0 23 18 52zM732 -30q-62 0 -107 1t-104 5t-101.5 11.5t-92 21.5t-84 33t-69 48t-55 65 t-33 85t-12.5 108v605q0 63 15.5 115.5t46 89.5t68 65.5t89.5 46.5t100.5 30t112 17.5t113.5 7.5t114 2q78 0 137.5 -2.5t130.5 -11.5t122.5 -25t103 -44t84 -67t52.5 -96t20 -129v-605q0 -77 -21.5 -137t-53 -99.5t-87 -67t-103.5 -41.5t-125 -21.5t-127.5 -9t-133.5 -1.5z M645 228h166v877h-166v-877z" />
<glyph unicode="&#xf5;" horiz-adv-x="1457" d="M74 0zM1369 1455h-293q0 70 -26.5 117t-83.5 47q-20 0 -41.5 -9.5t-30.5 -15.5t-31 -24q-86 -69 -167 -105t-200 -36q-171 0 -258 75t-122 231q-27 94 -27 245h296q0 -73 26 -120.5t86 -47.5q7 0 14 1t14 3t12.5 3.5t13 6t11 6.5t12 7.5t10.5 7t11 8t10 7.5q53 39 76 54 t72.5 41.5t99.5 37t110 10.5q76 0 135.5 -12.5t102.5 -35t73 -60t48.5 -79.5t29 -102.5t14 -120t3.5 -140.5zM732 -30q-62 0 -107 1t-104 5t-101.5 11.5t-92 21.5t-84 33t-69 48t-55 65t-33 85t-12.5 108v605q0 63 15.5 115.5t46 89.5t68 65.5t89.5 46.5t100.5 30t112 17.5 t113.5 7.5t114 2q78 0 137.5 -2.5t130.5 -11.5t122.5 -25t103 -44t84 -67t52.5 -96t20 -129v-605q0 -77 -21.5 -137t-53 -99.5t-87 -67t-103.5 -41.5t-125 -21.5t-127.5 -9t-133.5 -1.5zM645 228h166v877h-166v-877z" />
<glyph unicode="&#xf6;" horiz-adv-x="1457" d="M74 0zM1295 1765v-336h-451v336h451zM611 1765v-336h-450v336h450zM732 -30q-62 0 -107 1t-104 5t-101.5 11.5t-92 21.5t-84 33t-69 48t-55 65t-33 85t-12.5 108v605q0 63 15.5 115.5t46 89.5t68 65.5t89.5 46.5t100.5 30t112 17.5t113.5 7.5t114 2q78 0 137.5 -2.5 t130.5 -11.5t122.5 -25t103 -44t84 -67t52.5 -96t20 -129v-605q0 -77 -21.5 -137t-53 -99.5t-87 -67t-103.5 -41.5t-125 -21.5t-127.5 -9t-133.5 -1.5zM645 228h166v877h-166v-877z" />
<glyph unicode="&#xf7;" horiz-adv-x="1286" d="M1229 908v-238h-1162v238h1162zM901 1000h-507v497h507v-497zM901 92h-507v467h507v-467z" />
<glyph unicode="&#xf8;" horiz-adv-x="1465" d="M657 636l166 170v300h-166v-470zM657 234h166v455l-166 -170v-285zM86 952q0 73 18.5 130.5t49.5 98t80 70.5t102 47.5t124 27.5t136.5 13.5t148.5 3.5l-1 1q173 0 297 -21t214 -74l93 95l58 -58l-86 -88q75 -76 75 -246v-600q0 -132 -48 -207.5t-150 -117.5 q-160 -66 -453 -66q-182 0 -310.5 22.5t-218.5 81.5l-101 -104l-58 58l97 99q-67 76 -67 234v600z" />
<glyph unicode="&#xf9;" horiz-adv-x="1490" d="M11 0zM784 1538q34 -30 34 -60q0 -21 -18 -35t-45 -14q-18 0 -32 5q-51 16 -161 47t-178.5 51.5t-144.5 47.5t-112 48q-58 34 -87 82t-29 100q0 73 49.5 125.5t124.5 52.5q61 0 125 -37q35 -20 97.5 -71.5t112 -97t139.5 -129t125 -115.5zM508 -30q-205 0 -314.5 97.5 t-109.5 292.5v940h572v-1067h166v1067h572v-1300h-517l-37 112q-40 -65 -133 -103.5t-199 -38.5z" />
<glyph unicode="&#xfa;" horiz-adv-x="1490" d="M84 0zM694 1538q35 32 125 115.5t139.5 129t112 97t97.5 71.5q64 37 125 37q75 0 124.5 -52.5t49.5 -125.5q0 -52 -29 -100t-87 -82q-36 -21 -112 -48t-144.5 -47.5t-178.5 -51.5t-161 -47q-14 -5 -32 -5q-27 0 -45 14t-18 35q0 30 34 60zM508 -30q-205 0 -314.5 97.5 t-109.5 292.5v940h572v-1067h166v1067h572v-1300h-517l-37 112q-40 -65 -133 -103.5t-199 -38.5z" />
<glyph unicode="&#xfb;" horiz-adv-x="1490" d="M84 0zM334 1545l263 409q22 35 61 53.5t82 18.5q94 0 141 -72l263 -409q18 -29 18 -53q0 -27 -18 -45t-45 -18q-29 0 -57 22l-303 235l-303 -235q-26 -20 -54 -20t-47 17.5t-19 44.5q0 23 18 52zM508 -30q-205 0 -314.5 97.5t-109.5 292.5v940h572v-1067h166v1067h572 v-1300h-517l-37 112q-40 -65 -133 -103.5t-199 -38.5z" />
<glyph unicode="&#xfc;" horiz-adv-x="1490" d="M84 0zM1306 1765v-336h-451v336h451zM622 1765v-336h-450v336h450zM508 -30q-205 0 -314.5 97.5t-109.5 292.5v940h572v-1067h166v1067h572v-1300h-517l-37 112q-40 -65 -133 -103.5t-199 -38.5z" />
<glyph unicode="&#xfd;" horiz-adv-x="1337" d="M0 0zM621 1538q35 32 125 115.5t139.5 129t112 97t97.5 71.5q64 37 125 37q75 0 124.5 -52.5t49.5 -125.5q0 -52 -29 -100t-87 -82q-36 -21 -112 -48t-144.5 -47.5t-178.5 -51.5t-161 -47q-14 -5 -32 -5q-27 0 -45 14t-18 35q0 30 34 60zM488 -411q80 0 146 11.5t129 40 t112 74t88.5 117t64.5 165.5l310 1303h-534l-104 -924h-8l-170 924h-527l371 -1259q9 -30 9 -51q0 -67 -88 -67q-67 0 -222 44l-43 -311q94 -27 235 -47t231 -20z" />
<glyph unicode="&#xfe;" horiz-adv-x="1430" d="M674 231h114v838h-114v-838zM675 1227q27 56 95.5 76t177.5 20q196 0 300.5 -78t111.5 -250q2 -62 2 -87v-518q0 -128 -27.5 -210.5t-95.5 -131.5q-99 -72 -291 -72q-94 0 -155 14t-92 54q-4 5 -13 16.5t-13 17.5v-487h-571v2011h571v-375z" />
<glyph unicode="&#xff;" horiz-adv-x="1337" d="M0 0zM1233 1765v-336h-451v336h451zM549 1765v-336h-450v336h450zM488 -411q80 0 146 11.5t129 40t112 74t88.5 117t64.5 165.5l310 1303h-534l-104 -924h-8l-170 924h-527l371 -1259q9 -30 9 -51q0 -67 -88 -67q-67 0 -222 44l-43 -311q94 -27 235 -47t231 -20z" />
<glyph unicode="&#x100;" horiz-adv-x="1550" d="M27 0zM1192 1968v-231h-833v231h833zM782 1283h-19l-77 -707h178zM668 366l-55 -366h-586l292 1595h907l297 -1595h-587l-54 366h-214z" />
<glyph unicode="&#x101;" d="M57 0zM1142 1660v-231h-833v231h833zM629 653v-453h166v453h-166zM1365 257q1 -128 29 -256h-520l-56 138q-48 -79 -134.5 -124t-205.5 -45q-213 0 -317 103.5t-104 314.5q0 225 118 330.5t354 105.5q141 0 266 -41v323h-139v-191l-525 -20q-11 64 -11 110q0 62 21.5 112 t56 83t86.5 57t102 37.5t115 21t114 9.5t109 2q58 0 103 -1t101 -5.5t99 -12.5t90.5 -22t82 -33t67 -47.5t53 -64.5t33 -84t12.5 -105v-695z" />
<glyph unicode="&#x102;" horiz-adv-x="1550" d="M27 0zM775 1737q-112 0 -194.5 23.5t-133.5 63.5t-81.5 103t-41.5 131.5t-11 159.5h297q0 -48 4 -74.5t19.5 -53.5t50 -38.5t91.5 -11.5t91.5 11.5t50 38.5t19.5 53.5t4 74.5h297q0 -91 -11 -159.5t-41.5 -131.5t-81.5 -103t-133.5 -63.5t-194.5 -23.5zM782 1283h-19 l-77 -707h178zM668 366l-55 -366h-586l292 1595h907l297 -1595h-587l-54 366h-214z" />
<glyph unicode="&#x103;" d="M57 0zM725 1429q-112 0 -194.5 23.5t-133.5 63.5t-81.5 103t-41.5 131.5t-11 159.5h297q0 -48 4 -74.5t19.5 -53.5t50 -38.5t91.5 -11.5t91.5 11.5t50 38.5t19.5 53.5t4 74.5h297q0 -91 -11 -159.5t-41.5 -131.5t-81.5 -103t-133.5 -63.5t-194.5 -23.5zM629 653v-453h166 v453h-166zM1365 257q1 -128 29 -256h-520l-56 138q-48 -79 -134.5 -124t-205.5 -45q-213 0 -317 103.5t-104 314.5q0 225 118 330.5t354 105.5q141 0 266 -41v323h-139v-191l-525 -20q-11 64 -11 110q0 62 21.5 112t56 83t86.5 57t102 37.5t115 21t114 9.5t109 2 q58 0 103 -1t101 -5.5t99 -12.5t90.5 -22t82 -33t67 -47.5t53 -64.5t33 -84t12.5 -105v-695z" />
<glyph unicode="&#x104;" horiz-adv-x="1550" d="M27 0zM1069 71l71 -72q-51 -34 -80.5 -86.5t-29.5 -102.5t31.5 -82t93.5 -32q57 0 135 29v-315q-108 -41 -201 -41q-150 0 -240 92t-90 222q0 117 78 222.5t232 165.5zM782 1283h-19l-77 -707h178zM668 366l-55 -366h-586l292 1595h907l297 -1595h-587l-54 366h-214z" />
<glyph unicode="&#x105;" d="M57 0zM1011 71l71 -72q-51 -34 -80.5 -86.5t-29.5 -102.5t31.5 -82t93.5 -32q57 0 135 29v-315q-108 -41 -201 -41q-150 0 -240 92t-90 222q0 117 78 222.5t232 165.5zM629 653v-453h166v453h-166zM1365 257q1 -128 29 -256h-520l-56 138q-48 -79 -134.5 -124t-205.5 -45 q-213 0 -317 103.5t-104 314.5q0 225 118 330.5t354 105.5q141 0 266 -41v323h-139v-191l-525 -20q-11 64 -11 110q0 62 21.5 112t56 83t86.5 57t102 37.5t115 21t114 9.5t109 2q58 0 103 -1t101 -5.5t99 -12.5t90.5 -22t82 -33t67 -47.5t53 -64.5t33 -84t12.5 -105v-695z " />
<glyph unicode="&#x106;" horiz-adv-x="1519" d="M80 0zM726 1847q35 32 125 115.5t139.5 129t112 97t97.5 71.5q64 37 125 37q75 0 124.5 -52.5t49.5 -125.5q0 -52 -29 -100t-87 -82q-36 -21 -112 -48t-144.5 -47.5t-178.5 -51.5t-161 -47q-14 -5 -32 -5q-27 0 -45 14t-18 35q0 30 34 60zM858 1356h-173v-1123h173v381 h604v-245q0 -78 -23 -140.5t-59.5 -104.5t-92.5 -73t-112.5 -48t-130.5 -27t-133.5 -13t-134.5 -3q-69 0 -126 2.5t-131.5 12.5t-132.5 27t-118 48t-99 73t-64 105t-25 142v856q0 77 23.5 139.5t61 104.5t94.5 73.5t114.5 48.5t131.5 27.5t134.5 13.5t133.5 3q78 0 138 -2.5 t135.5 -12.5t131 -26.5t112 -47.5t92 -73t58 -105t22.5 -142v-248h-604v377z" />
<glyph unicode="&#x107;" horiz-adv-x="1448" d="M74 0zM685 1538q35 32 125 115.5t139.5 129t112 97t97.5 71.5q64 37 125 37q75 0 124.5 -52.5t49.5 -125.5q0 -52 -29 -100t-87 -82q-36 -21 -112 -48t-144.5 -47.5t-178.5 -51.5t-161 -47q-14 -5 -32 -5q-27 0 -45 14t-18 35q0 30 34 60zM1384 539l1 -187 q0 -59 -13 -108.5t-34 -86t-55.5 -65.5t-70 -48.5t-85 -33.5t-92.5 -21.5t-100.5 -12t-101 -5.5t-102.5 -1q-76 0 -134.5 2.5t-130 11.5t-124.5 25t-106 45t-86.5 69t-54.5 99t-21 133v600q0 58 13.5 106.5t35.5 84t58 63.5t72 47t86.5 32.5t94 21t101.5 11.5t101 5t101 1 q75 0 118 -1t120.5 -7.5t125 -19t107.5 -38t94 -62t58 -93t24 -128.5v-191h-571v318h-167v-906h167v340h571z" />
<glyph unicode="&#x108;" horiz-adv-x="1519" d="M80 0zM366 1854l263 409q22 35 61 53.5t82 18.5q94 0 141 -72l263 -409q18 -29 18 -53q0 -27 -18 -45t-45 -18q-29 0 -57 22l-303 235l-303 -235q-26 -20 -54 -20t-47 17.5t-19 44.5q0 23 18 52zM858 1356h-173v-1123h173v381h604v-245q0 -78 -23 -140.5t-59.5 -104.5 t-92.5 -73t-112.5 -48t-130.5 -27t-133.5 -13t-134.5 -3q-69 0 -126 2.5t-131.5 12.5t-132.5 27t-118 48t-99 73t-64 105t-25 142v856q0 77 23.5 139.5t61 104.5t94.5 73.5t114.5 48.5t131.5 27.5t134.5 13.5t133.5 3q78 0 138 -2.5t135.5 -12.5t131 -26.5t112 -47.5t92 -73 t58 -105t22.5 -142v-248h-604v377z" />
<glyph unicode="&#x109;" horiz-adv-x="1448" d="M74 0zM324 1545l263 409q22 35 61 53.5t82 18.5q94 0 141 -72l263 -409q18 -29 18 -53q0 -27 -18 -45t-45 -18q-29 0 -57 22l-303 235l-303 -235q-26 -20 -54 -20t-47 17.5t-19 44.5q0 23 18 52zM1384 539l1 -187q0 -59 -13 -108.5t-34 -86t-55.5 -65.5t-70 -48.5 t-85 -33.5t-92.5 -21.5t-100.5 -12t-101 -5.5t-102.5 -1q-76 0 -134.5 2.5t-130 11.5t-124.5 25t-106 45t-86.5 69t-54.5 99t-21 133v600q0 58 13.5 106.5t35.5 84t58 63.5t72 47t86.5 32.5t94 21t101.5 11.5t101 5t101 1q75 0 118 -1t120.5 -7.5t125 -19t107.5 -38t94 -62 t58 -93t24 -128.5v-191h-571v318h-167v-906h167v340h571z" />
<glyph unicode="&#x10a;" horiz-adv-x="1519" d="M80 0zM567 1948q0 99 60.5 154.5t143.5 55.5t143.5 -55.5t60.5 -154.5t-60.5 -154.5t-143.5 -55.5t-143.5 55.5t-60.5 154.5zM858 1356h-173v-1123h173v381h604v-245q0 -78 -23 -140.5t-59.5 -104.5t-92.5 -73t-112.5 -48t-130.5 -27t-133.5 -13t-134.5 -3 q-69 0 -126 2.5t-131.5 12.5t-132.5 27t-118 48t-99 73t-64 105t-25 142v856q0 77 23.5 139.5t61 104.5t94.5 73.5t114.5 48.5t131.5 27.5t134.5 13.5t133.5 3q78 0 138 -2.5t135.5 -12.5t131 -26.5t112 -47.5t92 -73t58 -105t22.5 -142v-248h-604v377z" />
<glyph unicode="&#x10b;" horiz-adv-x="1448" d="M74 0zM526 1639q0 99 60.5 154.5t143.5 55.5t143.5 -55.5t60.5 -154.5t-60.5 -154.5t-143.5 -55.5t-143.5 55.5t-60.5 154.5zM1384 539l1 -187q0 -59 -13 -108.5t-34 -86t-55.5 -65.5t-70 -48.5t-85 -33.5t-92.5 -21.5t-100.5 -12t-101 -5.5t-102.5 -1q-76 0 -134.5 2.5 t-130 11.5t-124.5 25t-106 45t-86.5 69t-54.5 99t-21 133v600q0 58 13.5 106.5t35.5 84t58 63.5t72 47t86.5 32.5t94 21t101.5 11.5t101 5t101 1q75 0 118 -1t120.5 -7.5t125 -19t107.5 -38t94 -62t58 -93t24 -128.5v-191h-571v318h-167v-906h167v340h571z" />
<glyph unicode="&#x10c;" horiz-adv-x="1519" d="M80 0zM629 1810l-263 409q-18 28 -18 52q0 27 19 44.5t47 17.5t54 -20l303 -235l303 235q28 22 57 22q27 0 45 -18t18 -45q0 -25 -18 -53l-263 -409q-47 -72 -141 -72q-43 0 -82 18.5t-61 53.5zM858 1356h-173v-1123h173v381h604v-245q0 -78 -23 -140.5t-59.5 -104.5 t-92.5 -73t-112.5 -48t-130.5 -27t-133.5 -13t-134.5 -3q-69 0 -126 2.5t-131.5 12.5t-132.5 27t-118 48t-99 73t-64 105t-25 142v856q0 77 23.5 139.5t61 104.5t94.5 73.5t114.5 48.5t131.5 27.5t134.5 13.5t133.5 3q78 0 138 -2.5t135.5 -12.5t131 -26.5t112 -47.5t92 -73 t58 -105t22.5 -142v-248h-604v377z" />
<glyph unicode="&#x10d;" horiz-adv-x="1448" d="M74 0zM587 1501l-263 409q-18 28 -18 52q0 27 19 44.5t47 17.5t54 -20l303 -235l303 235q28 22 57 22q27 0 45 -18t18 -45q0 -25 -18 -53l-263 -409q-47 -72 -141 -72q-43 0 -82 18.5t-61 53.5zM1384 539l1 -187q0 -59 -13 -108.5t-34 -86t-55.5 -65.5t-70 -48.5 t-85 -33.5t-92.5 -21.5t-100.5 -12t-101 -5.5t-102.5 -1q-76 0 -134.5 2.5t-130 11.5t-124.5 25t-106 45t-86.5 69t-54.5 99t-21 133v600q0 58 13.5 106.5t35.5 84t58 63.5t72 47t86.5 32.5t94 21t101.5 11.5t101 5t101 1q75 0 118 -1t120.5 -7.5t125 -19t107.5 -38t94 -62 t58 -93t24 -128.5v-191h-571v318h-167v-906h167v340h571z" />
<glyph unicode="&#x10e;" horiz-adv-x="1554" d="M92 0zM641 1809l-263 409q-18 28 -18 52q0 27 19 44.5t47 17.5t54 -20l303 -235l303 235q28 22 57 22q27 0 45 -18t18 -45q0 -25 -18 -53l-263 -409q-47 -72 -141 -72q-43 0 -82 18.5t-61 53.5zM1474 1204v-811q0 -67 -13.5 -122t-41 -94.5t-61 -69t-81.5 -48.5 t-93.5 -31.5t-107 -18t-111.5 -7.5t-117 -2h-756v1595h756q76 0 135 -3t127 -12.5t118 -26.5t98.5 -46.5t79 -70t49.5 -99.5t19 -133zM697 235h173v1123h-173v-1123z" />
<glyph unicode="&#x10f;" horiz-adv-x="1471" d="M74 0zM1536 1510q0 94 60.5 147t143.5 53q103 0 156.5 -68t53.5 -172q0 -70 -23.5 -140.5t-66.5 -129.5t-110.5 -96t-146.5 -37q-22 0 -44 3v109q63 1 107.5 33.5t48.5 88.5q-75 8 -127 62.5t-52 146.5zM811 1105h-167v-906h167v906zM489 1327q226 0 323 -112v495h571 v-1710h-520l-37 114q-47 -66 -136.5 -105t-198.5 -39q-417 0 -417 407v563q0 387 415 387z" />
<glyph unicode="&#x110;" horiz-adv-x="1449" d="M645 237h236v1121h-236v-490h128v-142h-128v-489zM1378 393l-2 -1q0 -131 -38 -206.5t-128 -119.5q-135 -66 -393 -66h-671v726h-94v142h94v727h671q92 0 166 -7t147.5 -27t124 -53t83.5 -88.5t37 -130.5q3 -45 3 -85v-811z" />
<glyph unicode="&#x111;" horiz-adv-x="1478" d="M500 1327q226 0 323 -112v262h-178v161h178v72h571v-72h124v-161h-124v-1477h-520l-37 114q-46 -66 -135.5 -103.5t-199.5 -37.5q-417 0 -417 404v563q0 387 415 387zM822 1105h-167v-906h167v906z" />
<glyph unicode="&#x112;" horiz-adv-x="1096" d="M92 0zM981 1968v-231h-833v231h833zM1037 1595v-249h-341v-385h318v-250h-318v-460h341v-251h-945v1595h945z" />
<glyph unicode="&#x113;" d="M74 0zM1150 1660v-231h-833v231h833zM646 777h168v328h-168v-328zM1384 483q8 -61 8 -103q0 -224 -159.5 -317t-501.5 -93q-59 0 -103 1t-102 5.5t-101 12t-92.5 21.5t-85 33.5t-70 48.5t-56 65.5t-34.5 86.5t-13 109v600q0 73 22 131.5t56.5 97t90 66.5t108 43 t124.5 23.5t126.5 10.5t127.5 2q57 0 100 -1t100.5 -5t100 -11.5t92.5 -21t86 -32.5t71 -47.5t56.5 -64t35 -84t13.5 -106.5v-350h-738v-405h167v284h571z" />
<glyph unicode="&#x116;" horiz-adv-x="1096" d="M92 0zM360 1947q0 99 60.5 154.5t143.5 55.5t143.5 -55.5t60.5 -154.5t-60.5 -154.5t-143.5 -55.5t-143.5 55.5t-60.5 154.5zM1037 1595v-249h-341v-385h318v-250h-318v-460h341v-251h-945v1595h945z" />
<glyph unicode="&#x117;" d="M74 0zM529 1639q0 99 60.5 154.5t143.5 55.5t143.5 -55.5t60.5 -154.5t-60.5 -154.5t-143.5 -55.5t-143.5 55.5t-60.5 154.5zM646 777h168v328h-168v-328zM1384 483q8 -61 8 -103q0 -224 -159.5 -317t-501.5 -93q-59 0 -103 1t-102 5.5t-101 12t-92.5 21.5t-85 33.5 t-70 48.5t-56 65.5t-34.5 86.5t-13 109v600q0 73 22 131.5t56.5 97t90 66.5t108 43t124.5 23.5t126.5 10.5t127.5 2q57 0 100 -1t100.5 -5t100 -11.5t92.5 -21t86 -32.5t71 -47.5t56.5 -64t35 -84t13.5 -106.5v-350h-738v-405h167v284h571z" />
<glyph unicode="&#x118;" horiz-adv-x="1096" d="M92 0zM728 71l71 -72q-51 -34 -80.5 -86.5t-29.5 -102.5t31.5 -82t93.5 -32q57 0 135 29v-315q-108 -41 -201 -41q-150 0 -240 92t-90 222q0 117 78 222.5t232 165.5zM1037 1595v-249h-341v-385h318v-250h-318v-460h341v-251h-945v1595h945z" />
<glyph unicode="&#x119;" d="M74 0zM927 59l71 -72q-51 -34 -80.5 -86.5t-29.5 -102.5t31.5 -82t93.5 -32q57 0 135 29v-315q-108 -41 -201 -41q-150 0 -240 92t-90 222q0 117 78 222.5t232 165.5zM646 777h168v328h-168v-328zM1384 483q8 -61 8 -103q0 -224 -159.5 -317t-501.5 -93q-59 0 -103 1 t-102 5.5t-101 12t-92.5 21.5t-85 33.5t-70 48.5t-56 65.5t-34.5 86.5t-13 109v600q0 73 22 131.5t56.5 97t90 66.5t108 43t124.5 23.5t126.5 10.5t127.5 2q57 0 100 -1t100.5 -5t100 -11.5t92.5 -21t86 -32.5t71 -47.5t56.5 -64t35 -84t13.5 -106.5v-350h-738v-405h167v284 h571z" />
<glyph unicode="&#x11a;" horiz-adv-x="1096" d="M92 0zM423 1809l-263 409q-18 28 -18 52q0 27 19 44.5t47 17.5t54 -20l303 -235l303 235q28 22 57 22q27 0 45 -18t18 -45q0 -25 -18 -53l-263 -409q-47 -72 -141 -72q-43 0 -82 18.5t-61 53.5zM1037 1595v-249h-341v-385h318v-250h-318v-460h341v-251h-945v1595h945z " />
<glyph unicode="&#x11b;" d="M74 0zM591 1501l-263 409q-18 28 -18 52q0 27 19 44.5t47 17.5t54 -20l303 -235l303 235q28 22 57 22q27 0 45 -18t18 -45q0 -25 -18 -53l-263 -409q-47 -72 -141 -72q-43 0 -82 18.5t-61 53.5zM646 777h168v328h-168v-328zM1384 483q8 -61 8 -103q0 -224 -159.5 -317 t-501.5 -93q-59 0 -103 1t-102 5.5t-101 12t-92.5 21.5t-85 33.5t-70 48.5t-56 65.5t-34.5 86.5t-13 109v600q0 73 22 131.5t56.5 97t90 66.5t108 43t124.5 23.5t126.5 10.5t127.5 2q57 0 100 -1t100.5 -5t100 -11.5t92.5 -21t86 -32.5t71 -47.5t56.5 -64t35 -84 t13.5 -106.5v-350h-738v-405h167v284h571z" />
<glyph unicode="&#x11e;" horiz-adv-x="1540" d="M80 0zM771 1738q-112 0 -194.5 23.5t-133.5 63.5t-81.5 103t-41.5 131.5t-11 159.5h297q0 -48 4 -74.5t19.5 -53.5t50 -38.5t91.5 -11.5t91.5 11.5t50 38.5t19.5 53.5t4 74.5h297q0 -91 -11 -159.5t-41.5 -131.5t-81.5 -103t-133.5 -63.5t-194.5 -23.5zM901 124 q-100 -163 -351 -163q-98 0 -181.5 24t-149 71t-102.5 125t-37 178v869q0 78 23 140.5t60.5 104.5t94.5 72.5t114 47.5t131.5 27t134 13t134.5 3q64 0 122 -3.5t130 -14t131 -28t118 -49t99 -73t65 -103.5t25 -138v-248h-605v379h-173v-1123h173v303h-85v231h690v-769h-487z " />
<glyph unicode="&#x11f;" horiz-adv-x="1463" d="M74 0zM729 1429q-112 0 -194.5 23.5t-133.5 63.5t-81.5 103t-41.5 131.5t-11 159.5h297q0 -48 4 -74.5t19.5 -53.5t50 -38.5t91.5 -11.5t91.5 11.5t50 38.5t19.5 53.5t4 74.5h297q0 -91 -11 -159.5t-41.5 -131.5t-81.5 -103t-133.5 -63.5t-194.5 -23.5zM812 1104h-167 v-788h167v788zM497 1327q236 -2 339 -140l36 112h511v-1063q0 -314 -174.5 -461t-544.5 -147q-256 0 -477 61l57 291q141 -39 346 -39q173 0 235 37v227q-45 -57 -133 -85.5t-198 -28.5q-420 0 -420 391v445q0 400 423 400z" />
<glyph unicode="&#x120;" horiz-adv-x="1540" d="M80 0zM567 1948q0 99 60.5 154.5t143.5 55.5t143.5 -55.5t60.5 -154.5t-60.5 -154.5t-143.5 -55.5t-143.5 55.5t-60.5 154.5zM901 124q-100 -163 -351 -163q-98 0 -181.5 24t-149 71t-102.5 125t-37 178v869q0 78 23 140.5t60.5 104.5t94.5 72.5t114 47.5t131.5 27 t134 13t134.5 3q64 0 122 -3.5t130 -14t131 -28t118 -49t99 -73t65 -103.5t25 -138v-248h-605v379h-173v-1123h173v303h-85v231h690v-769h-487z" />
<glyph unicode="&#x121;" horiz-adv-x="1463" d="M74 0zM524 1639q0 99 60.5 154.5t143.5 55.5t143.5 -55.5t60.5 -154.5t-60.5 -154.5t-143.5 -55.5t-143.5 55.5t-60.5 154.5zM812 1104h-167v-788h167v788zM497 1327q236 -2 339 -140l36 112h511v-1063q0 -314 -174.5 -461t-544.5 -147q-256 0 -477 61l57 291 q141 -39 346 -39q173 0 235 37v227q-45 -57 -133 -85.5t-198 -28.5q-420 0 -420 391v445q0 400 423 400z" />
<glyph unicode="&#x122;" horiz-adv-x="1540" d="M80 0zM564 -341q0 94 60.5 147t143.5 53q103 0 156.5 -68t53.5 -172q0 -70 -23.5 -140.5t-66.5 -129.5t-110.5 -96t-146.5 -37q-22 0 -44 3v109q63 1 107.5 33.5t48.5 88.5q-75 8 -127 62.5t-52 146.5zM901 124q-100 -163 -351 -163q-98 0 -181.5 24t-149 71t-102.5 125 t-37 178v869q0 78 23 140.5t60.5 104.5t94.5 72.5t114 47.5t131.5 27t134 13t134.5 3q64 0 122 -3.5t130 -14t131 -28t118 -49t99 -73t65 -103.5t25 -138v-248h-605v379h-173v-1123h173v303h-85v231h690v-769h-487z" />
<glyph unicode="&#x123;" horiz-adv-x="1470" d="M826 1104h-167v-788h167v788zM511 1327v-1q236 0 339 -139l36 112h511v-1063q0 -314 -174.5 -461t-544.5 -147q-256 0 -477 61l57 291q77 -21 192.5 -32.5t228 -4.5t160.5 35v227q-45 -57 -133 -85.5t-198 -28.5q-420 0 -420 391v445q0 400 423 400z" />
<glyph unicode="&#x11d;" horiz-adv-x="1463" d="M74 0zM324 1545l263 409q22 35 61 53.5t82 18.5q94 0 141 -72l263 -409q18 -29 18 -53q0 -27 -18 -45t-45 -18q-29 0 -57 22l-303 235l-303 -235q-26 -20 -54 -20t-47 17.5t-19 44.5q0 23 18 52zM812 1104h-167v-788h167v788zM497 1327q236 -2 339 -140l36 112h511v-1063 q0 -314 -174.5 -461t-544.5 -147q-256 0 -477 61l57 291q141 -39 346 -39q173 0 235 37v227q-45 -57 -133 -85.5t-198 -28.5q-420 0 -420 391v445q0 400 423 400z" />
<glyph unicode="&#x11c;" horiz-adv-x="1540" d="M80 0zM366 1854l263 409q22 35 61 53.5t82 18.5q94 0 141 -72l263 -409q18 -29 18 -53q0 -27 -18 -45t-45 -18q-29 0 -57 22l-303 235l-303 -235q-26 -20 -54 -20t-47 17.5t-19 44.5q0 23 18 52zM901 124q-100 -163 -351 -163q-98 0 -181.5 24t-149 71t-102.5 125 t-37 178v869q0 78 23 140.5t60.5 104.5t94.5 72.5t114 47.5t131.5 27t134 13t134.5 3q64 0 122 -3.5t130 -14t131 -28t118 -49t99 -73t65 -103.5t25 -138v-248h-605v379h-173v-1123h173v303h-85v231h690v-769h-487z" />
<glyph unicode="&#x124;" horiz-adv-x="1585" d="M92 0zM388 1853l263 409q22 35 61 53.5t82 18.5q94 0 141 -72l263 -409q18 -29 18 -53q0 -27 -18 -45t-45 -18q-29 0 -57 22l-303 235l-303 -235q-26 -20 -54 -20t-47 17.5t-19 44.5q0 23 18 52zM1493 1595v-1595h-604v688h-193v-688h-604v1595h604v-687h193v687h604z " />
<glyph unicode="&#x125;" horiz-adv-x="1494" d="M101 0zM350 1928l263 409q22 35 61 53.5t82 18.5q94 0 141 -72l263 -409q18 -29 18 -53q0 -27 -18 -45t-45 -18q-29 0 -57 22l-303 235l-303 -235q-26 -20 -54 -20t-47 17.5t-19 44.5q0 23 18 52zM993 1327q417 0 417 -382v-945h-571v1105h-167v-1105h-571v1710h571v-500 q41 56 129 86.5t192 30.5z" />
<glyph unicode="&#x126;" horiz-adv-x="1703" d="M755 1158v-220h193v220h-193zM1659 1349v-191h-106v-1158h-605v688h-193v-688h-604v1158h-97v191h97v246h604v-246h193v246h605v-246h106z" />
<glyph unicode="&#x127;" horiz-adv-x="1511" d="M1023 1343q416 0 416 -398v-945h-571v1065h-166v-1065h-572v1450h-129v169h129v91h572v-91h444v-169h-444v-240q39 64 126.5 98.5t194.5 34.5z" />
<glyph unicode="&#x128;" horiz-adv-x="788" d="M0 0zM1034 1763h-293q0 70 -26.5 117t-83.5 47q-20 0 -41.5 -9.5t-30.5 -15.5t-31 -24q-86 -69 -167 -105t-200 -36q-171 0 -258 75t-122 231q-27 94 -27 245h296q0 -73 26 -120.5t86 -47.5q7 0 14 1t14 3t12.5 3.5t13 6t11 6.5t12 7.5t10.5 7t11 8t10 7.5q53 39 76 54 t72.5 41.5t99.5 37t110 10.5q76 0 135.5 -12.5t102.5 -35t73 -60t48.5 -79.5t29 -102.5t14 -120t3.5 -140.5zM696 1595v-1595h-604v1595h604z" />
<glyph unicode="&#x129;" horiz-adv-x="744" d="M0 0zM1025 1455h-293q0 70 -26.5 117t-83.5 47q-20 0 -41.5 -9.5t-30.5 -15.5t-31 -24q-86 -69 -167 -105t-200 -36q-171 0 -258 75t-122 231q-27 94 -27 245h296q0 -73 26 -120.5t86 -47.5q7 0 14 1t14 3t12.5 3.5t13 6t11 6.5t12 7.5t10.5 7t11 8t10 7.5q53 39 76 54 t72.5 41.5t99.5 37t110 10.5q76 0 135.5 -12.5t102.5 -35t73 -60t48.5 -79.5t29 -102.5t14 -120t3.5 -140.5zM669 0h-569v1298h569v-1298z" />
<glyph unicode="&#x12a;" horiz-adv-x="788" d="M0 0zM810 1968v-231h-833v231h833zM696 1595v-1595h-604v1595h604z" />
<glyph unicode="&#x12b;" horiz-adv-x="744" d="M0 0zM801 1660v-231h-833v231h833zM669 0h-569v1298h569v-1298z" />
<glyph unicode="&#x12c;" horiz-adv-x="788" d="M0 0zM394 1737q-112 0 -194.5 23.5t-133.5 63.5t-81.5 103t-41.5 131.5t-11 159.5h297q0 -48 4 -74.5t19.5 -53.5t50 -38.5t91.5 -11.5t91.5 11.5t50 38.5t19.5 53.5t4 74.5h297q0 -91 -11 -159.5t-41.5 -131.5t-81.5 -103t-133.5 -63.5t-194.5 -23.5zM696 1595v-1595 h-604v1595h604z" />
<glyph unicode="&#x12d;" horiz-adv-x="744" d="M0 0zM385 1429q-112 0 -194.5 23.5t-133.5 63.5t-81.5 103t-41.5 131.5t-11 159.5h297q0 -48 4 -74.5t19.5 -53.5t50 -38.5t91.5 -11.5t91.5 11.5t50 38.5t19.5 53.5t4 74.5h297q0 -91 -11 -159.5t-41.5 -131.5t-81.5 -103t-133.5 -63.5t-194.5 -23.5zM669 0h-569v1298 h569v-1298z" />
<glyph unicode="&#x12e;" horiz-adv-x="788" d="M92 0zM525 -49l71 -72q-51 -34 -80.5 -86.5t-29.5 -102.5t31.5 -82t93.5 -32q57 0 135 29v-315q-108 -41 -201 -41q-150 0 -240 92t-90 222q0 117 78 222.5t232 165.5zM696 1595v-1595h-604v1595h604z" />
<glyph unicode="&#x12f;" horiz-adv-x="751" d="M90 0zM506 -49l71 -72q-51 -34 -80.5 -86.5t-29.5 -102.5t31.5 -82t93.5 -32q57 0 135 29v-315q-108 -41 -201 -41q-150 0 -240 92t-90 222q0 117 78 222.5t232 165.5zM661 1709v-284h-571v284h571zM661 0h-571v1300h571v-1300z" />
<glyph unicode="&#x130;" horiz-adv-x="788" d="M92 0zM190 1947q0 99 60.5 154.5t143.5 55.5t143.5 -55.5t60.5 -154.5t-60.5 -154.5t-143.5 -55.5t-143.5 55.5t-60.5 154.5zM696 1595v-1595h-604v1595h604z" />
<glyph unicode="&#x131;" horiz-adv-x="744" d="M669 0h-569v1298h569v-1298z" />
<glyph unicode="&#x132;" horiz-adv-x="1667" d="M1596 334q0 -72 -19.5 -131t-53.5 -101t-84.5 -73.5t-107 -51t-127.5 -31.5t-139.5 -16.5t-148.5 -4.5v-1q-33 0 -97 2v272h173v1396h604v-1260zM720 1595v-1595h-604v1595h604z" />
<glyph unicode="&#x133;" horiz-adv-x="1646" d="M1561 1709v-284h-572v284h572zM1561 94q0 -216 -117 -318t-344 -102q-164 0 -270 21l-30 239h189v1366h572v-1206zM678 1709v-284h-571v284h571zM678 0h-571v1300h571v-1300z" />
<glyph unicode="&#x134;" horiz-adv-x="923" d="M20 0zM38 1853l263 409q22 35 61 53.5t82 18.5q94 0 141 -72l263 -409q18 -29 18 -53q0 -27 -18 -45t-45 -18q-29 0 -57 22l-303 235l-303 -235q-26 -20 -54 -20t-47 17.5t-19 44.5q0 23 18 52zM831 1594v-1320q0 -116 -39.5 -201.5t-111.5 -135t-164 -73t-206 -23.5 q-118 0 -256 25v272h173v1456h604z" />
<glyph unicode="&#x135;" horiz-adv-x="868" d="M0 0zM-2 1545l263 409q22 35 61 53.5t82 18.5q94 0 141 -72l263 -409q18 -29 18 -53q0 -27 -18 -45t-45 -18q-29 0 -57 22l-303 235l-303 -235q-26 -20 -54 -20t-47 17.5t-19 44.5q0 23 18 52zM784 94q0 -216 -117 -318t-344 -102q-164 0 -270 21l-30 239h189v1366h572 v-1206z" />
<glyph unicode="&#x136;" horiz-adv-x="1667" d="M92 0zM667 -302q0 94 60.5 147t143.5 53q103 0 156.5 -68t53.5 -172q0 -70 -23.5 -140.5t-66.5 -129.5t-110.5 -96t-146.5 -37q-22 0 -44 3v109q63 1 107.5 33.5t48.5 88.5q-75 8 -127 62.5t-52 146.5zM1657 0l-373 840l325 755h-619l-295 -766l2 184v582h-605v-1595h605 v564l59 131l252 -695h649z" />
<glyph unicode="&#x137;" horiz-adv-x="1520" d="M101 0zM611 -302q0 94 60.5 147t143.5 53q103 0 156.5 -68t53.5 -172q0 -70 -23.5 -140.5t-66.5 -129.5t-110.5 -96t-146.5 -37q-22 0 -44 3v109q63 1 107.5 33.5t48.5 88.5q-75 8 -127 62.5t-52 146.5zM101 0v1710h571v-912l269 502h586l-331 -610l338 -690h-580 l-239 575l-43 -97v-478h-571z" />
<glyph unicode="&#x138;" horiz-adv-x="1590" d="M100 0v1299h584v-441l268 442h586l-335 -510l358 -790h-575l-189 455l-113 -137v-318h-584z" />
<glyph unicode="&#x139;" horiz-adv-x="1072" d="M92 0zM519 1846q35 32 125 115.5t139.5 129t112 97t97.5 71.5q64 37 125 37q75 0 124.5 -52.5t49.5 -125.5q0 -52 -29 -100t-87 -82q-36 -21 -112 -48t-144.5 -47.5t-178.5 -51.5t-161 -47q-14 -5 -32 -5q-27 0 -45 14t-18 35q0 30 34 60zM92 0v1595h604v-1354h341v-241 h-945z" />
<glyph unicode="&#x13a;" horiz-adv-x="760" d="M105 0zM345 1921q35 32 125 115.5t139.5 129t112 97t97.5 71.5q64 37 125 37q75 0 124.5 -52.5t49.5 -125.5q0 -52 -29 -100t-87 -82q-36 -21 -112 -48t-144.5 -47.5t-178.5 -51.5t-161 -47q-14 -5 -32 -5q-27 0 -45 14t-18 35q0 30 34 60zM676 0h-571v1710h571v-1710z " />
<glyph unicode="&#x13b;" horiz-adv-x="1072" d="M92 0zM357 -302q0 94 60.5 147t143.5 53q103 0 156.5 -68t53.5 -172q0 -70 -23.5 -140.5t-66.5 -129.5t-110.5 -96t-146.5 -37q-22 0 -44 3v109q63 1 107.5 33.5t48.5 88.5q-75 8 -127 62.5t-52 146.5zM92 0v1595h604v-1354h341v-241h-945z" />
<glyph unicode="&#x13c;" horiz-adv-x="760" d="M105 0zM183 -302q0 94 60.5 147t143.5 53q103 0 156.5 -68t53.5 -172q0 -70 -23.5 -140.5t-66.5 -129.5t-110.5 -96t-146.5 -37q-22 0 -44 3v109q63 1 107.5 33.5t48.5 88.5q-75 8 -127 62.5t-52 146.5zM676 0h-571v1710h571v-1710z" />
<glyph unicode="&#x13d;" horiz-adv-x="1072" d="M92 0zM1190 1435q0 94 60.5 147t143.5 53q103 0 156.5 -68t53.5 -172q0 -70 -23.5 -140.5t-66.5 -129.5t-110.5 -96t-146.5 -37q-22 0 -44 3v109q63 1 107.5 33.5t48.5 88.5q-75 8 -127 62.5t-52 146.5zM92 0v1595h604v-1354h341v-241h-945z" />
<glyph unicode="&#x13e;" horiz-adv-x="760" d="M105 0zM829 1510q0 94 60.5 147t143.5 53q103 0 156.5 -68t53.5 -172q0 -70 -23.5 -140.5t-66.5 -129.5t-110.5 -96t-146.5 -37q-22 0 -44 3v109q63 1 107.5 33.5t48.5 88.5q-75 8 -127 62.5t-52 146.5zM676 0h-571v1710h571v-1710z" />
<glyph unicode="&#x13f;" horiz-adv-x="1072" d="M92 0zM360 818q0 99 60.5 154.5t143.5 55.5t143.5 -55.5t60.5 -154.5t-60.5 -154.5t-143.5 -55.5t-143.5 55.5t-60.5 154.5zM92 0v1595h604v-1354h341v-241h-945z" />
<glyph unicode="&#x140;" horiz-adv-x="1430" d="M105 0zM896 1116q0 99 60.5 154.5t143.5 55.5t143.5 -55.5t60.5 -154.5t-60.5 -154.5t-143.5 -55.5t-143.5 55.5t-60.5 154.5zM676 0h-571v1710h571v-1710z" />
<glyph unicode="&#x141;" horiz-adv-x="1534" d="M377 911v684h604v-364l339 179v-338l-339 -180v-651h341v-241h-945v572l-305 -162v340z" />
<glyph unicode="&#x142;" horiz-adv-x="1145" d="M852 0h-571v641l-217 -102v249l217 102v820h571v-552l242 113v-248l-242 -114v-909z" />
<glyph unicode="&#x143;" horiz-adv-x="1576" d="M92 0zM743 1846q35 32 125 115.5t139.5 129t112 97t97.5 71.5q64 37 125 37q75 0 124.5 -52.5t49.5 -125.5q0 -52 -29 -100t-87 -82q-36 -21 -112 -48t-144.5 -47.5t-178.5 -51.5t-161 -47q-14 -5 -32 -5q-27 0 -45 14t-18 35q0 30 34 60zM945 0l-405 711v-711h-448v1595 h517l431 -761v761h444v-1595h-539z" />
<glyph unicode="&#x144;" horiz-adv-x="1489" d="M96 0zM705 1538q35 32 125 115.5t139.5 129t112 97t97.5 71.5q64 37 125 37q75 0 124.5 -52.5t49.5 -125.5q0 -52 -29 -100t-87 -82q-36 -21 -112 -48t-144.5 -47.5t-178.5 -51.5t-161 -47q-14 -5 -32 -5q-27 0 -45 14t-18 35q0 30 34 60zM984 1327q205 -1 313 -98 t108 -285v-944h-571v1105h-167v-1105h-571v1300h510l37 -112q45 63 137 101t204 38z" />
<glyph unicode="&#x145;" horiz-adv-x="1576" d="M92 0zM581 -302q0 94 60.5 147t143.5 53q103 0 156.5 -68t53.5 -172q0 -70 -23.5 -140.5t-66.5 -129.5t-110.5 -96t-146.5 -37q-22 0 -44 3v109q63 1 107.5 33.5t48.5 88.5q-75 8 -127 62.5t-52 146.5zM945 0l-405 711v-711h-448v1595h517l431 -761v761h444v-1595h-539z " />
<glyph unicode="&#x146;" horiz-adv-x="1489" d="M96 0zM543 -302q0 94 60.5 147t143.5 53q103 0 156.5 -68t53.5 -172q0 -70 -23.5 -140.5t-66.5 -129.5t-110.5 -96t-146.5 -37q-22 0 -44 3v109q63 1 107.5 33.5t48.5 88.5q-75 8 -127 62.5t-52 146.5zM984 1327q205 -1 313 -98t108 -285v-944h-571v1105h-167v-1105h-571 v1300h510l37 -112q45 63 137 101t204 38z" />
<glyph unicode="&#x147;" horiz-adv-x="1576" d="M92 0zM646 1809l-263 409q-18 28 -18 52q0 27 19 44.5t47 17.5t54 -20l303 -235l303 235q28 22 57 22q27 0 45 -18t18 -45q0 -25 -18 -53l-263 -409q-47 -72 -141 -72q-43 0 -82 18.5t-61 53.5zM945 0l-405 711v-711h-448v1595h517l431 -761v761h444v-1595h-539z" />
<glyph unicode="&#x148;" horiz-adv-x="1489" d="M96 0zM609 1501l-263 409q-18 28 -18 52q0 27 19 44.5t47 17.5t54 -20l303 -235l303 235q28 22 57 22q27 0 45 -18t18 -45q0 -25 -18 -53l-263 -409q-47 -72 -141 -72q-43 0 -82 18.5t-61 53.5zM984 1327q205 -1 313 -98t108 -285v-944h-571v1105h-167v-1105h-571v1300 h510l37 -112q45 63 137 101t204 38z" />
<glyph unicode="&#x14c;" horiz-adv-x="1542" d="M80 0zM1188 1968v-231h-833v231h833zM768 -39q-80 0 -140 2.5t-135.5 12t-130.5 26.5t-111 47.5t-91.5 72.5t-57.5 105.5t-22 142.5v856q0 77 23 139.5t60 104.5t93.5 73t113.5 48.5t130.5 27.5t134 13t133.5 3q68 0 125 -2.5t131 -12.5t132 -27t117.5 -48t99 -73 t64.5 -105t25 -141v-856q0 -79 -23.5 -142t-60.5 -105t-95 -72.5t-114 -47.5t-132 -26.5t-134.5 -12.5t-134.5 -3zM685 235h173v1127h-173v-1127z" />
<glyph unicode="&#x14d;" horiz-adv-x="1457" d="M74 0zM1145 1660v-231h-833v231h833zM732 -30q-62 0 -107 1t-104 5t-101.5 11.5t-92 21.5t-84 33t-69 48t-55 65t-33 85t-12.5 108v605q0 63 15.5 115.5t46 89.5t68 65.5t89.5 46.5t100.5 30t112 17.5t113.5 7.5t114 2q78 0 137.5 -2.5t130.5 -11.5t122.5 -25t103 -44 t84 -67t52.5 -96t20 -129v-605q0 -77 -21.5 -137t-53 -99.5t-87 -67t-103.5 -41.5t-125 -21.5t-127.5 -9t-133.5 -1.5zM645 228h166v877h-166v-877z" />
<glyph unicode="&#x14e;" horiz-adv-x="1542" d="M80 0zM771 1737q-112 0 -194.5 23.5t-133.5 63.5t-81.5 103t-41.5 131.5t-11 159.5h297q0 -48 4 -74.5t19.5 -53.5t50 -38.5t91.5 -11.5t91.5 11.5t50 38.5t19.5 53.5t4 74.5h297q0 -91 -11 -159.5t-41.5 -131.5t-81.5 -103t-133.5 -63.5t-194.5 -23.5zM768 -39 q-80 0 -140 2.5t-135.5 12t-130.5 26.5t-111 47.5t-91.5 72.5t-57.5 105.5t-22 142.5v856q0 77 23 139.5t60 104.5t93.5 73t113.5 48.5t130.5 27.5t134 13t133.5 3q68 0 125 -2.5t131 -12.5t132 -27t117.5 -48t99 -73t64.5 -105t25 -141v-856q0 -79 -23.5 -142t-60.5 -105 t-95 -72.5t-114 -47.5t-132 -26.5t-134.5 -12.5t-134.5 -3zM685 235h173v1127h-173v-1127z" />
<glyph unicode="&#x14f;" horiz-adv-x="1457" d="M74 0zM729 1429q-112 0 -194.5 23.5t-133.5 63.5t-81.5 103t-41.5 131.5t-11 159.5h297q0 -48 4 -74.5t19.5 -53.5t50 -38.5t91.5 -11.5t91.5 11.5t50 38.5t19.5 53.5t4 74.5h297q0 -91 -11 -159.5t-41.5 -131.5t-81.5 -103t-133.5 -63.5t-194.5 -23.5zM732 -30 q-62 0 -107 1t-104 5t-101.5 11.5t-92 21.5t-84 33t-69 48t-55 65t-33 85t-12.5 108v605q0 63 15.5 115.5t46 89.5t68 65.5t89.5 46.5t100.5 30t112 17.5t113.5 7.5t114 2q78 0 137.5 -2.5t130.5 -11.5t122.5 -25t103 -44t84 -67t52.5 -96t20 -129v-605q0 -77 -21.5 -137 t-53 -99.5t-87 -67t-103.5 -41.5t-125 -21.5t-127.5 -9t-133.5 -1.5zM645 228h166v877h-166v-877z" />
<glyph unicode="&#x150;" horiz-adv-x="1542" d="M80 0zM381 1846q35 32 125 115.5t139.5 129t112 97t97.5 71.5q64 37 125 37q75 0 124.5 -52.5t49.5 -125.5q0 -52 -29 -100t-87 -82q-36 -21 -112 -48t-144.5 -47.5t-178.5 -51.5t-161 -47q-14 -5 -32 -5q-27 0 -45 14t-18 35q0 30 34 60zM1072 1846q35 32 125 115.5 t139.5 129t112 97t97.5 71.5q64 37 125 37q75 0 124.5 -52.5t49.5 -125.5q0 -52 -29 -100t-87 -82q-36 -21 -112 -48t-144.5 -47.5t-178.5 -51.5t-161 -47q-14 -5 -32 -5q-27 0 -45 14t-18 35q0 30 34 60zM768 -39q-80 0 -140 2.5t-135.5 12t-130.5 26.5t-111 47.5 t-91.5 72.5t-57.5 105.5t-22 142.5v856q0 77 23 139.5t60 104.5t93.5 73t113.5 48.5t130.5 27.5t134 13t133.5 3q68 0 125 -2.5t131 -12.5t132 -27t117.5 -48t99 -73t64.5 -105t25 -141v-856q0 -79 -23.5 -142t-60.5 -105t-95 -72.5t-114 -47.5t-132 -26.5t-134.5 -12.5 t-134.5 -3zM685 235h173v1127h-173v-1127z" />
<glyph unicode="&#x151;" horiz-adv-x="1457" d="M74 0zM338 1538q35 32 125 115.5t139.5 129t112 97t97.5 71.5q64 37 125 37q75 0 124.5 -52.5t49.5 -125.5q0 -52 -29 -100t-87 -82q-36 -21 -112 -48t-144.5 -47.5t-178.5 -51.5t-161 -47q-14 -5 -32 -5q-27 0 -45 14t-18 35q0 30 34 60zM1029 1538q35 32 125 115.5 t139.5 129t112 97t97.5 71.5q64 37 125 37q75 0 124.5 -52.5t49.5 -125.5q0 -52 -29 -100t-87 -82q-36 -21 -112 -48t-144.5 -47.5t-178.5 -51.5t-161 -47q-14 -5 -32 -5q-27 0 -45 14t-18 35q0 30 34 60zM732 -30q-62 0 -107 1t-104 5t-101.5 11.5t-92 21.5t-84 33t-69 48 t-55 65t-33 85t-12.5 108v605q0 63 15.5 115.5t46 89.5t68 65.5t89.5 46.5t100.5 30t112 17.5t113.5 7.5t114 2q78 0 137.5 -2.5t130.5 -11.5t122.5 -25t103 -44t84 -67t52.5 -96t20 -129v-605q0 -77 -21.5 -137t-53 -99.5t-87 -67t-103.5 -41.5t-125 -21.5t-127.5 -9 t-133.5 -1.5zM645 228h166v877h-166v-877z" />
<glyph unicode="&#x152;" horiz-adv-x="1832" d="M678 232h114v1131h-114v-1131zM722 0v-1q-291 0 -443 61q-102 41 -144.5 109.5t-42.5 201.5v856q0 128 44 198t143 109q155 61 443 61h1046v-241h-344v-393h320v-250h-320v-467h344v-244h-1046z" />
<glyph unicode="&#x153;" horiz-adv-x="2136" d="M1350 825h151v226h-151v-226zM649 248h150v803h-150v-803zM1448 -28q-67 0 -121 5t-107.5 17.5t-90.5 38t-54 63.5l-1 -2q-85 -124 -363 -124q-101 0 -180 6t-163.5 25.5t-141.5 52.5t-95.5 91t-42.5 137q-3 45 -3 85v563q0 136 42.5 211.5t140.5 120.5q152 68 442 68 q301 0 364 -119q77 119 373 119q289 0 441 -68q171 -76 179 -246q2 -60 2 -85l-4 -311h-714v-371h151v305h567v-186q0 -135 -41.5 -210.5t-138.5 -118.5q-153 -67 -441 -67z" />
<glyph unicode="&#x154;" horiz-adv-x="1527" d="M92 0zM739 1846q35 32 125 115.5t139.5 129t112 97t97.5 71.5q64 37 125 37q75 0 124.5 -52.5t49.5 -125.5q0 -52 -29 -100t-87 -82q-36 -21 -112 -48t-144.5 -47.5t-178.5 -51.5t-161 -47q-14 -5 -32 -5q-27 0 -45 14t-18 35q0 30 34 60zM696 881h173v477h-173v-477z M1099 792l1 -6q200 -23 287.5 -115.5t87.5 -233.5v-437h-606v649h-173v-649h-604v1595h913q113 0 193.5 -19.5t141 -65.5t90 -125.5t29.5 -194.5q0 -71 -9 -124.5t-32.5 -102.5t-63.5 -82.5t-104 -56.5t-151 -32z" />
<glyph unicode="&#x155;" horiz-adv-x="981" d="M100 0zM483 1538q35 32 125 115.5t139.5 129t112 97t97.5 71.5q64 37 125 37q75 0 124.5 -52.5t49.5 -125.5q0 -52 -29 -100t-87 -82q-36 -21 -112 -48t-144.5 -47.5t-178.5 -51.5t-161 -47q-14 -5 -32 -5q-27 0 -45 14t-18 35q0 30 34 60zM100 0l1 1300h486l41 -147 q33 79 122 125t207 49v-378l-286 -56v-893h-571z" />
<glyph unicode="&#x156;" horiz-adv-x="1527" d="M92 0zM577 -302q0 94 60.5 147t143.5 53q103 0 156.5 -68t53.5 -172q0 -70 -23.5 -140.5t-66.5 -129.5t-110.5 -96t-146.5 -37q-22 0 -44 3v109q63 1 107.5 33.5t48.5 88.5q-75 8 -127 62.5t-52 146.5zM696 881h173v477h-173v-477zM1099 792l1 -6q200 -23 287.5 -115.5 t87.5 -233.5v-437h-606v649h-173v-649h-604v1595h913q113 0 193.5 -19.5t141 -65.5t90 -125.5t29.5 -194.5q0 -71 -9 -124.5t-32.5 -102.5t-63.5 -82.5t-104 -56.5t-151 -32z" />
<glyph unicode="&#x157;" horiz-adv-x="981" d="M100 0zM321 -302q0 94 60.5 147t143.5 53q103 0 156.5 -68t53.5 -172q0 -70 -23.5 -140.5t-66.5 -129.5t-110.5 -96t-146.5 -37q-22 0 -44 3v109q63 1 107.5 33.5t48.5 88.5q-75 8 -127 62.5t-52 146.5zM100 0l1 1300h486l41 -147q33 79 122 125t207 49v-378l-286 -56 v-893h-571z" />
<glyph unicode="&#x158;" horiz-adv-x="1527" d="M92 0zM641 1809l-263 409q-18 28 -18 52q0 27 19 44.5t47 17.5t54 -20l303 -235l303 235q28 22 57 22q27 0 45 -18t18 -45q0 -25 -18 -53l-263 -409q-47 -72 -141 -72q-43 0 -82 18.5t-61 53.5zM696 881h173v477h-173v-477zM1099 792l1 -6q200 -23 287.5 -115.5 t87.5 -233.5v-437h-606v649h-173v-649h-604v1595h913q113 0 193.5 -19.5t141 -65.5t90 -125.5t29.5 -194.5q0 -71 -9 -124.5t-32.5 -102.5t-63.5 -82.5t-104 -56.5t-151 -32z" />
<glyph unicode="&#x159;" horiz-adv-x="981" d="M100 0zM387 1501l-263 409q-18 28 -18 52q0 27 19 44.5t47 17.5t54 -20l303 -235l303 235q28 22 57 22q27 0 45 -18t18 -45q0 -25 -18 -53l-263 -409q-47 -72 -141 -72q-43 0 -82 18.5t-61 53.5zM100 0l1 1300h486l41 -147q33 79 122 125t207 49v-378l-286 -56v-893h-571 z" />
<glyph unicode="&#x15a;" horiz-adv-x="1451" d="M55 0zM689 1846q35 32 125 115.5t139.5 129t112 97t97.5 71.5q64 37 125 37q75 0 124.5 -52.5t49.5 -125.5q0 -52 -29 -100t-87 -82q-36 -21 -112 -48t-144.5 -47.5t-178.5 -51.5t-161 -47q-14 -5 -32 -5q-27 0 -45 14t-18 35q0 30 34 60zM632 1125l3 -2q0 -6 2.5 -12 t8 -10.5t11 -8t15 -7t16 -5.5t18 -4.5t17.5 -3.5l18 -3t16 -3q225 -40 323 -74q221 -76 293 -240q40 -89 40 -210q0 -173 -37.5 -285t-123 -178t-208 -92t-309.5 -26q-68 0 -122 2.5t-123.5 11.5t-122.5 25t-108.5 45t-93 68.5t-64.5 98.5t-34 133q-6 68 -6 143h573v-253 h173v250q0 19 -10 33.5t-32 26t-35 16.5t-41 14q-33 11 -86 26.5t-89.5 26.5t-86 28t-84.5 32.5t-76.5 39t-70 49t-57.5 60t-46 74t-27.5 90.5t-10.5 110q0 92 17 167t47 129t76.5 94.5t99 65.5t121 40.5t137 21.5t152.5 6q88 0 156.5 -4.5t137 -17t118.5 -34t94 -55.5 t71 -81.5t43 -113.5t16 -149h-536v178h-173v-233z" />
<glyph unicode="&#x15b;" horiz-adv-x="1414" d="M55 0zM664 1538q35 32 125 115.5t139.5 129t112 97t97.5 71.5q64 37 125 37q75 0 124.5 -52.5t49.5 -125.5q0 -52 -29 -100t-87 -82q-36 -21 -112 -48t-144.5 -47.5t-178.5 -51.5t-161 -47q-14 -5 -32 -5q-27 0 -45 14t-18 35q0 30 34 60zM792 446h1q-8 9 -44 14 q-19 3 -66.5 9t-74 9.5t-66 10t-72.5 13.5t-63 15q-74 20 -134.5 52t-111 78t-78.5 110.5t-28 142.5q0 77 18 139t49 106t79.5 76.5t102.5 52.5t125 32t140 16.5t155 4.5q70 0 120.5 -2t118.5 -10t116 -22.5t99 -42.5t82 -66t51.5 -96.5t20.5 -131.5q0 -69 -1 -84l-539 30 v161h-167v-202q9 -9 45 -15q27 -4 106 -15.5t134 -21.5t102 -23q72 -20 131.5 -49.5t110.5 -73t80 -106t29 -137.5q0 -76 -14.5 -138t-43 -107t-64 -79t-86.5 -56t-100 -36.5t-114 -21.5t-120 -9.5t-126 -2.5q-84 0 -145 3t-129 13.5t-114.5 29t-91.5 50.5t-71.5 76.5 t-42.5 108.5t-16 146q0 23 1 35l539 -32v-167h167v213z" />
<glyph unicode="&#x15e;" horiz-adv-x="1451" d="M55 0zM646 -23h177v-70q114 0 172 -34t58 -124v-95q0 -50 -19 -82.5t-56 -48.5t-78 -21.5t-100 -5.5q-126 0 -190 32.5t-64 125.5v56l227 28v-132h63v191h-190v180zM632 1125l3 -2q0 -6 2.5 -12t8 -10.5t11 -8t15 -7t16 -5.5t18 -4.5t17.5 -3.5l18 -3t16 -3 q225 -40 323 -74q221 -76 293 -240q40 -89 40 -210q0 -173 -37.5 -285t-123 -178t-208 -92t-309.5 -26q-68 0 -122 2.5t-123.5 11.5t-122.5 25t-108.5 45t-93 68.5t-64.5 98.5t-34 133q-6 68 -6 143h573v-253h173v250q0 19 -10 33.5t-32 26t-35 16.5t-41 14q-33 11 -86 26.5 t-89.5 26.5t-86 28t-84.5 32.5t-76.5 39t-70 49t-57.5 60t-46 74t-27.5 90.5t-10.5 110q0 92 17 167t47 129t76.5 94.5t99 65.5t121 40.5t137 21.5t152.5 6q88 0 156.5 -4.5t137 -17t118.5 -34t94 -55.5t71 -81.5t43 -113.5t16 -149h-536v178h-173v-233z" />
<glyph unicode="&#x15f;" horiz-adv-x="1414" d="M55 0zM620 -14h177v-70q114 0 172 -34t58 -124v-95q0 -50 -19 -82.5t-56 -48.5t-78 -21.5t-100 -5.5q-126 0 -190 32.5t-64 125.5v56l227 28v-132h63v191h-190v180zM792 446h1q-8 9 -44 14q-19 3 -66.5 9t-74 9.5t-66 10t-72.5 13.5t-63 15q-74 20 -134.5 52t-111 78 t-78.5 110.5t-28 142.5q0 77 18 139t49 106t79.5 76.5t102.5 52.5t125 32t140 16.5t155 4.5q70 0 120.5 -2t118.5 -10t116 -22.5t99 -42.5t82 -66t51.5 -96.5t20.5 -131.5q0 -69 -1 -84l-539 30v161h-167v-202q9 -9 45 -15q27 -4 106 -15.5t134 -21.5t102 -23 q72 -20 131.5 -49.5t110.5 -73t80 -106t29 -137.5q0 -76 -14.5 -138t-43 -107t-64 -79t-86.5 -56t-100 -36.5t-114 -21.5t-120 -9.5t-126 -2.5q-84 0 -145 3t-129 13.5t-114.5 29t-91.5 50.5t-71.5 76.5t-42.5 108.5t-16 146q0 23 1 35l539 -32v-167h167v213z" />
<glyph unicode="&#x160;" horiz-adv-x="1451" d="M55 0zM592 1809l-263 409q-18 28 -18 52q0 27 19 44.5t47 17.5t54 -20l303 -235l303 235q28 22 57 22q27 0 45 -18t18 -45q0 -25 -18 -53l-263 -409q-47 -72 -141 -72q-43 0 -82 18.5t-61 53.5zM632 1125l3 -2q0 -6 2.5 -12t8 -10.5t11 -8t15 -7t16 -5.5t18 -4.5 t17.5 -3.5l18 -3t16 -3q225 -40 323 -74q221 -76 293 -240q40 -89 40 -210q0 -173 -37.5 -285t-123 -178t-208 -92t-309.5 -26q-68 0 -122 2.5t-123.5 11.5t-122.5 25t-108.5 45t-93 68.5t-64.5 98.5t-34 133q-6 68 -6 143h573v-253h173v250q0 19 -10 33.5t-32 26t-35 16.5 t-41 14q-33 11 -86 26.5t-89.5 26.5t-86 28t-84.5 32.5t-76.5 39t-70 49t-57.5 60t-46 74t-27.5 90.5t-10.5 110q0 92 17 167t47 129t76.5 94.5t99 65.5t121 40.5t137 21.5t152.5 6q88 0 156.5 -4.5t137 -17t118.5 -34t94 -55.5t71 -81.5t43 -113.5t16 -149h-536v178h-173 v-233z" />
<glyph unicode="&#x161;" horiz-adv-x="1414" d="M55 0zM567 1501l-263 409q-18 28 -18 52q0 27 19 44.5t47 17.5t54 -20l303 -235l303 235q28 22 57 22q27 0 45 -18t18 -45q0 -25 -18 -53l-263 -409q-47 -72 -141 -72q-43 0 -82 18.5t-61 53.5zM792 446h1q-8 9 -44 14q-19 3 -66.5 9t-74 9.5t-66 10t-72.5 13.5t-63 15 q-74 20 -134.5 52t-111 78t-78.5 110.5t-28 142.5q0 77 18 139t49 106t79.5 76.5t102.5 52.5t125 32t140 16.5t155 4.5q70 0 120.5 -2t118.5 -10t116 -22.5t99 -42.5t82 -66t51.5 -96.5t20.5 -131.5q0 -69 -1 -84l-539 30v161h-167v-202q9 -9 45 -15q27 -4 106 -15.5 t134 -21.5t102 -23q72 -20 131.5 -49.5t110.5 -73t80 -106t29 -137.5q0 -76 -14.5 -138t-43 -107t-64 -79t-86.5 -56t-100 -36.5t-114 -21.5t-120 -9.5t-126 -2.5q-84 0 -145 3t-129 13.5t-114.5 29t-91.5 50.5t-71.5 76.5t-42.5 108.5t-16 146q0 23 1 35l539 -32v-167h167 v213z" />
<glyph unicode="&#x15d;" horiz-adv-x="1414" d="M55 0zM304 1545l263 409q22 35 61 53.5t82 18.5q94 0 141 -72l263 -409q18 -29 18 -53q0 -27 -18 -45t-45 -18q-29 0 -57 22l-303 235l-303 -235q-26 -20 -54 -20t-47 17.5t-19 44.5q0 23 18 52zM792 446h1q-8 9 -44 14q-19 3 -66.5 9t-74 9.5t-66 10t-72.5 13.5t-63 15 q-74 20 -134.5 52t-111 78t-78.5 110.5t-28 142.5q0 77 18 139t49 106t79.5 76.5t102.5 52.5t125 32t140 16.5t155 4.5q70 0 120.5 -2t118.5 -10t116 -22.5t99 -42.5t82 -66t51.5 -96.5t20.5 -131.5q0 -69 -1 -84l-539 30v161h-167v-202q9 -9 45 -15q27 -4 106 -15.5 t134 -21.5t102 -23q72 -20 131.5 -49.5t110.5 -73t80 -106t29 -137.5q0 -76 -14.5 -138t-43 -107t-64 -79t-86.5 -56t-100 -36.5t-114 -21.5t-120 -9.5t-126 -2.5q-84 0 -145 3t-129 13.5t-114.5 29t-91.5 50.5t-71.5 76.5t-42.5 108.5t-16 146q0 23 1 35l539 -32v-167h167 v213z" />
<glyph unicode="&#x162;" horiz-adv-x="1319" d="M3 0zM571 16h177v-70q114 0 172 -34t58 -124v-95q0 -50 -19 -82.5t-56 -48.5t-78 -21.5t-100 -5.5q-126 0 -190 32.5t-64 125.5v56l227 28v-132h63v191h-190v180zM1316 1595v-269h-356v-1326h-604v1326h-353v269h1313z" />
<glyph unicode="&#x163;" horiz-adv-x="944" d="M0 0zM362 -9h177v-70q114 0 172 -34t58 -124v-95q0 -50 -19 -82.5t-56 -48.5t-78 -21.5t-100 -5.5q-126 0 -190 32.5t-64 125.5v56l227 28v-132h63v191h-190v180zM906 -7l-6 -1t-17 -2.5t-25.5 -3.5t-33.5 -4t-39 -3.5t-43.5 -2.5t-46.5 -1q-108 0 -184.5 6t-143 22 t-108.5 43t-72 70t-43 102.5t-13 140.5v741h-137v200h137v295h571v-295h159v-200h-159v-772q0 -31 16 -52.5t46 -32.5t63.5 -15.5t78.5 -4.5v-230z" />
<glyph unicode="&#x164;" horiz-adv-x="1319" d="M3 0zM517 1809l-263 409q-18 28 -18 52q0 27 19 44.5t47 17.5t54 -20l303 -235l303 235q28 22 57 22q27 0 45 -18t18 -45q0 -25 -18 -53l-263 -409q-47 -72 -141 -72q-43 0 -82 18.5t-61 53.5zM1316 1595v-269h-356v-1326h-604v1326h-353v269h1313z" />
<glyph unicode="&#x165;" horiz-adv-x="944" d="M0 0zM1059 1395q0 94 60.5 147t143.5 53q103 0 156.5 -68t53.5 -172q0 -70 -23.5 -140.5t-66.5 -129.5t-110.5 -96t-146.5 -37q-22 0 -44 3v109q63 1 107.5 33.5t48.5 88.5q-75 8 -127 62.5t-52 146.5zM906 -7l-6 -1t-17 -2.5t-25.5 -3.5t-33.5 -4t-39 -3.5t-43.5 -2.5 t-46.5 -1q-108 0 -184.5 6t-143 22t-108.5 43t-72 70t-43 102.5t-13 140.5v741h-137v200h137v295h571v-295h159v-200h-159v-772q0 -31 16 -52.5t46 -32.5t63.5 -15.5t78.5 -4.5v-230z" />
<glyph unicode="&#x168;" horiz-adv-x="1552" d="M85 0zM1416 1763h-293q0 70 -26.5 117t-83.5 47q-20 0 -41.5 -9.5t-30.5 -15.5t-31 -24q-86 -69 -167 -105t-200 -36q-171 0 -258 75t-122 231q-27 94 -27 245h296q0 -73 26 -120.5t86 -47.5q7 0 14 1t14 3t12.5 3.5t13 6t11 6.5t12 7.5t10.5 7t11 8t10 7.5q53 39 76 54 t72.5 41.5t99.5 37t110 10.5q76 0 135.5 -12.5t102.5 -35t73 -60t48.5 -79.5t29 -102.5t14 -120t3.5 -140.5zM689 234h173v1360h605v-1224q0 -78 -23.5 -140.5t-60.5 -104.5t-94.5 -73t-114.5 -48t-131.5 -27t-134.5 -13t-134 -3q-69 0 -126 2.5t-131 12.5t-131.5 27 t-116 48t-97 73t-63 105.5t-24.5 141.5v1224h604v-1361z" />
<glyph unicode="&#x169;" horiz-adv-x="1490" d="M84 0zM1379 1455h-293q0 70 -26.5 117t-83.5 47q-20 0 -41.5 -9.5t-30.5 -15.5t-31 -24q-86 -69 -167 -105t-200 -36q-171 0 -258 75t-122 231q-27 94 -27 245h296q0 -73 26 -120.5t86 -47.5q7 0 14 1t14 3t12.5 3.5t13 6t11 6.5t12 7.5t10.5 7t11 8t10 7.5q53 39 76 54 t72.5 41.5t99.5 37t110 10.5q76 0 135.5 -12.5t102.5 -35t73 -60t48.5 -79.5t29 -102.5t14 -120t3.5 -140.5zM508 -30q-205 0 -314.5 97.5t-109.5 292.5v940h572v-1067h166v1067h572v-1300h-517l-37 112q-40 -65 -133 -103.5t-199 -38.5z" />
<glyph unicode="&#x16a;" horiz-adv-x="1552" d="M85 0zM1192 1968v-231h-833v231h833zM689 234h173v1360h605v-1224q0 -78 -23.5 -140.5t-60.5 -104.5t-94.5 -73t-114.5 -48t-131.5 -27t-134.5 -13t-134 -3q-69 0 -126 2.5t-131 12.5t-131.5 27t-116 48t-97 73t-63 105.5t-24.5 141.5v1224h604v-1361z" />
<glyph unicode="&#x16b;" horiz-adv-x="1490" d="M84 0zM1156 1660v-231h-833v231h833zM508 -30q-205 0 -314.5 97.5t-109.5 292.5v940h572v-1067h166v1067h572v-1300h-517l-37 112q-40 -65 -133 -103.5t-199 -38.5z" />
<glyph unicode="&#x16c;" horiz-adv-x="1552" d="M85 0zM776 1737q-112 0 -194.5 23.5t-133.5 63.5t-81.5 103t-41.5 131.5t-11 159.5h297q0 -48 4 -74.5t19.5 -53.5t50 -38.5t91.5 -11.5t91.5 11.5t50 38.5t19.5 53.5t4 74.5h297q0 -91 -11 -159.5t-41.5 -131.5t-81.5 -103t-133.5 -63.5t-194.5 -23.5zM689 234h173v1360 h605v-1224q0 -78 -23.5 -140.5t-60.5 -104.5t-94.5 -73t-114.5 -48t-131.5 -27t-134.5 -13t-134 -3q-69 0 -126 2.5t-131 12.5t-131.5 27t-116 48t-97 73t-63 105.5t-24.5 141.5v1224h604v-1361z" />
<glyph unicode="&#x16d;" horiz-adv-x="1490" d="M84 0zM739 1429q-112 0 -194.5 23.5t-133.5 63.5t-81.5 103t-41.5 131.5t-11 159.5h297q0 -48 4 -74.5t19.5 -53.5t50 -38.5t91.5 -11.5t91.5 11.5t50 38.5t19.5 53.5t4 74.5h297q0 -91 -11 -159.5t-41.5 -131.5t-81.5 -103t-133.5 -63.5t-194.5 -23.5zM508 -30 q-205 0 -314.5 97.5t-109.5 292.5v940h572v-1067h166v1067h572v-1300h-517l-37 112q-40 -65 -133 -103.5t-199 -38.5z" />
<glyph unicode="&#x16e;" horiz-adv-x="1552" d="M85 0zM774 2179q-52 0 -86.5 -34.5t-34.5 -87.5q0 -51 35 -86t86 -35q50 0 85.5 35.5t35.5 85.5q0 52 -35 87t-86 35zM1109 2057q0 -139 -95.5 -229.5t-237.5 -90.5q-109 0 -189 54.5t-118 140.5q-26 60 -26 125q0 141 95 231.5t238 90.5q109 0 189 -55t118 -141 q26 -60 26 -126zM689 234h173v1360h605v-1224q0 -78 -23.5 -140.5t-60.5 -104.5t-94.5 -73t-114.5 -48t-131.5 -27t-134.5 -13t-134 -3q-69 0 -126 2.5t-131 12.5t-131.5 27t-116 48t-97 73t-63 105.5t-24.5 141.5v1224h604v-1361z" />
<glyph unicode="&#x16f;" horiz-adv-x="1490" d="M84 0zM737 1871q-52 0 -86.5 -34.5t-34.5 -87.5q0 -51 35 -86t86 -35q50 0 85.5 35.5t35.5 85.5q0 52 -35 87t-86 35zM1072 1749q0 -139 -95.5 -229.5t-237.5 -90.5q-109 0 -189 54.5t-118 140.5q-26 60 -26 125q0 141 95 231.5t238 90.5q109 0 189 -55t118 -141 q26 -60 26 -126zM508 -30q-205 0 -314.5 97.5t-109.5 292.5v940h572v-1067h166v1067h572v-1300h-517l-37 112q-40 -65 -133 -103.5t-199 -38.5z" />
<glyph unicode="&#x170;" horiz-adv-x="1552" d="M85 0zM385 1846q35 32 125 115.5t139.5 129t112 97t97.5 71.5q64 37 125 37q75 0 124.5 -52.5t49.5 -125.5q0 -52 -29 -100t-87 -82q-36 -21 -112 -48t-144.5 -47.5t-178.5 -51.5t-161 -47q-14 -5 -32 -5q-27 0 -45 14t-18 35q0 30 34 60zM1076 1846q35 32 125 115.5 t139.5 129t112 97t97.5 71.5q64 37 125 37q75 0 124.5 -52.5t49.5 -125.5q0 -52 -29 -100t-87 -82q-36 -21 -112 -48t-144.5 -47.5t-178.5 -51.5t-161 -47q-14 -5 -32 -5q-27 0 -45 14t-18 35q0 30 34 60zM689 234h173v1360h605v-1224q0 -78 -23.5 -140.5t-60.5 -104.5 t-94.5 -73t-114.5 -48t-131.5 -27t-134.5 -13t-134 -3q-69 0 -126 2.5t-131 12.5t-131.5 27t-116 48t-97 73t-63 105.5t-24.5 141.5v1224h604v-1361z" />
<glyph unicode="&#x171;" horiz-adv-x="1490" d="M84 0zM349 1538q35 32 125 115.5t139.5 129t112 97t97.5 71.5q64 37 125 37q75 0 124.5 -52.5t49.5 -125.5q0 -52 -29 -100t-87 -82q-36 -21 -112 -48t-144.5 -47.5t-178.5 -51.5t-161 -47q-14 -5 -32 -5q-27 0 -45 14t-18 35q0 30 34 60zM1040 1538q35 32 125 115.5 t139.5 129t112 97t97.5 71.5q64 37 125 37q75 0 124.5 -52.5t49.5 -125.5q0 -52 -29 -100t-87 -82q-36 -21 -112 -48t-144.5 -47.5t-178.5 -51.5t-161 -47q-14 -5 -32 -5q-27 0 -45 14t-18 35q0 30 34 60zM508 -30q-205 0 -314.5 97.5t-109.5 292.5v940h572v-1067h166v1067 h572v-1300h-517l-37 112q-40 -65 -133 -103.5t-199 -38.5z" />
<glyph unicode="&#x172;" horiz-adv-x="1552" d="M85 0zM929 44l71 -72q-51 -34 -80.5 -86.5t-29.5 -102.5t31.5 -82t93.5 -32q57 0 135 29v-315q-108 -41 -201 -41q-150 0 -240 92t-90 222q0 117 78 222.5t232 165.5zM689 234h173v1360h605v-1224q0 -78 -23.5 -140.5t-60.5 -104.5t-94.5 -73t-114.5 -48t-131.5 -27 t-134.5 -13t-134 -3q-69 0 -126 2.5t-131 12.5t-131.5 27t-116 48t-97 73t-63 105.5t-24.5 141.5v1224h604v-1361z" />
<glyph unicode="&#x173;" horiz-adv-x="1490" d="M84 0zM1013 71l71 -72q-51 -34 -80.5 -86.5t-29.5 -102.5t31.5 -82t93.5 -32q57 0 135 29v-315q-108 -41 -201 -41q-150 0 -240 92t-90 222q0 117 78 222.5t232 165.5zM508 -30q-205 0 -314.5 97.5t-109.5 292.5v940h572v-1067h166v1067h572v-1300h-517l-37 112 q-40 -65 -133 -103.5t-199 -38.5z" />
<glyph unicode="&#x178;" horiz-adv-x="1486" d="M0 0zM1310 2073v-336h-451v336h451zM626 2073v-336h-450v336h450zM738 955h9l186 640h556l-442 -1066v-529h-605v539l-445 1056h560z" />
<glyph unicode="&#x179;" horiz-adv-x="1108" d="M49 0zM511 1846q35 32 125 115.5t139.5 129t112 97t97.5 71.5q64 37 125 37q75 0 124.5 -52.5t49.5 -125.5q0 -52 -29 -100t-87 -82q-36 -21 -112 -48t-144.5 -47.5t-178.5 -51.5t-161 -47q-14 -5 -32 -5q-27 0 -45 14t-18 35q0 30 34 60zM1013 1595l-7 -253l-294 -1048 h351l-10 -294h-952v266l320 1038h-356l-16 291h964z" />
<glyph unicode="&#x17a;" horiz-adv-x="1080" d="M57 0zM510 1538q35 32 125 115.5t139.5 129t112 97t97.5 71.5q64 37 125 37q75 0 124.5 -52.5t49.5 -125.5q0 -52 -29 -100t-87 -82q-36 -21 -112 -48t-144.5 -47.5t-178.5 -51.5t-161 -47q-14 -5 -32 -5q-27 0 -45 14t-18 35q0 30 34 60zM77 1300h938l23 -221l-356 -833 h371l-15 -246h-957l-24 233l365 818h-334z" />
<glyph unicode="&#x17b;" horiz-adv-x="1108" d="M49 0zM352 1947q0 99 60.5 154.5t143.5 55.5t143.5 -55.5t60.5 -154.5t-60.5 -154.5t-143.5 -55.5t-143.5 55.5t-60.5 154.5zM1013 1595l-7 -253l-294 -1048h351l-10 -294h-952v266l320 1038h-356l-16 291h964z" />
<glyph unicode="&#x17c;" horiz-adv-x="1080" d="M57 0zM351 1639q0 99 60.5 154.5t143.5 55.5t143.5 -55.5t60.5 -154.5t-60.5 -154.5t-143.5 -55.5t-143.5 55.5t-60.5 154.5zM77 1300h938l23 -221l-356 -833h371l-15 -246h-957l-24 233l365 818h-334z" />
<glyph unicode="&#x17d;" horiz-adv-x="1108" d="M49 0zM414 1809l-263 409q-18 28 -18 52q0 27 19 44.5t47 17.5t54 -20l303 -235l303 235q28 22 57 22q27 0 45 -18t18 -45q0 -25 -18 -53l-263 -409q-47 -72 -141 -72q-43 0 -82 18.5t-61 53.5zM1013 1595l-7 -253l-294 -1048h351l-10 -294h-952v266l320 1038h-356 l-16 291h964z" />
<glyph unicode="&#x17e;" horiz-adv-x="1080" d="M57 0zM413 1501l-263 409q-18 28 -18 52q0 27 19 44.5t47 17.5t54 -20l303 -235l303 235q28 22 57 22q27 0 45 -18t18 -45q0 -25 -18 -53l-263 -409q-47 -72 -141 -72q-43 0 -82 18.5t-61 53.5zM77 1300h938l23 -221l-356 -833h371l-15 -246h-957l-24 233l365 818h-334z " />
<glyph unicode="&#x1c4;" horiz-adv-x="2662" d="M92 0zM1603 0zM1968 1809l-263 409q-18 28 -18 52q0 27 19 44.5t47 17.5t54 -20l303 -235l303 235q28 22 57 22q27 0 45 -18t18 -45q0 -25 -18 -53l-263 -409q-47 -72 -141 -72q-43 0 -82 18.5t-61 53.5zM2567 1595l-7 -253l-294 -1048h351l-10 -294h-952v266l320 1038 h-356l-16 291h964zM1474 1204v-811q0 -67 -13.5 -122t-41 -94.5t-61 -69t-81.5 -48.5t-93.5 -31.5t-107 -18t-111.5 -7.5t-117 -2h-756v1595h756q76 0 135 -3t127 -12.5t118 -26.5t98.5 -46.5t79 -70t49.5 -99.5t19 -133zM697 235h173v1123h-173v-1123z" />
<glyph unicode="&#x1c5;" horiz-adv-x="2634" d="M92 0zM1611 0zM1967 1501l-263 409q-18 28 -18 52q0 27 19 44.5t47 17.5t54 -20l303 -235l303 235q28 22 57 22q27 0 45 -18t18 -45q0 -25 -18 -53l-263 -409q-47 -72 -141 -72q-43 0 -82 18.5t-61 53.5zM1631 1300h938l23 -221l-356 -833h371l-15 -246h-957l-24 233 l365 818h-334zM1474 1204v-811q0 -67 -13.5 -122t-41 -94.5t-61 -69t-81.5 -48.5t-93.5 -31.5t-107 -18t-111.5 -7.5t-117 -2h-756v1595h756q76 0 135 -3t127 -12.5t118 -26.5t98.5 -46.5t79 -70t49.5 -99.5t19 -133zM697 235h173v1123h-173v-1123z" />
<glyph unicode="&#x1c6;" horiz-adv-x="2551" d="M74 0zM1528 0zM1884 1501l-263 409q-18 28 -18 52q0 27 19 44.5t47 17.5t54 -20l303 -235l303 235q28 22 57 22q27 0 45 -18t18 -45q0 -25 -18 -53l-263 -409q-47 -72 -141 -72q-43 0 -82 18.5t-61 53.5zM1548 1300h938l23 -221l-356 -833h371l-15 -246h-957l-24 233 l365 818h-334zM811 1105h-167v-906h167v906zM489 1327q226 0 323 -112v495h571v-1710h-520l-37 114q-47 -66 -136.5 -105t-198.5 -39q-417 0 -417 407v563q0 387 415 387z" />
<glyph unicode="&#x1c9;" horiz-adv-x="1587" d="M105 0zM1497 1709v-284h-572v284h572zM1497 94q0 -216 -117 -318t-344 -102q-164 0 -270 21l-30 239h189v1366h572v-1206zM676 0h-571v1710h571v-1710z" />
<glyph unicode="&#x1cc;" horiz-adv-x="2316" d="M96 0zM2226 1709v-284h-572v284h572zM2226 94q0 -216 -117 -318t-344 -102q-164 0 -270 21l-30 239h189v1366h572v-1206zM984 1327q205 -1 313 -98t108 -285v-944h-571v1105h-167v-1105h-571v1300h510l37 -112q45 63 137 101t204 38z" />
<glyph unicode="&#x1f1;" horiz-adv-x="2662" d="M92 0zM2567 1595l-7 -253l-294 -1048h351l-10 -294h-952v266l320 1038h-356l-16 291h964zM1474 1204v-811q0 -67 -13.5 -122t-41 -94.5t-61 -69t-81.5 -48.5t-93.5 -31.5t-107 -18t-111.5 -7.5t-117 -2h-756v1595h756q76 0 135 -3t127 -12.5t118 -26.5t98.5 -46.5t79 -70 t49.5 -99.5t19 -133zM697 235h173v1123h-173v-1123z" />
<glyph unicode="&#x1f2;" horiz-adv-x="2634" d="M92 0zM1631 1300h938l23 -221l-356 -833h371l-15 -246h-957l-24 233l365 818h-334zM1474 1204v-811q0 -67 -13.5 -122t-41 -94.5t-61 -69t-81.5 -48.5t-93.5 -31.5t-107 -18t-111.5 -7.5t-117 -2h-756v1595h756q76 0 135 -3t127 -12.5t118 -26.5t98.5 -46.5t79 -70 t49.5 -99.5t19 -133zM697 235h173v1123h-173v-1123z" />
<glyph unicode="&#x1f3;" horiz-adv-x="2551" d="M74 0zM1548 1300h938l23 -221l-356 -833h371l-15 -246h-957l-24 233l365 818h-334zM811 1105h-167v-906h167v906zM489 1327q226 0 323 -112v495h571v-1710h-520l-37 114q-47 -66 -136.5 -105t-198.5 -39q-417 0 -417 407v563q0 387 415 387z" />
<glyph unicode="&#x1f4;" horiz-adv-x="1540" d="M80 0zM726 1847q35 32 125 115.5t139.5 129t112 97t97.5 71.5q64 37 125 37q75 0 124.5 -52.5t49.5 -125.5q0 -52 -29 -100t-87 -82q-36 -21 -112 -48t-144.5 -47.5t-178.5 -51.5t-161 -47q-14 -5 -32 -5q-27 0 -45 14t-18 35q0 30 34 60zM901 124q-100 -163 -351 -163 q-98 0 -181.5 24t-149 71t-102.5 125t-37 178v869q0 78 23 140.5t60.5 104.5t94.5 72.5t114 47.5t131.5 27t134 13t134.5 3q64 0 122 -3.5t130 -14t131 -28t118 -49t99 -73t65 -103.5t25 -138v-248h-605v379h-173v-1123h173v303h-85v231h690v-769h-487z" />
<glyph unicode="&#x1f5;" horiz-adv-x="1463" d="M74 0zM683 1538q35 32 125 115.5t139.5 129t112 97t97.5 71.5q64 37 125 37q75 0 124.5 -52.5t49.5 -125.5q0 -52 -29 -100t-87 -82q-36 -21 -112 -48t-144.5 -47.5t-178.5 -51.5t-161 -47q-14 -5 -32 -5q-27 0 -45 14t-18 35q0 30 34 60zM812 1104h-167v-788h167v788z M497 1327q236 -2 339 -140l36 112h511v-1063q0 -314 -174.5 -461t-544.5 -147q-256 0 -477 61l57 291q141 -39 346 -39q173 0 235 37v227q-45 -57 -133 -85.5t-198 -28.5q-420 0 -420 391v445q0 400 423 400z" />
<glyph unicode="&#x200;" horiz-adv-x="1550" d="M0 0zM1165 1846q34 -30 34 -60q0 -21 -18 -35t-45 -14q-18 0 -32 5q-51 16 -161 47t-178.5 51.5t-144.5 47.5t-112 48q-58 34 -87 82t-29 100q0 73 49.5 125.5t124.5 52.5q61 0 125 -37q35 -20 97.5 -71.5t112 -97t139.5 -129t125 -115.5zM474 1846q34 -30 34 -60 q0 -21 -18 -35t-45 -14q-18 0 -32 5q-51 16 -161 47t-178.5 51.5t-144.5 47.5t-112 48q-58 34 -87 82t-29 100q0 73 49.5 125.5t124.5 52.5q61 0 125 -37q35 -20 97.5 -71.5t112 -97t139.5 -129t125 -115.5zM782 1283h-19l-77 -707h178zM668 366l-55 -366h-586l292 1595h907 l297 -1595h-587l-54 366h-214z" />
<glyph unicode="&#x201;" d="M0 0zM1116 1538q34 -30 34 -60q0 -21 -18 -35t-45 -14q-18 0 -32 5q-51 16 -161 47t-178.5 51.5t-144.5 47.5t-112 48q-58 34 -87 82t-29 100q0 73 49.5 125.5t124.5 52.5q61 0 125 -37q35 -20 97.5 -71.5t112 -97t139.5 -129t125 -115.5zM425 1538q34 -30 34 -60 q0 -21 -18 -35t-45 -14q-18 0 -32 5q-51 16 -161 47t-178.5 51.5t-144.5 47.5t-112 48q-58 34 -87 82t-29 100q0 73 49.5 125.5t124.5 52.5q61 0 125 -37q35 -20 97.5 -71.5t112 -97t139.5 -129t125 -115.5zM629 653v-453h166v453h-166zM1365 257q1 -128 29 -256h-520 l-56 138q-48 -79 -134.5 -124t-205.5 -45q-213 0 -317 103.5t-104 314.5q0 225 118 330.5t354 105.5q141 0 266 -41v323h-139v-191l-525 -20q-11 64 -11 110q0 62 21.5 112t56 83t86.5 57t102 37.5t115 21t114 9.5t109 2q58 0 103 -1t101 -5.5t99 -12.5t90.5 -22t82 -33 t67 -47.5t53 -64.5t33 -84t12.5 -105v-695z" />
<glyph unicode="&#x202;" horiz-adv-x="1550" d="M27 0zM775 2218q112 0 194.5 -23.5t133.5 -63.5t81.5 -103t41.5 -131.5t11 -159.5h-297q0 48 -4 74.5t-19.5 53.5t-50 38.5t-91.5 11.5t-91.5 -11.5t-50 -38.5t-19.5 -53.5t-4 -74.5h-297q0 91 11 159.5t41.5 131.5t81.5 103t133.5 63.5t194.5 23.5zM782 1283h-19 l-77 -707h178zM668 366l-55 -366h-586l292 1595h907l297 -1595h-587l-54 366h-214z" />
<glyph unicode="&#x203;" d="M57 0zM725 1910q112 0 194.5 -23.5t133.5 -63.5t81.5 -103t41.5 -131.5t11 -159.5h-297q0 48 -4 74.5t-19.5 53.5t-50 38.5t-91.5 11.5t-91.5 -11.5t-50 -38.5t-19.5 -53.5t-4 -74.5h-297q0 91 11 159.5t41.5 131.5t81.5 103t133.5 63.5t194.5 23.5zM629 653v-453h166 v453h-166zM1365 257q1 -128 29 -256h-520l-56 138q-48 -79 -134.5 -124t-205.5 -45q-213 0 -317 103.5t-104 314.5q0 225 118 330.5t354 105.5q141 0 266 -41v323h-139v-191l-525 -20q-11 64 -11 110q0 62 21.5 112t56 83t86.5 57t102 37.5t115 21t114 9.5t109 2 q58 0 103 -1t101 -5.5t99 -12.5t90.5 -22t82 -33t67 -47.5t53 -64.5t33 -84t12.5 -105v-695z" />
<glyph unicode="&#x204;" horiz-adv-x="1096" d="M0 0zM955 1846q34 -30 34 -60q0 -21 -18 -35t-45 -14q-18 0 -32 5q-51 16 -161 47t-178.5 51.5t-144.5 47.5t-112 48q-58 34 -87 82t-29 100q0 73 49.5 125.5t124.5 52.5q61 0 125 -37q35 -20 97.5 -71.5t112 -97t139.5 -129t125 -115.5zM264 1846q34 -30 34 -60 q0 -21 -18 -35t-45 -14q-18 0 -32 5q-51 16 -161 47t-178.5 51.5t-144.5 47.5t-112 48q-58 34 -87 82t-29 100q0 73 49.5 125.5t124.5 52.5q61 0 125 -37q35 -20 97.5 -71.5t112 -97t139.5 -129t125 -115.5zM1037 1595v-249h-341v-385h318v-250h-318v-460h341v-251h-945 v1595h945z" />
<glyph unicode="&#x205;" d="M0 0zM1123 1538q34 -30 34 -60q0 -21 -18 -35t-45 -14q-18 0 -32 5q-51 16 -161 47t-178.5 51.5t-144.5 47.5t-112 48q-58 34 -87 82t-29 100q0 73 49.5 125.5t124.5 52.5q61 0 125 -37q35 -20 97.5 -71.5t112 -97t139.5 -129t125 -115.5zM432 1538q34 -30 34 -60 q0 -21 -18 -35t-45 -14q-18 0 -32 5q-51 16 -161 47t-178.5 51.5t-144.5 47.5t-112 48q-58 34 -87 82t-29 100q0 73 49.5 125.5t124.5 52.5q61 0 125 -37q35 -20 97.5 -71.5t112 -97t139.5 -129t125 -115.5zM646 777h168v328h-168v-328zM1384 483q8 -61 8 -103 q0 -224 -159.5 -317t-501.5 -93q-59 0 -103 1t-102 5.5t-101 12t-92.5 21.5t-85 33.5t-70 48.5t-56 65.5t-34.5 86.5t-13 109v600q0 73 22 131.5t56.5 97t90 66.5t108 43t124.5 23.5t126.5 10.5t127.5 2q57 0 100 -1t100.5 -5t100 -11.5t92.5 -21t86 -32.5t71 -47.5 t56.5 -64t35 -84t13.5 -106.5v-350h-738v-405h167v284h571z" />
<glyph unicode="&#x206;" horiz-adv-x="1096" d="M92 0zM565 2218q112 0 194.5 -23.5t133.5 -63.5t81.5 -103t41.5 -131.5t11 -159.5h-297q0 48 -4 74.5t-19.5 53.5t-50 38.5t-91.5 11.5t-91.5 -11.5t-50 -38.5t-19.5 -53.5t-4 -74.5h-297q0 91 11 159.5t41.5 131.5t81.5 103t133.5 63.5t194.5 23.5zM1037 1595v-249h-341 v-385h318v-250h-318v-460h341v-251h-945v1595h945z" />
<glyph unicode="&#x207;" d="M74 0zM733 1910q112 0 194.5 -23.5t133.5 -63.5t81.5 -103t41.5 -131.5t11 -159.5h-297q0 48 -4 74.5t-19.5 53.5t-50 38.5t-91.5 11.5t-91.5 -11.5t-50 -38.5t-19.5 -53.5t-4 -74.5h-297q0 91 11 159.5t41.5 131.5t81.5 103t133.5 63.5t194.5 23.5zM646 777h168v328 h-168v-328zM1384 483q8 -61 8 -103q0 -224 -159.5 -317t-501.5 -93q-59 0 -103 1t-102 5.5t-101 12t-92.5 21.5t-85 33.5t-70 48.5t-56 65.5t-34.5 86.5t-13 109v600q0 73 22 131.5t56.5 97t90 66.5t108 43t124.5 23.5t126.5 10.5t127.5 2q57 0 100 -1t100.5 -5t100 -11.5 t92.5 -21t86 -32.5t71 -47.5t56.5 -64t35 -84t13.5 -106.5v-350h-738v-405h167v284h571z" />
<glyph unicode="&#x208;" horiz-adv-x="788" d="M0 0zM785 1846q34 -30 34 -60q0 -21 -18 -35t-45 -14q-18 0 -32 5q-51 16 -161 47t-178.5 51.5t-144.5 47.5t-112 48q-58 34 -87 82t-29 100q0 73 49.5 125.5t124.5 52.5q61 0 125 -37q35 -20 97.5 -71.5t112 -97t139.5 -129t125 -115.5zM94 1846q34 -30 34 -60 q0 -21 -18 -35t-45 -14q-18 0 -32 5q-51 16 -161 47t-178.5 51.5t-144.5 47.5t-112 48q-58 34 -87 82t-29 100q0 73 49.5 125.5t124.5 52.5q61 0 125 -37q35 -20 97.5 -71.5t112 -97t139.5 -129t125 -115.5zM696 1595v-1595h-604v1595h604z" />
<glyph unicode="&#x209;" horiz-adv-x="744" d="M0 0zM775 1538q34 -30 34 -60q0 -21 -18 -35t-45 -14q-18 0 -32 5q-51 16 -161 47t-178.5 51.5t-144.5 47.5t-112 48q-58 34 -87 82t-29 100q0 73 49.5 125.5t124.5 52.5q61 0 125 -37q35 -20 97.5 -71.5t112 -97t139.5 -129t125 -115.5zM84 1538q34 -30 34 -60 q0 -21 -18 -35t-45 -14q-18 0 -32 5q-51 16 -161 47t-178.5 51.5t-144.5 47.5t-112 48q-58 34 -87 82t-29 100q0 73 49.5 125.5t124.5 52.5q61 0 125 -37q35 -20 97.5 -71.5t112 -97t139.5 -129t125 -115.5zM669 0h-569v1298h569v-1298z" />
<glyph unicode="&#x20a;" horiz-adv-x="788" d="M0 0zM394 2218q112 0 194.5 -23.5t133.5 -63.5t81.5 -103t41.5 -131.5t11 -159.5h-297q0 48 -4 74.5t-19.5 53.5t-50 38.5t-91.5 11.5t-91.5 -11.5t-50 -38.5t-19.5 -53.5t-4 -74.5h-297q0 91 11 159.5t41.5 131.5t81.5 103t133.5 63.5t194.5 23.5zM696 1595v-1595h-604 v1595h604z" />
<glyph unicode="&#x20b;" horiz-adv-x="744" d="M0 0zM385 1910q112 0 194.5 -23.5t133.5 -63.5t81.5 -103t41.5 -131.5t11 -159.5h-297q0 48 -4 74.5t-19.5 53.5t-50 38.5t-91.5 11.5t-91.5 -11.5t-50 -38.5t-19.5 -53.5t-4 -74.5h-297q0 91 11 159.5t41.5 131.5t81.5 103t133.5 63.5t194.5 23.5zM669 0h-569v1298h569 v-1298z" />
<glyph unicode="&#x20c;" horiz-adv-x="1542" d="M0 0zM1161 1846q34 -30 34 -60q0 -21 -18 -35t-45 -14q-18 0 -32 5q-51 16 -161 47t-178.5 51.5t-144.5 47.5t-112 48q-58 34 -87 82t-29 100q0 73 49.5 125.5t124.5 52.5q61 0 125 -37q35 -20 97.5 -71.5t112 -97t139.5 -129t125 -115.5zM470 1846q34 -30 34 -60 q0 -21 -18 -35t-45 -14q-18 0 -32 5q-51 16 -161 47t-178.5 51.5t-144.5 47.5t-112 48q-58 34 -87 82t-29 100q0 73 49.5 125.5t124.5 52.5q61 0 125 -37q35 -20 97.5 -71.5t112 -97t139.5 -129t125 -115.5zM768 -39q-80 0 -140 2.5t-135.5 12t-130.5 26.5t-111 47.5 t-91.5 72.5t-57.5 105.5t-22 142.5v856q0 77 23 139.5t60 104.5t93.5 73t113.5 48.5t130.5 27.5t134 13t133.5 3q68 0 125 -2.5t131 -12.5t132 -27t117.5 -48t99 -73t64.5 -105t25 -141v-856q0 -79 -23.5 -142t-60.5 -105t-95 -72.5t-114 -47.5t-132 -26.5t-134.5 -12.5 t-134.5 -3zM685 235h173v1127h-173v-1127z" />
<glyph unicode="&#x20d;" horiz-adv-x="1457" d="M0 0zM1119 1538q34 -30 34 -60q0 -21 -18 -35t-45 -14q-18 0 -32 5q-51 16 -161 47t-178.5 51.5t-144.5 47.5t-112 48q-58 34 -87 82t-29 100q0 73 49.5 125.5t124.5 52.5q61 0 125 -37q35 -20 97.5 -71.5t112 -97t139.5 -129t125 -115.5zM428 1538q34 -30 34 -60 q0 -21 -18 -35t-45 -14q-18 0 -32 5q-51 16 -161 47t-178.5 51.5t-144.5 47.5t-112 48q-58 34 -87 82t-29 100q0 73 49.5 125.5t124.5 52.5q61 0 125 -37q35 -20 97.5 -71.5t112 -97t139.5 -129t125 -115.5zM732 -30q-62 0 -107 1t-104 5t-101.5 11.5t-92 21.5t-84 33 t-69 48t-55 65t-33 85t-12.5 108v605q0 63 15.5 115.5t46 89.5t68 65.5t89.5 46.5t100.5 30t112 17.5t113.5 7.5t114 2q78 0 137.5 -2.5t130.5 -11.5t122.5 -25t103 -44t84 -67t52.5 -96t20 -129v-605q0 -77 -21.5 -137t-53 -99.5t-87 -67t-103.5 -41.5t-125 -21.5 t-127.5 -9t-133.5 -1.5zM645 228h166v877h-166v-877z" />
<glyph unicode="&#x20e;" horiz-adv-x="1542" d="M80 0zM771 2218q112 0 194.5 -23.5t133.5 -63.5t81.5 -103t41.5 -131.5t11 -159.5h-297q0 48 -4 74.5t-19.5 53.5t-50 38.5t-91.5 11.5t-91.5 -11.5t-50 -38.5t-19.5 -53.5t-4 -74.5h-297q0 91 11 159.5t41.5 131.5t81.5 103t133.5 63.5t194.5 23.5zM768 -39 q-80 0 -140 2.5t-135.5 12t-130.5 26.5t-111 47.5t-91.5 72.5t-57.5 105.5t-22 142.5v856q0 77 23 139.5t60 104.5t93.5 73t113.5 48.5t130.5 27.5t134 13t133.5 3q68 0 125 -2.5t131 -12.5t132 -27t117.5 -48t99 -73t64.5 -105t25 -141v-856q0 -79 -23.5 -142t-60.5 -105 t-95 -72.5t-114 -47.5t-132 -26.5t-134.5 -12.5t-134.5 -3zM685 235h173v1127h-173v-1127z" />
<glyph unicode="&#x20f;" horiz-adv-x="1457" d="M74 0zM729 1910q112 0 194.5 -23.5t133.5 -63.5t81.5 -103t41.5 -131.5t11 -159.5h-297q0 48 -4 74.5t-19.5 53.5t-50 38.5t-91.5 11.5t-91.5 -11.5t-50 -38.5t-19.5 -53.5t-4 -74.5h-297q0 91 11 159.5t41.5 131.5t81.5 103t133.5 63.5t194.5 23.5zM732 -30 q-62 0 -107 1t-104 5t-101.5 11.5t-92 21.5t-84 33t-69 48t-55 65t-33 85t-12.5 108v605q0 63 15.5 115.5t46 89.5t68 65.5t89.5 46.5t100.5 30t112 17.5t113.5 7.5t114 2q78 0 137.5 -2.5t130.5 -11.5t122.5 -25t103 -44t84 -67t52.5 -96t20 -129v-605q0 -77 -21.5 -137 t-53 -99.5t-87 -67t-103.5 -41.5t-125 -21.5t-127.5 -9t-133.5 -1.5zM645 228h166v877h-166v-877z" />
<glyph unicode="&#x210;" horiz-adv-x="1527" d="M0 0zM1174 1846q34 -30 34 -60q0 -21 -18 -35t-45 -14q-18 0 -32 5q-51 16 -161 47t-178.5 51.5t-144.5 47.5t-112 48q-58 34 -87 82t-29 100q0 73 49.5 125.5t124.5 52.5q61 0 125 -37q35 -20 97.5 -71.5t112 -97t139.5 -129t125 -115.5zM483 1846q34 -30 34 -60 q0 -21 -18 -35t-45 -14q-18 0 -32 5q-51 16 -161 47t-178.5 51.5t-144.5 47.5t-112 48q-58 34 -87 82t-29 100q0 73 49.5 125.5t124.5 52.5q61 0 125 -37q35 -20 97.5 -71.5t112 -97t139.5 -129t125 -115.5zM696 881h173v477h-173v-477zM1099 792l1 -6q200 -23 287.5 -115.5 t87.5 -233.5v-437h-606v649h-173v-649h-604v1595h913q113 0 193.5 -19.5t141 -65.5t90 -125.5t29.5 -194.5q0 -71 -9 -124.5t-32.5 -102.5t-63.5 -82.5t-104 -56.5t-151 -32z" />
<glyph unicode="&#x211;" horiz-adv-x="981" d="M0 0zM919 1538q34 -30 34 -60q0 -21 -18 -35t-45 -14q-18 0 -32 5q-51 16 -161 47t-178.5 51.5t-144.5 47.5t-112 48q-58 34 -87 82t-29 100q0 73 49.5 125.5t124.5 52.5q61 0 125 -37q35 -20 97.5 -71.5t112 -97t139.5 -129t125 -115.5zM228 1538q34 -30 34 -60 q0 -21 -18 -35t-45 -14q-18 0 -32 5q-51 16 -161 47t-178.5 51.5t-144.5 47.5t-112 48q-58 34 -87 82t-29 100q0 73 49.5 125.5t124.5 52.5q61 0 125 -37q35 -20 97.5 -71.5t112 -97t139.5 -129t125 -115.5zM100 0l1 1300h486l41 -147q33 79 122 125t207 49v-378l-286 -56 v-893h-571z" />
<glyph unicode="&#x212;" horiz-adv-x="1527" d="M92 0zM783 2218q112 0 194.5 -23.5t133.5 -63.5t81.5 -103t41.5 -131.5t11 -159.5h-297q0 48 -4 74.5t-19.5 53.5t-50 38.5t-91.5 11.5t-91.5 -11.5t-50 -38.5t-19.5 -53.5t-4 -74.5h-297q0 91 11 159.5t41.5 131.5t81.5 103t133.5 63.5t194.5 23.5zM696 881h173v477 h-173v-477zM1099 792l1 -6q200 -23 287.5 -115.5t87.5 -233.5v-437h-606v649h-173v-649h-604v1595h913q113 0 193.5 -19.5t141 -65.5t90 -125.5t29.5 -194.5q0 -71 -9 -124.5t-32.5 -102.5t-63.5 -82.5t-104 -56.5t-151 -32z" />
<glyph unicode="&#x213;" horiz-adv-x="981" d="M67 0zM529 1910q112 0 194.5 -23.5t133.5 -63.5t81.5 -103t41.5 -131.5t11 -159.5h-297q0 48 -4 74.5t-19.5 53.5t-50 38.5t-91.5 11.5t-91.5 -11.5t-50 -38.5t-19.5 -53.5t-4 -74.5h-297q0 91 11 159.5t41.5 131.5t81.5 103t133.5 63.5t194.5 23.5zM100 0l1 1300h486 l41 -147q33 79 122 125t207 49v-378l-286 -56v-893h-571z" />
<glyph unicode="&#x214;" horiz-adv-x="1552" d="M0 0zM1167 1846q34 -30 34 -60q0 -21 -18 -35t-45 -14q-18 0 -32 5q-51 16 -161 47t-178.5 51.5t-144.5 47.5t-112 48q-58 34 -87 82t-29 100q0 73 49.5 125.5t124.5 52.5q61 0 125 -37q35 -20 97.5 -71.5t112 -97t139.5 -129t125 -115.5zM476 1846q34 -30 34 -60 q0 -21 -18 -35t-45 -14q-18 0 -32 5q-51 16 -161 47t-178.5 51.5t-144.5 47.5t-112 48q-58 34 -87 82t-29 100q0 73 49.5 125.5t124.5 52.5q61 0 125 -37q35 -20 97.5 -71.5t112 -97t139.5 -129t125 -115.5zM689 234h173v1360h605v-1224q0 -78 -23.5 -140.5t-60.5 -104.5 t-94.5 -73t-114.5 -48t-131.5 -27t-134.5 -13t-134 -3q-69 0 -126 2.5t-131 12.5t-131.5 27t-116 48t-97 73t-63 105.5t-24.5 141.5v1224h604v-1361z" />
<glyph unicode="&#x215;" horiz-adv-x="1490" d="M0 0zM1129 1538q34 -30 34 -60q0 -21 -18 -35t-45 -14q-18 0 -32 5q-51 16 -161 47t-178.5 51.5t-144.5 47.5t-112 48q-58 34 -87 82t-29 100q0 73 49.5 125.5t124.5 52.5q61 0 125 -37q35 -20 97.5 -71.5t112 -97t139.5 -129t125 -115.5zM438 1538q34 -30 34 -60 q0 -21 -18 -35t-45 -14q-18 0 -32 5q-51 16 -161 47t-178.5 51.5t-144.5 47.5t-112 48q-58 34 -87 82t-29 100q0 73 49.5 125.5t124.5 52.5q61 0 125 -37q35 -20 97.5 -71.5t112 -97t139.5 -129t125 -115.5zM508 -30q-205 0 -314.5 97.5t-109.5 292.5v940h572v-1067h166 v1067h572v-1300h-517l-37 112q-40 -65 -133 -103.5t-199 -38.5z" />
<glyph unicode="&#x216;" horiz-adv-x="1552" d="M85 0zM776 2218q112 0 194.5 -23.5t133.5 -63.5t81.5 -103t41.5 -131.5t11 -159.5h-297q0 48 -4 74.5t-19.5 53.5t-50 38.5t-91.5 11.5t-91.5 -11.5t-50 -38.5t-19.5 -53.5t-4 -74.5h-297q0 91 11 159.5t41.5 131.5t81.5 103t133.5 63.5t194.5 23.5zM689 234h173v1360 h605v-1224q0 -78 -23.5 -140.5t-60.5 -104.5t-94.5 -73t-114.5 -48t-131.5 -27t-134.5 -13t-134 -3q-69 0 -126 2.5t-131 12.5t-131.5 27t-116 48t-97 73t-63 105.5t-24.5 141.5v1224h604v-1361z" />
<glyph unicode="&#x217;" horiz-adv-x="1490" d="M84 0zM739 1910q112 0 194.5 -23.5t133.5 -63.5t81.5 -103t41.5 -131.5t11 -159.5h-297q0 48 -4 74.5t-19.5 53.5t-50 38.5t-91.5 11.5t-91.5 -11.5t-50 -38.5t-19.5 -53.5t-4 -74.5h-297q0 91 11 159.5t41.5 131.5t81.5 103t133.5 63.5t194.5 23.5zM508 -30 q-205 0 -314.5 97.5t-109.5 292.5v940h572v-1067h166v1067h572v-1300h-517l-37 112q-40 -65 -133 -103.5t-199 -38.5z" />
<glyph unicode="&#x218;" horiz-adv-x="1451" d="M55 0zM527 -341q0 94 60.5 147t143.5 53q103 0 156.5 -68t53.5 -172q0 -70 -23.5 -140.5t-66.5 -129.5t-110.5 -96t-146.5 -37q-22 0 -44 3v109q63 1 107.5 33.5t48.5 88.5q-75 8 -127 62.5t-52 146.5zM632 1125l3 -2q0 -6 2.5 -12t8 -10.5t11 -8t15 -7t16 -5.5t18 -4.5 t17.5 -3.5l18 -3t16 -3q225 -40 323 -74q221 -76 293 -240q40 -89 40 -210q0 -173 -37.5 -285t-123 -178t-208 -92t-309.5 -26q-68 0 -122 2.5t-123.5 11.5t-122.5 25t-108.5 45t-93 68.5t-64.5 98.5t-34 133q-6 68 -6 143h573v-253h173v250q0 19 -10 33.5t-32 26t-35 16.5 t-41 14q-33 11 -86 26.5t-89.5 26.5t-86 28t-84.5 32.5t-76.5 39t-70 49t-57.5 60t-46 74t-27.5 90.5t-10.5 110q0 92 17 167t47 129t76.5 94.5t99 65.5t121 40.5t137 21.5t152.5 6q88 0 156.5 -4.5t137 -17t118.5 -34t94 -55.5t71 -81.5t43 -113.5t16 -149h-536v178h-173 v-233z" />
<glyph unicode="&#x219;" horiz-adv-x="1414" d="M55 0zM502 -332q0 94 60.5 147t143.5 53q103 0 156.5 -68t53.5 -172q0 -70 -23.5 -140.5t-66.5 -129.5t-110.5 -96t-146.5 -37q-22 0 -44 3v109q63 1 107.5 33.5t48.5 88.5q-75 8 -127 62.5t-52 146.5zM792 446h1q-8 9 -44 14q-19 3 -66.5 9t-74 9.5t-66 10t-72.5 13.5 t-63 15q-74 20 -134.5 52t-111 78t-78.5 110.5t-28 142.5q0 77 18 139t49 106t79.5 76.5t102.5 52.5t125 32t140 16.5t155 4.5q70 0 120.5 -2t118.5 -10t116 -22.5t99 -42.5t82 -66t51.5 -96.5t20.5 -131.5q0 -69 -1 -84l-539 30v161h-167v-202q9 -9 45 -15q27 -4 106 -15.5 t134 -21.5t102 -23q72 -20 131.5 -49.5t110.5 -73t80 -106t29 -137.5q0 -76 -14.5 -138t-43 -107t-64 -79t-86.5 -56t-100 -36.5t-114 -21.5t-120 -9.5t-126 -2.5q-84 0 -145 3t-129 13.5t-114.5 29t-91.5 50.5t-71.5 76.5t-42.5 108.5t-16 146q0 23 1 35l539 -32v-167h167 v213z" />
<glyph unicode="&#x21a;" horiz-adv-x="1319" d="M3 0zM453 -302q0 94 60.5 147t143.5 53q103 0 156.5 -68t53.5 -172q0 -70 -23.5 -140.5t-66.5 -129.5t-110.5 -96t-146.5 -37q-22 0 -44 3v109q63 1 107.5 33.5t48.5 88.5q-75 8 -127 62.5t-52 146.5zM1316 1595v-269h-356v-1326h-604v1326h-353v269h1313z" />
<glyph unicode="&#x21b;" horiz-adv-x="944" d="M0 0zM243 -327q0 94 60.5 147t143.5 53q103 0 156.5 -68t53.5 -172q0 -70 -23.5 -140.5t-66.5 -129.5t-110.5 -96t-146.5 -37q-22 0 -44 3v109q63 1 107.5 33.5t48.5 88.5q-75 8 -127 62.5t-52 146.5zM906 -7l-6 -1t-17 -2.5t-25.5 -3.5t-33.5 -4t-39 -3.5t-43.5 -2.5 t-46.5 -1q-108 0 -184.5 6t-143 22t-108.5 43t-72 70t-43 102.5t-13 140.5v741h-137v200h137v295h571v-295h159v-200h-159v-772q0 -31 16 -52.5t46 -32.5t63.5 -15.5t78.5 -4.5v-230z" />
<glyph unicode="&#x237;" horiz-adv-x="868" d="M784 94q0 -216 -117 -318t-344 -102q-164 0 -270 21l-30 239h189v1366h572v-1206z" />
<glyph unicode="&#x2c6;" horiz-adv-x="954" d="M72 1527l263 409q22 35 61 53.5t82 18.5q94 0 141 -72l263 -409q18 -29 18 -53q0 -27 -18 -45t-45 -18q-29 0 -57 22l-303 235l-303 -235q-26 -20 -54 -20t-47 17.5t-19 44.5q0 23 18 52z" />
<glyph unicode="&#x2c7;" horiz-adv-x="954" d="M335 1483l-263 409q-18 28 -18 52q0 27 19 44.5t47 17.5t54 -20l303 -235l303 235q28 22 57 22q27 0 45 -18t18 -45q0 -25 -18 -53l-263 -409q-47 -72 -141 -72q-43 0 -82 18.5t-61 53.5z" />
<glyph unicode="&#x2d8;" horiz-adv-x="1062" d="M537 1398q-112 0 -194.5 23.5t-133.5 63.5t-81.5 103t-41.5 131.5t-11 159.5h297q0 -48 4 -74.5t19.5 -53.5t50 -38.5t91.5 -11.5t91.5 11.5t50 38.5t19.5 53.5t4 74.5h297q0 -91 -11 -159.5t-41.5 -131.5t-81.5 -103t-133.5 -63.5t-194.5 -23.5z" />
<glyph unicode="&#x2d9;" horiz-adv-x="670" d="M591 0h-507v467h507v-467z" />
<glyph unicode="&#x2da;" horiz-adv-x="805" d="M403 552q-52 0 -86.5 -34.5t-34.5 -87.5q0 -51 35 -86t86 -35q50 0 85.5 35.5t35.5 85.5q0 52 -35 87t-86 35zM738 430q0 -139 -95.5 -229.5t-237.5 -90.5q-109 0 -189 54.5t-118 140.5q-26 60 -26 125q0 141 95 231.5t238 90.5q109 0 189 -55t118 -141q26 -60 26 -126z " />
<glyph unicode="&#x2db;" horiz-adv-x="693" d="M566 0l71 -72q-51 -34 -80.5 -86.5t-29.5 -102.5t31.5 -82t93.5 -32q57 0 135 29v-315q-108 -41 -201 -41q-150 0 -240 92t-90 222q0 117 78 222.5t232 165.5z" />
<glyph unicode="&#x2dc;" horiz-adv-x="1422" d="M1359 96h-293q0 70 -26.5 117t-83.5 47q-20 0 -41.5 -9.5t-30.5 -15.5t-31 -24q-86 -69 -167 -105t-200 -36q-171 0 -258 75t-122 231q-27 94 -27 245h296q0 -73 26 -120.5t86 -47.5q7 0 14 1t14 3t12.5 3.5t13 6t11 6.5t12 7.5t10.5 7t11 8t10 7.5q53 39 76 54 t72.5 41.5t99.5 37t110 10.5q76 0 135.5 -12.5t102.5 -35t73 -60t48.5 -79.5t29 -102.5t14 -120t3.5 -140.5z" />
<glyph unicode="&#x2dd;" horiz-adv-x="873" d="M89 1480q35 32 125 115.5t139.5 129t112 97t97.5 71.5q64 37 125 37q75 0 124.5 -52.5t49.5 -125.5q0 -52 -29 -100t-87 -82q-36 -21 -112 -48t-144.5 -47.5t-178.5 -51.5t-161 -47q-14 -5 -32 -5q-27 0 -45 14t-18 35q0 30 34 60zM780 1480q35 32 125 115.5t139.5 129 t112 97t97.5 71.5q64 37 125 37q75 0 124.5 -52.5t49.5 -125.5q0 -52 -29 -100t-87 -82q-36 -21 -112 -48t-144.5 -47.5t-178.5 -51.5t-161 -47q-14 -5 -32 -5q-27 0 -45 14t-18 35q0 30 34 60z" />
<glyph unicode="&#x307;" horiz-adv-x="670" d="M136 1426q0 99 60.5 154.5t143.5 55.5t143.5 -55.5t60.5 -154.5t-60.5 -154.5t-143.5 -55.5t-143.5 55.5t-60.5 154.5z" />
<glyph unicode="&#x30f;" horiz-adv-x="873" d="M1519 1480q34 -30 34 -60q0 -21 -18 -35t-45 -14q-18 0 -32 5q-51 16 -161 47t-178.5 51.5t-144.5 47.5t-112 48q-58 34 -87 82t-29 100q0 73 49.5 125.5t124.5 52.5q61 0 125 -37q35 -20 97.5 -71.5t112 -97t139.5 -129t125 -115.5zM828 1480q34 -30 34 -60 q0 -21 -18 -35t-45 -14q-18 0 -32 5q-51 16 -161 47t-178.5 51.5t-144.5 47.5t-112 48q-58 34 -87 82t-29 100q0 73 49.5 125.5t124.5 52.5q61 0 125 -37q35 -20 97.5 -71.5t112 -97t139.5 -129t125 -115.5z" />
<glyph unicode="&#x311;" horiz-adv-x="1062" d="M537 1879q112 0 194.5 -23.5t133.5 -63.5t81.5 -103t41.5 -131.5t11 -159.5h-297q0 48 -4 74.5t-19.5 53.5t-50 38.5t-91.5 11.5t-91.5 -11.5t-50 -38.5t-19.5 -53.5t-4 -74.5h-297q0 91 11 159.5t41.5 131.5t81.5 103t133.5 63.5t194.5 23.5z" />
<glyph unicode="&#x326;" horiz-adv-x="711" d="M141 209q0 94 60.5 147t143.5 53q103 0 156.5 -68t53.5 -172q0 -70 -23.5 -140.5t-66.5 -129.5t-110.5 -96t-146.5 -37q-22 0 -44 3v109q63 1 107.5 33.5t48.5 88.5q-75 8 -127 62.5t-52 146.5z" />
<glyph unicode="&#x2013;" horiz-adv-x="1005" d="M920 897v-436h-833v436h833z" />
<glyph unicode="&#x2014;" horiz-adv-x="1857" d="M1772 897v-436h-1685v436h1685z" />
<glyph unicode="&#x2018;" horiz-adv-x="722" d="M569 1187q0 -94 -57.5 -147t-136.5 -53q-108 0 -164 68t-56 172q0 70 23.5 140.5t66.5 129.5t110.5 96t146.5 37q22 0 44 -3v-109q-63 -1 -107.5 -33.5t-48.5 -88.5q75 -8 127 -62.5t52 -146.5z" />
<glyph unicode="&#x2019;" horiz-adv-x="706" d="M154 1430q0 94 60.5 147t143.5 53q103 0 156.5 -68t53.5 -172q0 -70 -23.5 -140.5t-66.5 -129.5t-110.5 -96t-146.5 -37q-21 0 -44 3v109q63 1 107.5 33.5t48.5 88.5q-75 8 -127 62.5t-52 146.5z" />
<glyph unicode="&#x201a;" horiz-adv-x="648" d="M253 -350q-16 68 -52.5 197.5t-58.5 222t-22 138.5q0 84 55 129.5t131 45.5q78 0 136.5 -47.5t58.5 -129.5q0 -48 -23.5 -141t-61 -220t-53.5 -195q-6 -28 -21.5 -43.5t-33.5 -15.5q-17 0 -32 15t-23 44z" />
<glyph unicode="&#x201c;" horiz-adv-x="1339" d="M668 1187q0 -94 -60.5 -147t-143.5 -53q-103 0 -156.5 68t-53.5 172q0 70 23.5 140.5t66.5 129.5t110.5 96t146.5 37q21 0 44 -3v-109q-63 -1 -107.5 -33.5t-48.5 -88.5q75 -8 127 -62.5t52 -146.5zM1171 1187q0 -94 -60.5 -147t-143.5 -53q-103 0 -156.5 68t-53.5 172 q0 70 23.5 140.5t66.5 129.5t110.5 96t146.5 37q22 0 44 -3v-109q-63 -1 -107.5 -33.5t-48.5 -88.5q75 -8 127 -62.5t52 -146.5z" />
<glyph unicode="&#x201d;" horiz-adv-x="1327" d="M757 1430q0 94 60.5 147t143.5 53q103 0 156.5 -68t53.5 -172q0 -70 -23.5 -140.5t-66.5 -129.5t-110.5 -96t-146.5 -37q-22 0 -44 3v109q63 1 107.5 33.5t48.5 88.5q-75 8 -127 62.5t-52 146.5zM254 1430q0 94 60.5 147t143.5 53q103 0 156.5 -68t53.5 -172 q0 -70 -23.5 -140.5t-66.5 -129.5t-110.5 -96t-146.5 -37q-21 0 -44 3v109q63 1 107.5 33.5t48.5 88.5q-75 8 -127 62.5t-52 146.5z" />
<glyph unicode="&#x201e;" horiz-adv-x="1229" d="M786 -350q-16 68 -52.5 197.5t-58.5 222t-22 138.5q0 84 55 129.5t131 45.5q78 0 136.5 -47.5t58.5 -129.5q0 -48 -23.5 -141t-61 -220t-53.5 -195q-6 -28 -22 -43.5t-33 -15.5t-32 15t-23 44zM289 -350q-16 68 -52.5 197.5t-58.5 222t-22 138.5q0 84 55 129.5t131 45.5 q78 0 136.5 -47.5t58.5 -129.5q0 -48 -23.5 -141t-61 -220t-53.5 -195q-6 -28 -21.5 -43.5t-33.5 -15.5q-17 0 -32 15t-23 44z" />
<glyph unicode="&#x2020;" horiz-adv-x="1061" d="M713 1458q0 -47 -22 -114t-43.5 -113t-63.5 -128q15 6 63 24.5t72.5 27.5t63 21t68.5 17.5t57 5.5q55 0 86 -42t31 -99q0 -58 -31 -100.5t-87 -42.5q-26 0 -54 4.5t-69 18t-59 19.5t-72.5 27t-60.5 23q44 -235 63.5 -343t38 -240.5t18.5 -201.5q0 -101 -56.5 -159 t-132.5 -58q-74 0 -128 56.5t-54 158.5q0 70 17.5 203.5t38 250.5t58.5 328q-80 -31 -117 -44.5t-92.5 -28t-92.5 -14.5q-57 0 -88 41.5t-31 99.5t31.5 100.5t86.5 42.5q38 0 94.5 -15t94.5 -28.5t119 -45.5q-58 114 -90 197t-32 150q0 81 54.5 125.5t130.5 44.5t133 -45 t57 -124z" />
<glyph unicode="&#x2021;" horiz-adv-x="1061" d="M455 586v416q-80 -31 -117 -44.5t-92.5 -28t-92.5 -14.5q-57 0 -88 41.5t-31 99.5t31.5 100.5t86.5 42.5q38 0 94.5 -15t94.5 -28.5t119 -45.5q-58 114 -90 197t-32 150q0 81 54.5 125.5t130.5 44.5t133 -45t57 -124q0 -47 -22 -114t-43.5 -113t-63.5 -128q15 6 63 24.5 t72.5 27.5t63 21t68.5 17.5t57 5.5q55 0 86 -42t31 -99q0 -58 -31 -100.5t-87 -42.5q-26 0 -54 4.5t-69 18t-59 19.5t-72.5 27t-60.5 23v-426q13 5 51.5 20t57 22t52.5 18.5t56 17t49 10t49 4.5q56 0 87 -42.5t31 -100.5q0 -57 -31 -99t-86 -42q-27 0 -57 5.5t-68.5 17.5 t-63 21t-72.5 27.5t-63 24.5q42 -82 63.5 -128t43.5 -113t22 -114q0 -79 -57 -124t-133 -45t-130.5 44.5t-54.5 125.5q0 67 32 150t90 197q-81 -32 -119 -45.5t-94.5 -28.5t-94.5 -15q-55 0 -86.5 42.5t-31.5 100.5t31 99.5t88 41.5q37 0 92.5 -14.5t92.5 -28t117 -44.5z " />
<glyph unicode="&#x2022;" horiz-adv-x="1120" d="M1053 726q0 -126 -23 -219t-76 -165.5t-147.5 -109.5t-229.5 -37q-147 0 -246 33.5t-156 103.5t-80.5 164.5t-23.5 229.5q0 283 117 405.5t391 122.5q251 0 362.5 -129.5t111.5 -398.5z" />
<glyph unicode="&#x2026;" horiz-adv-x="2010" d="M1476 171q0 99 60.5 154.5t143.5 55.5t143.5 -55.5t60.5 -154.5t-60.5 -154.5t-143.5 -55.5t-143.5 55.5t-60.5 154.5zM806 171q0 99 60.5 154.5t143.5 55.5t143.5 -55.5t60.5 -154.5t-60.5 -154.5t-143.5 -55.5t-143.5 55.5t-60.5 154.5zM136 171q0 99 60.5 154.5 t143.5 55.5t143.5 -55.5t60.5 -154.5t-60.5 -154.5t-143.5 -55.5t-143.5 55.5t-60.5 154.5z" />
<glyph unicode="&#x2039;" horiz-adv-x="1036" d="M760 213l-526 380q-44 31 -67 80t-23 102q1 55 24.5 105t65.5 81l526 380q32 23 66 23t57 -25t23 -61q0 -37 -24 -69l-334 -432l334 -432q22 -28 22 -68q0 -36 -23 -61.5t-57 -25.5q-33 0 -64 23z" />
<glyph unicode="&#x203a;" horiz-adv-x="1034" d="M816 593l-526 -380q-31 -23 -64 -23q-34 0 -57 25.5t-23 61.5q0 40 22 68l334 432l-334 432q-24 32 -24 69q0 36 23 61t57 25t66 -23l526 -380q42 -31 65.5 -81t24.5 -105q0 -53 -23 -102t-67 -80z" />
<glyph unicode="&#x2074;" horiz-adv-x="1298" d="M1096 130h-359v161h-516v280l170 601h385l-169 -601v-36h130v225h359v-630z" />
<glyph unicode="&#x20ac;" horiz-adv-x="1432" d="M0 705h90v138h-90v144h90v239q0 77 23.5 139.5t61 104t94.5 72.5t114.5 47.5t132 26.5t134 13t133.5 3q79 0 138 -2.5t135 -12t131 -25.5t112 -46.5t92.5 -72.5t58 -104.5t22.5 -141.5v-88h-604v217h-173v-368h342v-145h-342v-137h342v-145h-342v-328h173v218h604v-82 q0 -78 -23 -140.5t-59.5 -104.5t-92.5 -73t-112.5 -48t-130.5 -27t-133.5 -13t-134.5 -3q-69 0 -126 2.5t-131.5 12.5t-132.5 27t-118 48t-99 73t-64 105t-25 142v191h-90v144z" />
<glyph unicode="&#x2122;" horiz-adv-x="1884" d="M1238 657l-78 294v-294h-371v938h434l68 -437l60 437h440v-938h-370v294l-79 -294h-104zM745 1595v-142h-163v-796h-373v796h-162v142h698z" />
<glyph unicode="&#xfb01;" horiz-adv-x="1869" d="M18 0zM1779 1709v-284h-571v284h571zM1779 0h-571v1300h571v-1300zM225 1300q0 120 33 204t99.5 133.5t158.5 71.5t219 22q209 0 366 -48v-206h-305v-177h314v-202h-314v-1098h-571v1098h-207v202h207z" />
<glyph unicode="&#xfb02;" horiz-adv-x="1878" d="M18 0zM1794 0h-571v1710h571v-1710zM225 1300q0 120 33 204t99.5 133.5t158.5 71.5t219 22q209 0 366 -48v-206h-305v-177h314v-202h-314v-1098h-571v1098h-207v202h207z" />
<glyph horiz-adv-x="380" d="M-17 -295q0 94 60.5 147t143.5 53q103 0 156.5 -68t53.5 -172q0 -70 -23.5 -140.5t-66.5 -129.5t-110.5 -96t-146.5 -37q-22 0 -44 3v109q63 1 107.5 33.5t48.5 88.5q-75 8 -127 62.5t-52 146.5z" />
<glyph unicode="&#xfb00;" horiz-adv-x="2236" d="M18 0zM1343 1300q0 120 33 204t99.5 133.5t158.5 71.5t219 22q209 0 366 -48v-206h-305v-177h314v-202h-314v-1098h-571v1098h-207v202h207zM225 1300q0 120 33 204t99.5 133.5t158.5 71.5t219 22q209 0 366 -48v-206h-305v-177h314v-202h-314v-1098h-571v1098h-207v202 h207z" />
<glyph unicode="&#xfb03;" horiz-adv-x="2987" d="M18 0zM2897 1709v-284h-571v284h571zM2897 0h-571v1300h571v-1300zM1343 1300q0 120 33 204t99.5 133.5t158.5 71.5t219 22q209 0 366 -48v-206h-305v-177h314v-202h-314v-1098h-571v1098h-207v202h207zM225 1300q0 120 33 204t99.5 133.5t158.5 71.5t219 22 q209 0 366 -48v-206h-305v-177h314v-202h-314v-1098h-571v1098h-207v202h207z" />
<glyph unicode="&#x1c7;" horiz-adv-x="1995" d="M92 0zM1903 1594v-1320q0 -116 -39.5 -201.5t-111.5 -135t-164 -73t-206 -23.5q-118 0 -256 25v272h173v1456h604zM92 0v1595h604v-1354h341v-241h-945z" />
<glyph unicode="&#x1c8;" horiz-adv-x="1899" d="M92 0zM1809 1709v-284h-572v284h572zM1809 94q0 -216 -117 -318t-344 -102q-164 0 -270 21l-30 239h189v1366h572v-1206zM92 0v1595h604v-1354h341v-241h-945z" />
<glyph unicode="&#x1ca;" horiz-adv-x="2499" d="M92 0zM2407 1594v-1320q0 -116 -39.5 -201.5t-111.5 -135t-164 -73t-206 -23.5q-118 0 -256 25v272h173v1456h604zM945 0l-405 711v-711h-448v1595h517l431 -761v761h444v-1595h-539z" />
<glyph unicode="&#x1cb;" horiz-adv-x="2403" d="M92 0zM2313 1709v-284h-572v284h572zM2313 94q0 -216 -117 -318t-344 -102q-164 0 -270 21l-30 239h189v1366h572v-1206zM945 0l-405 711v-711h-448v1595h517l431 -761v761h444v-1595h-539z" />
<glyph unicode="&#x2212;" horiz-adv-x="1286" d="M1229 908v-238h-1162v238h1162z" />
<glyph horiz-adv-x="1286" d="M0 0z" />
</font>
</defs>
</svg>
